STARTFONT 2.1
COMMENT
COMMENT Converted from OpenType font "SpaceMono-Regular.ttf" by "otf2bdf 3.0".
COMMENT
FONT -FreeType-Space Mono-Medium-R-Normal--55-400-100-100-P-253-ISO10646-1
SIZE 40 100 100
FONTBOUNDINGBOX 35 79 0 -17
STARTPROPERTIES 19
FOUNDRY "FreeType"
FAMILY_NAME "Space Mono"
WEIGHT_NAME "Medium"
SLANT "R"
SETWIDTH_NAME "Normal"
ADD_STYLE_NAME ""
PIXEL_SIZE 55
POINT_SIZE 400
RESOLUTION_X 100
RESOLUTION_Y 100
SPACING "P"
AVERAGE_WIDTH 253
CHARSET_REGISTRY "ISO10646"
CHARSET_ENCODING "1"
FONT_ASCENT 62
FONT_DESCENT 20
COPYRIGHT "Copyright 2016 Google Inc. All Rights Reserved."
_OTF_FONTFILE "SpaceMono-Regular.ttf"
_OTF_PSNAME "SpaceMono-Regular"
ENDPROPERTIES
CHARS 613
STARTCHAR 0000
ENCODING 0
SWIDTH 612 0
DWIDTH 34 0
BBX 0 0 0 0
BITMAP
ENDCHAR
STARTCHAR 0020
ENCODING 32
SWIDTH 612 0
DWIDTH 34 0
BBX 0 0 0 0
BITMAP
ENDCHAR
STARTCHAR 0021
ENCODING 33
SWIDTH 612 0
DWIDTH 34 0
BBX 8 41 13 -1
BITMAP
3C
3C
3C
3C
3C
3C
3C
3C
3C
3C
3C
3C
3C
3C
3C
3C
3C
3C
3C
3C
3C
3C
3C
3C
3C
3C
3C
3C
3C
00
00
00
00
3C
7E
FF
FF
FF
FF
7E
3C
ENDCHAR
STARTCHAR 0022
ENCODING 34
SWIDTH 612 0
DWIDTH 34 0
BBX 18 14 8 27
BITMAP
3C0F00
7E1F80
FF1FC0
FF3FC0
FF3FC0
FF1FC0
7E1F80
3C0F00
1C0700
1C0700
1C0700
1C0700
1C0700
1C0700
ENDCHAR
STARTCHAR 0023
ENCODING 35
SWIDTH 612 0
DWIDTH 34 0
BBX 26 28 4 6
BITMAP
03C0F000
03C0F000
03C0F000
03C0F000
03C0F000
03C0F000
03C0F000
FFFFFFC0
FFFFFFC0
FFFFFFC0
FFFFFFC0
03C0F000
03C0F000
03C0F000
03C0F000
03C0F000
03C0F000
FFFFFFC0
FFFFFFC0
FFFFFFC0
FFFFFFC0
03C0F000
03C0F000
03C0F000
03C0F000
03C0F000
03C0F000
03C0F000
ENDCHAR
STARTCHAR 0024
ENCODING 36
SWIDTH 612 0
DWIDTH 34 0
BBX 23 37 5 2
BITMAP
003C00
003C00
003C00
003C00
03FF00
0FFFC0
1FFFE0
3FFFF0
3F3DF8
7C3C7C
7C3C7C
783C3C
783C3C
7C3C3C
7E3C00
3FBC00
3FFE00
1FFFE0
07FFF0
00FFF8
003DFC
003C7E
F83C3E
F83C1E
F83C1E
783C1E
7C3C1E
7C3C3E
3F3C7C
3FFFFC
1FFFF8
07FFF0
01FFC0
003C00
003C00
003C00
003C00
ENDCHAR
STARTCHAR 0025
ENCODING 37
SWIDTH 612 0
DWIDTH 34 0
BBX 28 40 3 0
BITMAP
07E00000
1FF80000
3FFC0000
7C3E0000
780F0000
F00F0000
F0070000
E0070000
E0070000
E0070000
E0070000
F00F0000
780F0020
7C3E00E0
3FFC03F0
1FF80FC0
07E03F00
0000FC00
0003F000
000FC000
003F0000
00FC0000
03F00000
0FC07E00
3F81FF80
FE03FFC0
7807C3E0
600780F0
000F00F0
000F0070
000E0070
000E0070
000E0070
000F0070
000F00F0
000780F0
0007C3E0
0003FFC0
0001FF80
00007E00
ENDCHAR
STARTCHAR 0026
ENCODING 38
SWIDTH 612 0
DWIDTH 34 0
BBX 29 40 3 0
BITMAP
00FFE000
07FFE000
1FFFE000
3FFFE000
3FC00000
7E000000
7C000000
F8000000
F8000000
F0000000
F0000000
F0000000
F0001F00
F8001F00
F8001F00
7C001F00
3E001F00
3F801F00
0FFFFFF8
03FFFFF8
03FFFFF8
0FFFFFF8
1FC01F00
3E001F00
7C001F00
78001F00
F8001F00
F8001F00
F0001F00
F0001F00
F0001F00
F8001F00
F8001F00
7C001F00
7E001F00
3FC01F00
3FFFFF00
1FFFFF00
07FFFF00
01FFFF00
ENDCHAR
STARTCHAR 0027
ENCODING 39
SWIDTH 612 0
DWIDTH 34 0
BBX 8 14 13 27
BITMAP
3C
7E
FF
FF
FF
FF
7E
3C
1C
1C
1C
1C
1C
1C
ENDCHAR
STARTCHAR 0028
ENCODING 40
SWIDTH 612 0
DWIDTH 34 0
BBX 22 57 9 -9
BITMAP
0003FC
000FFC
003FFC
00FFFC
01FF00
03F800
07E000
0FC000
1F8000
1F0000
3E0000
3E0000
7C0000
7C0000
780000
F80000
F80000
F00000
F00000
F00000
F00000
F00000
F00000
F00000
F00000
F00000
F00000
F00000
F00000
F00000
F00000
F00000
F00000
F00000
F00000
F00000
F00000
F00000
F00000
F00000
F80000
F80000
780000
7C0000
7C0000
3E0000
3E0000
1F0000
1F8000
0FC000
07F000
03FC00
01FF80
00FFFC
003FFC
000FFC
0001FC
ENDCHAR
STARTCHAR 0029
ENCODING 41
SWIDTH 612 0
DWIDTH 34 0
BBX 22 57 4 -9
BITMAP
FE0000
FFC000
FFF000
FFF800
07FC00
00FF00
003F00
001F80
000FC0
0007E0
0003E0
0001F0
0001F0
0000F0
0000F8
0000F8
000078
000078
000078
000078
00007C
00007C
00007C
00007C
00007C
00007C
00007C
00007C
00007C
00007C
00007C
00007C
00007C
00007C
00007C
00007C
00007C
000078
000078
000078
000078
0000F8
0000F8
0001F0
0001F0
0003E0
0003E0
0007C0
000FC0
001F80
003F00
00FE00
07FC00
FFF800
FFE000
FF8000
FC0000
ENDCHAR
STARTCHAR 002A
ENCODING 42
SWIDTH 612 0
DWIDTH 34 0
BBX 28 28 3 6
BITMAP
000F0000
000F0000
000F0000
060F0200
0F0F0700
1F8F0F80
0FCF1F00
07EF3E00
03EF7C00
01F77800
00FFF000
003FE000
FFFFFFF0
FFFFFFF0
FFFFFFF0
FFBFDFF0
003FE000
00FFF000
01F77800
03EF7C00
07EF3E00
0FCF1F00
1F8F0F80
0F0F0700
060F0200
000F0000
000F0000
000F0000
ENDCHAR
STARTCHAR 002B
ENCODING 43
SWIDTH 612 0
DWIDTH 34 0
BBX 24 24 5 8
BITMAP
003C00
003C00
003C00
003C00
003C00
003C00
003C00
003C00
003C00
003C00
FFFFFF
FFFFFF
FFFFFF
FFFFFF
003C00
003C00
003C00
003C00
003C00
003C00
003C00
003C00
003C00
003C00
ENDCHAR
STARTCHAR 002C
ENCODING 44
SWIDTH 612 0
DWIDTH 34 0
BBX 8 14 13 -7
BITMAP
3C
7E
FF
FF
FF
FF
7F
3F
07
07
07
7F
7E
7C
ENDCHAR
STARTCHAR 002D
ENCODING 45
SWIDTH 612 0
DWIDTH 34 0
BBX 17 4 9 13
BITMAP
FFFF80
FFFF80
FFFF80
FFFF80
ENDCHAR
STARTCHAR 002E
ENCODING 46
SWIDTH 612 0
DWIDTH 34 0
BBX 8 8 13 -1
BITMAP
3C
7E
FF
FF
FF
FF
7E
3C
ENDCHAR
STARTCHAR 002F
ENCODING 47
SWIDTH 612 0
DWIDTH 34 0
BBX 20 51 7 -6
BITMAP
0000C0
0000F0
0001F0
0001E0
0001E0
0003E0
0003E0
0003C0
0003C0
0007C0
000780
000780
000F80
000F00
000F00
001F00
001E00
001E00
003E00
003C00
003C00
007C00
007800
007800
00F800
00F000
00F000
01F000
01E000
01E000
03E000
03C000
03C000
07C000
078000
078000
0F8000
0F0000
0F0000
1F0000
1E0000
1E0000
3E0000
3C0000
3C0000
7C0000
780000
780000
F80000
F00000
300000
ENDCHAR
STARTCHAR 0030
ENCODING 48
SWIDTH 612 0
DWIDTH 34 0
BBX 28 42 3 -1
BITMAP
003FC000
01FFF800
03FFFC00
07FFFF00
0FF0FF00
1FC01F80
3F000FC0
3E0007C0
3E0007E0
7C0003E0
7C0003E0
7C0001E0
780001F0
F80001F0
F80001F0
F80001F0
F80001F0
F80001F0
F80F01F0
F81F81F0
F81FC1F0
F81FC1F0
F81FC1F0
F81F81F0
F80F01F0
F80001F0
F80001F0
F80001F0
F80001F0
780001F0
7C0001E0
7C0003E0
7C0003E0
3E0003E0
3E0007C0
3F000FC0
1F801F80
0FF07F80
07FFFF00
03FFFC00
01FFF800
003FC000
ENDCHAR
STARTCHAR 0031
ENCODING 49
SWIDTH 612 0
DWIDTH 34 0
BBX 28 40 3 0
BITMAP
01FF8000
01FF8000
01EF8000
03EF8000
03CF8000
07CF8000
07CF8000
0F8F8000
0F8F8000
0F0F8000
1F0F8000
1E0F8000
3E0F8000
3E0F8000
7C0F8000
7C0F8000
F80F8000
000F8000
000F8000
000F8000
000F8000
000F8000
000F8000
000F8000
000F8000
000F8000
000F8000
000F8000
000F8000
000F8000
000F8000
000F8000
000F8000
000F8000
000F8000
000F8000
7FFFFFF0
7FFFFFF0
7FFFFFF0
7FFFFFF0
ENDCHAR
STARTCHAR 0032
ENCODING 50
SWIDTH 612 0
DWIDTH 34 0
BBX 27 41 4 0
BITMAP
007FC000
01FFF000
07FFFC00
0FFFFE00
1FE0FF00
3F003F80
7E000F80
7C000FC0
7C0007C0
F80003C0
F80003E0
F80003E0
F00003E0
F00003E0
F00003E0
F00003E0
F00007C0
000007C0
00000FC0
00003F80
0000FF80
0007FF00
007FFE00
01FFF800
07FFF000
0FFF8000
1FF80000
3FC00000
7F000000
7E000000
FC000000
F8000000
F8000000
F8000000
F8000000
F8000000
F8000000
FFFFFFC0
FFFFFFC0
FFFFFFC0
FFFFFFC0
ENDCHAR
STARTCHAR 0033
ENCODING 51
SWIDTH 612 0
DWIDTH 34 0
BBX 27 41 4 -1
BITMAP
FFFFFFC0
FFFFFFC0
FFFFFFC0
FFFFFFC0
000003C0
000007C0
00000FC0
00003FC0
00007F00
0000FE00
0003FC00
0007F000
001FE000
003F8000
007F0000
007C0000
00780000
007FE000
007FFC00
007FFE00
007FFF00
00007F80
00001FC0
00000FC0
000007E0
F00003E0
F00003E0
F00003E0
F00003E0
F00003E0
F80003E0
F80003E0
F80007E0
7C0007C0
7E000FC0
3F001F80
1FE0FF00
0FFFFE00
07FFFC00
01FFF000
007FC000
ENDCHAR
STARTCHAR 0034
ENCODING 52
SWIDTH 612 0
DWIDTH 34 0
BBX 29 40 3 0
BITMAP
0007FE00
0007FE00
000FBE00
000F3E00
001F3E00
001E3E00
003E3E00
007C3E00
007C3E00
00F83E00
00F83E00
01F03E00
01F03E00
03E03E00
03E03E00
07C03E00
07C03E00
0F803E00
0F003E00
1F003E00
1E003E00
3E003E00
3C003E00
7C003E00
F8003E00
F8003E00
F0003E00
F0003E00
FFFFFFF8
FFFFFFF8
FFFFFFF8
FFFFFFF8
00003E00
00003E00
00003E00
00003E00
00003E00
00003E00
00003E00
00003E00
ENDCHAR
STARTCHAR 0035
ENCODING 53
SWIDTH 612 0
DWIDTH 34 0
BBX 28 41 4 -1
BITMAP
FFFFFF80
FFFFFF80
FFFFFF80
FFFFFF80
F8000000
F8000000
F8000000
F8000000
F8000000
F8000000
F8000000
F8000000
F8000000
F8000000
F81FF000
F87FFC00
F8FFFE00
F9FFFF00
FBF03F80
FFC00FC0
FFC007C0
000007E0
000003E0
000003E0
000001E0
000001F0
F00001F0
F00001F0
F00001F0
F80001E0
F80003E0
F80003E0
7C0007E0
7C0007C0
7E000FC0
3F801F80
1FE0FF00
0FFFFE00
07FFFC00
01FFF800
007FC000
ENDCHAR
STARTCHAR 0036
ENCODING 54
SWIDTH 612 0
DWIDTH 34 0
BBX 27 42 4 -1
BITMAP
007F8000
01FFF000
07FFF800
0FFFFC00
1FE1FE00
3F003F00
7E001F80
7C000F80
FC000F80
F80007C0
F80007C0
F00007C0
F00007C0
F0000000
F0000000
F01FC000
F07FF800
F1FFFC00
F3FFFE00
F7E1FF00
FF003F80
FE001F80
FC000FC0
F80007C0
F80007C0
F80003E0
F00003E0
F00003E0
F00003E0
F00003E0
F00003E0
F80003E0
F80007C0
F80007C0
7C000FC0
7E001F80
3F003F00
1FE0FF00
0FFFFE00
07FFF800
01FFF000
007F8000
ENDCHAR
STARTCHAR 0037
ENCODING 55
SWIDTH 612 0
DWIDTH 34 0
BBX 26 40 4 0
BITMAP
FFFFFFC0
FFFFFFC0
FFFFFFC0
FFFFFFC0
000003C0
000003C0
000007C0
000007C0
00000F80
00001F80
00001F00
00003E00
00007E00
00007C00
0000F800
0001F800
0001F000
0003F000
0003E000
0007C000
000FC000
000F8000
001F0000
003F0000
003E0000
007C0000
00FC0000
00F80000
01F00000
03F00000
03E00000
07C00000
0FC00000
0F800000
1F800000
1F000000
1F000000
1E000000
1E000000
1E000000
ENDCHAR
STARTCHAR 0038
ENCODING 56
SWIDTH 612 0
DWIDTH 34 0
BBX 27 42 4 -1
BITMAP
007F8000
03FFF000
07FFFC00
1FFFFE00
1FE0FF00
3F003F00
7E001F80
7C000F80
7C000780
780007C0
780007C0
780007C0
780007C0
780007C0
7C000F80
7C000F80
3E001F00
3F003F00
1FE1FE00
07FFFC00
03FFF000
03FFF000
0FFFFC00
1F807F00
3E001F80
7C000F80
F80007C0
F80003C0
F00003E0
F00003E0
F00003E0
F00003E0
F00003E0
F80007E0
F80007C0
FC000FC0
7F001F80
3FC0FF80
1FFFFF00
0FFFFC00
07FFF800
00FFC000
ENDCHAR
STARTCHAR 0039
ENCODING 57
SWIDTH 612 0
DWIDTH 34 0
BBX 27 42 4 -1
BITMAP
007F8000
01FFF000
07FFF800
0FFFFE00
1FE1FF00
3F003F00
7E001F80
7C000F80
FC0007C0
F80007C0
F80003C0
F00003E0
F00003E0
F00003E0
F00003E0
F00003E0
F00003E0
F80003E0
F80007E0
F80007E0
7C000FE0
7E001FE0
3F003FE0
3FE1FBE0
1FFFF3E0
0FFFE3E0
03FFC3E0
00FE03E0
000003E0
000003E0
F80003E0
F80003C0
F80007C0
7C0007C0
7C000F80
7E001F80
3F003F00
1FE0FF00
0FFFFE00
07FFF800
03FFF000
007F8000
ENDCHAR
STARTCHAR 003A
ENCODING 58
SWIDTH 612 0
DWIDTH 34 0
BBX 8 30 13 -1
BITMAP
3C
7E
FF
FF
FF
FF
7E
3C
00
00
00
00
00
00
00
00
00
00
00
00
00
00
3C
7E
FF
FF
FF
FF
7E
3C
ENDCHAR
STARTCHAR 003B
ENCODING 59
SWIDTH 612 0
DWIDTH 34 0
BBX 8 36 13 -7
BITMAP
3C
7E
FF
FF
FF
FF
7E
3C
00
00
00
00
00
00
00
00
00
00
00
00
00
00
3C
7E
FF
FF
FF
FF
7F
3F
07
07
07
7F
7E
7C
ENDCHAR
STARTCHAR 003C
ENCODING 60
SWIDTH 612 0
DWIDTH 34 0
BBX 24 25 5 7
BITMAP
000001
00000F
00007F
0003FF
001FFF
00FFFC
07FFE0
3FFF00
FFF800
FFC000
FE0000
F00000
C00000
F00000
FE0000
FFC000
FFF800
1FFF00
03FFE0
007FFC
000FFF
0003FF
00007F
00000F
000001
ENDCHAR
STARTCHAR 003D
ENCODING 61
SWIDTH 612 0
DWIDTH 34 0
BBX 24 12 5 14
BITMAP
FFFFFF
FFFFFF
FFFFFF
FFFFFF
000000
000000
000000
000000
FFFFFF
FFFFFF
FFFFFF
FFFFFF
ENDCHAR
STARTCHAR 003E
ENCODING 62
SWIDTH 612 0
DWIDTH 34 0
BBX 24 25 5 7
BITMAP
C00000
F80000
FF0000
FFC000
FFF800
1FFF00
03FFE0
00FFFC
001FFF
0003FF
00003F
00000F
000003
00000F
00007F
0003FF
001FFF
00FFF8
07FFE0
3FFF00
FFF800
FFC000
FE0000
F00000
800000
ENDCHAR
STARTCHAR 003F
ENCODING 63
SWIDTH 612 0
DWIDTH 34 0
BBX 26 42 4 -1
BITMAP
003F8000
01FFF000
07FFF800
0FFFFC00
1FE1FE00
3F803F00
3E001F80
7E000F80
7C000FC0
780007C0
F80007C0
F80007C0
F80003C0
F80003C0
F80007C0
F80007C0
F80007C0
000007C0
00000F80
00001F80
00007F00
000FFF00
003FFE00
003FF800
003FE000
007C0000
007C0000
007C0000
007C0000
007C0000
007C0000
00000000
00000000
00000000
003C0000
007E0000
00FE0000
00FF0000
00FF0000
00FE0000
007E0000
003C0000
ENDCHAR
STARTCHAR 0040
ENCODING 64
SWIDTH 612 0
DWIDTH 34 0
BBX 30 34 2 -1
BITMAP
3FFFFE00
3FFFFF80
3FFFFFC0
3FFFFFE0
00000FF0
000001F8
000000F8
000000F8
01F80078
07FCF87C
0FFEF87C
1FFFF87C
3F8FF87C
3E03F87C
7C01F87C
7C00F87C
7800F87C
F800F87C
F800F87C
F800F87C
F800F87C
F800F87C
F800F87C
F800F87C
F800F87C
7800F87C
7C00F87C
7C01F87C
3E03FCFC
3F8F7FFC
1FFF7FF8
0FFE3FF8
07FC1FE0
01F00000
ENDCHAR
STARTCHAR 0041
ENCODING 65
SWIDTH 612 0
DWIDTH 34 0
BBX 32 40 1 0
BITMAP
000FF800
001FF800
001F7800
001E7C00
003E7C00
003E7C00
003E3E00
007C3E00
007C3E00
007C1E00
00781F00
00F81F00
00F81F00
00F80F80
01F00F80
01F00F80
01F00780
01E007C0
03E007C0
03E007C0
03E003E0
07C003E0
07C003E0
07C001F0
0F8001F0
0F8001F0
0FFFFFF0
0FFFFFF8
1FFFFFF8
1FFFFFF8
1F00007C
3E00007C
3E00007C
3E00003E
7C00003E
7C00003E
7C00003E
7C00001F
F800001F
F800001F
ENDCHAR
STARTCHAR 0042
ENCODING 66
SWIDTH 612 0
DWIDTH 34 0
BBX 28 40 3 0
BITMAP
FFFFF000
FFFFFE00
FFFFFF00
FFFFFF80
0F003FC0
0F000FE0
0F0003E0
0F0003E0
0F0001E0
0F0001F0
0F0001F0
0F0001F0
0F0001F0
0F0001E0
0F0003E0
0F0003E0
0F0007C0
0F001F80
0FFFFF00
0FFFFC00
0FFFF800
0FFFFE00
0F003F80
0F000FC0
0F0003C0
0F0003E0
0F0001E0
0F0001F0
0F0001F0
0F0001F0
0F0001F0
0F0001E0
0F0003E0
0F0003E0
0F0007E0
0F003FC0
FFFFFF80
FFFFFF00
FFFFFE00
FFFFF000
ENDCHAR
STARTCHAR 0043
ENCODING 67
SWIDTH 612 0
DWIDTH 34 0
BBX 27 42 4 -1
BITMAP
007F8000
01FFF000
07FFFC00
0FFFFE00
1FE0FF00
3F803F80
3F001F80
7E000FC0
7C0007C0
FC0007C0
F80003E0
F80003E0
F80003E0
F00003E0
F00003E0
F0000000
F0000000
F0000000
F0000000
F0000000
F0000000
F0000000
F0000000
F0000000
F0000000
F0000000
F0000000
F00003E0
F00003E0
F80003E0
F80003E0
F80003E0
F80007C0
7C0007C0
7E000FC0
3E000F80
3F803F80
1FE0FF00
0FFFFE00
07FFFC00
01FFF000
007F8000
ENDCHAR
STARTCHAR 0044
ENCODING 68
SWIDTH 612 0
DWIDTH 34 0
BBX 27 40 4 0
BITMAP
FFFFC000
FFFFF800
FFFFFC00
FFFFFF00
1F00FF00
1F001F80
1F000FC0
1F0007C0
1F0007C0
1F0003C0
1F0003E0
1F0003E0
1F0003E0
1F0003E0
1F0003E0
1F0003E0
1F0003E0
1F0003E0
1F0003E0
1F0003E0
1F0003E0
1F0003E0
1F0003E0
1F0003E0
1F0003E0
1F0003E0
1F0003E0
1F0003E0
1F0003E0
1F0003E0
1F0003C0
1F0007C0
1F0007C0
1F000FC0
1F001F80
1F00FF00
FFFFFF00
FFFFFC00
FFFFF800
FFFFC000
ENDCHAR
STARTCHAR 0045
ENCODING 69
SWIDTH 612 0
DWIDTH 34 0
BBX 24 40 5 0
BITMAP
FFFFFF
FFFFFF
FFFFFF
FFFFFF
F80000
F80000
F80000
F80000
F80000
F80000
F80000
F80000
F80000
F80000
F80000
F80000
F80000
F80000
FFFFFF
FFFFFF
FFFFFF
FFFFFF
F80000
F80000
F80000
F80000
F80000
F80000
F80000
F80000
F80000
F80000
F80000
F80000
F80000
F80000
FFFFFF
FFFFFF
FFFFFF
FFFFFF
ENDCHAR
STARTCHAR 0046
ENCODING 70
SWIDTH 612 0
DWIDTH 34 0
BBX 24 40 5 0
BITMAP
FFFFFF
FFFFFF
FFFFFF
FFFFFF
F80000
F80000
F80000
F80000
F80000
F80000
F80000
F80000
F80000
F80000
F80000
F80000
F80000
F80000
FFFFFF
FFFFFF
FFFFFF
FFFFFF
F80000
F80000
F80000
F80000
F80000
F80000
F80000
F80000
F80000
F80000
F80000
F80000
F80000
F80000
F80000
F80000
F80000
F80000
ENDCHAR
STARTCHAR 0047
ENCODING 71
SWIDTH 612 0
DWIDTH 34 0
BBX 28 42 3 -1
BITMAP
003FC000
01FFF800
03FFFC00
07FFFF00
0FF07F80
1F801F80
3F000FC0
3E0007C0
3E0003E0
7C0003E0
7C0001E0
7C0001F0
780001F0
F80001F0
F80001F0
F8000000
F8000000
F8000000
F8000000
F8000000
F8000000
F8000000
F83FFFF0
F83FFFF0
F83FFFF0
F83FFFF0
F80001F0
F80001F0
F80001F0
780001F0
7C0001F0
7C0001F0
7C0003F0
7E0003F0
3E0007F0
3F000FF0
1F801FF0
0FF07DF0
07FFFDF0
03FFF9F0
01FFE1F0
003F8000
ENDCHAR
STARTCHAR 0048
ENCODING 72
SWIDTH 612 0
DWIDTH 34 0
BBX 26 40 4 0
BITMAP
F80007C0
F80007C0
F80007C0
F80007C0
F80007C0
F80007C0
F80007C0
F80007C0
F80007C0
F80007C0
F80007C0
F80007C0
F80007C0
F80007C0
F80007C0
F80007C0
F80007C0
F80007C0
FFFFFFC0
FFFFFFC0
FFFFFFC0
FFFFFFC0
F80007C0
F80007C0
F80007C0
F80007C0
F80007C0
F80007C0
F80007C0
F80007C0
F80007C0
F80007C0
F80007C0
F80007C0
F80007C0
F80007C0
F80007C0
F80007C0
F80007C0
F80007C0
ENDCHAR
STARTCHAR 0049
ENCODING 73
SWIDTH 612 0
DWIDTH 34 0
BBX 25 40 5 0
BITMAP
FFFFFF80
FFFFFF80
FFFFFF80
FFFFFF80
003C0000
003C0000
003C0000
003C0000
003C0000
003C0000
003C0000
003C0000
003C0000
003C0000
003C0000
003C0000
003C0000
003C0000
003C0000
003C0000
003C0000
003C0000
003C0000
003C0000
003C0000
003C0000
003C0000
003C0000
003C0000
003C0000
003C0000
003C0000
003C0000
003C0000
003C0000
003C0000
FFFFFF80
FFFFFF80
FFFFFF80
FFFFFF80
ENDCHAR
STARTCHAR 004A
ENCODING 74
SWIDTH 612 0
DWIDTH 34 0
BBX 28 41 4 -1
BITMAP
0000FFF0
0000FFF0
0000FFF0
0000FFF0
00000F00
00000F00
00000F00
00000F00
00000F00
00000F00
00000F00
00000F00
00000F00
00000F00
00000F00
00000F00
00000F00
00000F00
00000F00
00000F00
00000F00
00000F00
00000F00
00000F00
00000F00
F8000F00
F8000F00
F8000F00
F8000F00
F8000F00
F8001F00
F8001F00
7C001F00
7C001F00
7E003E00
3F007E00
3FC1FC00
1FFFF800
0FFFF000
03FFE000
00FF8000
ENDCHAR
STARTCHAR 004B
ENCODING 75
SWIDTH 612 0
DWIDTH 34 0
BBX 28 40 5 0
BITMAP
F80007E0
F8000FC0
F8001F80
F8003F00
F8007E00
F800FE00
F800FC00
F801F800
F803F000
F807E000
F80FC000
F81FC000
F81F8000
F83F0000
F87E0000
F8FC0000
F9F80000
FBF80000
FFF00000
FFE00000
FFE00000
FFE00000
FBF00000
F9F80000
F8FC0000
F87E0000
F83F0000
F81F8000
F81FC000
F80FC000
F807E000
F803F000
F801F800
F800FC00
F8007E00
F8003F00
F8001F80
F8001F80
F8000FC0
F80007F0
ENDCHAR
STARTCHAR 004C
ENCODING 76
SWIDTH 612 0
DWIDTH 34 0
BBX 25 40 5 0
BITMAP
F8000000
F8000000
F8000000
F8000000
F8000000
F8000000
F8000000
F8000000
F8000000
F8000000
F8000000
F8000000
F8000000
F8000000
F8000000
F8000000
F8000000
F8000000
F8000000
F8000000
F8000000
F8000000
F8000000
F8000000
F8000000
F8000000
F8000000
F8000000
F8000000
F8000000
F8000000
F8000000
F8000000
F8000000
F8000000
F8000000
FFFFFF80
FFFFFF80
FFFFFF80
FFFFFF80
ENDCHAR
STARTCHAR 004D
ENCODING 77
SWIDTH 612 0
DWIDTH 34 0
BBX 29 40 3 0
BITMAP
FF800FF8
FF800FF8
F7801FF8
F7801EF8
F7801EF8
F7801EF8
F7801EF8
F7C01EF8
F3C01EF8
F3C03EF8
F3C03CF8
F3C03CF8
F3C03CF8
F3C03CF8
F3E03CF8
F3E03CF8
F1E07CF8
F1E07CF8
F1E078F8
F1E078F8
F1E078F8
F1F078F8
F1F078F8
F0F0F8F8
F0F0F8F8
F0F0F0F8
F0F0F0F8
F0F0F0F8
F0F0F0F8
F0F8F0F8
F079F0F8
F079F0F8
F079E0F8
F079E0F8
F079E0F8
F079E0F8
F07DE0F8
F03DE0F8
F03FE0F8
F03FC0F8
ENDCHAR
STARTCHAR 004E
ENCODING 78
SWIDTH 612 0
DWIDTH 34 0
BBX 26 40 4 0
BITMAP
FFC007C0
FFC007C0
FBC007C0
FBE007C0
FBE007C0
FBE007C0
F9E007C0
F9F007C0
F9F007C0
F8F007C0
F8F807C0
F8F807C0
F87807C0
F87C07C0
F87C07C0
F87C07C0
F83C07C0
F83E07C0
F83E07C0
F81E07C0
F81F07C0
F81F07C0
F80F07C0
F80F87C0
F80F87C0
F80F87C0
F80787C0
F807C7C0
F807C7C0
F803C7C0
F803E7C0
F803E7C0
F801E7C0
F801E7C0
F801F7C0
F801F7C0
F800F7C0
F800FFC0
F800FFC0
F8007FC0
ENDCHAR
STARTCHAR 004F
ENCODING 79
SWIDTH 612 0
DWIDTH 34 0
BBX 28 42 3 -1
BITMAP
003FC000
01FFF800
03FFFC00
07FFFF00
0FF07F00
1F801F80
3F000FC0
3E0007C0
3E0007E0
7C0003E0
7C0003E0
7C0001E0
780001F0
F80001F0
F80001F0
F80001F0
F80001F0
F80001F0
F80001F0
F80001F0
F80001F0
F80001F0
F80001F0
F80001F0
F80001F0
F80001F0
F80001F0
F80001F0
F80001F0
780001F0
7C0001E0
7C0003E0
7C0003E0
3E0003E0
3E0007C0
3F000FC0
1F801F80
0FF07F80
07FFFF00
03FFFC00
01FFF800
003FC000
ENDCHAR
STARTCHAR 0050
ENCODING 80
SWIDTH 612 0
DWIDTH 34 0
BBX 26 40 5 0
BITMAP
FFFFC000
FFFFF000
FFFFFC00
FFFFFE00
F001FF00
F0003F00
F0001F80
F0000F80
F00007C0
F00007C0
F00007C0
F00007C0
F00007C0
F00007C0
F00007C0
F0000F80
F0000F80
F0001F80
F0007F00
FFFFFE00
FFFFFC00
FFFFF800
FFFFE000
F0000000
F0000000
F0000000
F0000000
F0000000
F0000000
F0000000
F0000000
F0000000
F0000000
F0000000
F0000000
F0000000
F0000000
F0000000
F0000000
F0000000
ENDCHAR
STARTCHAR 0051
ENCODING 81
SWIDTH 612 0
DWIDTH 34 0
BBX 28 49 3 -8
BITMAP
003FC000
01FFF800
03FFFC00
07FFFF00
0FF07F00
1F801F80
3F000FC0
3E0007C0
3E0007E0
7C0003E0
7C0003E0
7C0001E0
780001F0
F80001F0
F80001F0
F80001F0
F80001F0
F80001F0
F80001F0
F80001F0
F80001F0
F80001F0
F80001F0
F80001F0
F80001F0
F80001F0
F80001F0
F80001F0
780001F0
7C0001F0
7C0003E0
7C0003E0
7E0003E0
3E0007C0
3F000FC0
1FC01F80
0FF8FF80
0FFFFF00
03FFFE00
01FFF800
007FE000
000F0000
000F0000
000F0000
000F8000
000FFE00
000FFE00
0007FE00
0003FE00
ENDCHAR
STARTCHAR 0052
ENCODING 82
SWIDTH 612 0
DWIDTH 34 0
BBX 26 40 5 0
BITMAP
FFFFC000
FFFFF000
FFFFFC00
FFFFFE00
F001FF00
F0003F00
F0001F80
F0000F80
F00007C0
F00007C0
F00007C0
F00007C0
F00007C0
F00007C0
F0000780
F0000F80
F0000F80
F0001F00
F0007E00
FFFFFC00
FFFFF800
FFFFFC00
FFFFFF00
F0003F00
F0001F00
F0000F00
F0000F00
F0000F00
F0000F00
F0000F00
F0000F00
F0000F00
F0000F00
F0000F00
F0000F00
F0000F00
F0000F00
F0000F00
F0000F00
F0000F00
ENDCHAR
STARTCHAR 0053
ENCODING 83
SWIDTH 612 0
DWIDTH 34 0
BBX 28 42 3 -1
BITMAP
003FC000
01FFF800
07FFFE00
0FFFFF00
1FF07F80
1F801FC0
3F0007E0
3E0003E0
7C0003F0
7C0001F0
7C0001F0
7C0001F0
7C0001F0
7C0001F0
3E000000
3F000000
3FC00000
1FF80000
0FFFC000
07FFF800
03FFFE00
007FFF80
000FFFC0
00007FE0
00000FE0
000003F0
F00001F0
F00001F0
F00000F0
F00000F0
F80000F0
F80000F0
F80001F0
7C0001F0
7C0001F0
3F0003E0
3F8007E0
1FF03FC0
0FFFFF80
03FFFF00
01FFFC00
003FF000
ENDCHAR
STARTCHAR 0054
ENCODING 84
SWIDTH 612 0
DWIDTH 34 0
BBX 28 40 3 0
BITMAP
FFFFFFF0
FFFFFFF0
FFFFFFF0
FFFFFFF0
000F0000
000F0000
000F0000
000F0000
000F0000
000F0000
000F0000
000F0000
000F0000
000F0000
000F0000
000F0000
000F0000
000F0000
000F0000
000F0000
000F0000
000F0000
000F0000
000F0000
000F0000
000F0000
000F0000
000F0000
000F0000
000F0000
000F0000
000F0000
000F0000
000F0000
000F0000
000F0000
000F0000
000F0000
000F0000
000F0000
ENDCHAR
STARTCHAR 0055
ENCODING 85
SWIDTH 612 0
DWIDTH 34 0
BBX 27 41 4 -1
BITMAP
F00003E0
F00003E0
F00003E0
F00003E0
F00003E0
F00003E0
F00003E0
F00003E0
F00003E0
F00003E0
F00003E0
F00003E0
F00003E0
F00003E0
F00003E0
F00003E0
F00003E0
F00003E0
F00003E0
F00003E0
F00003E0
F00003E0
F00003E0
F00003E0
F00003E0
F00003E0
F00003E0
F00003E0
F00003E0
F80003C0
F80007C0
F80007C0
F80007C0
7C000F80
7E001F80
3F003F00
1FE0FF00
1FFFFE00
07FFFC00
03FFF000
007F8000
ENDCHAR
STARTCHAR 0056
ENCODING 86
SWIDTH 612 0
DWIDTH 34 0
BBX 31 40 2 0
BITMAP
F800003E
F800007C
F800007C
F800007C
7C0000FC
7C0000F8
7C0000F8
3E0000F8
3E0001F0
3E0001F0
3E0001F0
1F0001F0
1F0003E0
1F0003E0
0F0003E0
0F8003C0
0F8007C0
0F8007C0
07C007C0
07C00F80
07C00F80
07C00F80
03E00F80
03E01F00
03E01F00
01E01F00
01F01E00
01F03E00
01F03E00
00F83E00
00F87C00
00F87C00
00787C00
007C7800
007CF800
007CF800
003CF800
003EF000
003FF000
003FF000
ENDCHAR
STARTCHAR 0057
ENCODING 87
SWIDTH 612 0
DWIDTH 34 0
BBX 33 40 1 0
BITMAP
F00FF80F80
F00FF80F80
F00F780F00
F01F780F00
F01F780F00
F01E780F00
F81E780F00
F81E780F00
F81E780F00
781E781F00
781E781F00
781E7C1F00
781E7C1E00
781E3C1E00
783E3C1E00
783E3C1E00
7C3C3C1E00
7C3C3C1E00
7C3C3C1E00
3C3C3C3E00
3C3C3C3E00
3C3C3C3E00
3C3C3E3C00
3C3C1E3C00
3C3C1E3C00
3C7C1E3C00
3C781E3C00
3E781E3C00
3E781E3C00
1E781E7C00
1E781E7C00
1E781E7C00
1E781E7800
1E781F7800
1E780F7800
1E780F7800
1EF80F7800
1FF00F7800
1FF00FF800
0FF00FF800
ENDCHAR
STARTCHAR 0058
ENCODING 88
SWIDTH 612 0
DWIDTH 34 0
BBX 29 40 3 0
BITMAP
F80001F8
FC0001F0
7C0003E0
7E0003E0
3E0007C0
3F0007C0
1F000F80
1F800F80
0F801F00
0F801F00
07C03E00
07C03E00
03E07C00
03E07C00
01F0F800
01F0F800
00F9F000
00F9F000
007FE000
007FE000
007FE000
007FE000
00F9F000
00F9F000
01F8F800
01F0F800
03F07C00
03E07C00
07E03E00
07C03E00
0FC01F00
0F801F00
1F800F80
1F000F80
3F0007C0
3E0007C0
7E0003E0
7C0003E0
FC0001F0
F80001F8
ENDCHAR
STARTCHAR 0059
ENCODING 89
SWIDTH 612 0
DWIDTH 34 0
BBX 31 40 2 0
BITMAP
F800007E
F800007C
7C0000FC
7C0000F8
3E0001F8
3E0001F0
1F0001F0
1F0003E0
0F8003E0
0F8007C0
0FC007C0
07C00F80
07C00F80
03E01F00
03E01F00
01F03E00
01F03E00
00F83E00
00F87C00
007C7C00
007CF800
003EF800
003FF000
001FF000
001FE000
000FE000
00078000
00078000
00078000
00078000
00078000
00078000
00078000
00078000
00078000
00078000
00078000
00078000
00078000
00078000
ENDCHAR
STARTCHAR 005A
ENCODING 90
SWIDTH 612 0
DWIDTH 34 0
BBX 28 40 3 0
BITMAP
7FFFFFF0
7FFFFFF0
7FFFFFF0
7FFFFFF0
000001F0
000001F0
000003F0
000007E0
000007C0
00000FC0
00001F80
00003F00
00007E00
0000FC00
0000F800
0001F800
0003F000
0007E000
000FC000
001F8000
001F0000
003E0000
007E0000
00FC0000
01F80000
03F00000
07E00000
07C00000
0FC00000
1F800000
3F000000
7E000000
FC000000
F8000000
F8000000
F0000000
FFFFFFF0
FFFFFFF0
FFFFFFF0
FFFFFFF0
ENDCHAR
STARTCHAR 005B
ENCODING 91
SWIDTH 612 0
DWIDTH 34 0
BBX 10 57 15 -9
BITMAP
3FC0
7FC0
FFC0
FFC0
F000
F000
F000
F000
F000
F000
F000
F000
F000
F000
F000
F000
F000
F000
F000
F000
F000
F000
F000
F000
F000
F000
F000
F000
F000
F000
F000
F000
F000
F000
F000
F000
F000
F000
F000
F000
F000
F000
F000
F000
F000
F000
F000
F000
F000
F000
F000
F000
F800
FFC0
FFC0
7FC0
3FC0
ENDCHAR
STARTCHAR 005C
ENCODING 92
SWIDTH 612 0
DWIDTH 34 0
BBX 20 51 7 -6
BITMAP
300000
F00000
F80000
780000
780000
7C0000
3C0000
3C0000
3E0000
1E0000
1E0000
1F0000
0F0000
0F0000
0F8000
078000
078000
07C000
03C000
03C000
03E000
01E000
01E000
01F000
00F000
00F000
00F800
007800
007800
007C00
003C00
003C00
003E00
001E00
001E00
001F00
000F00
000F00
000F80
000780
000780
0007C0
0003C0
0003C0
0003E0
0001E0
0001E0
0001F0
0001F0
0000F0
0000C0
ENDCHAR
STARTCHAR 005D
ENCODING 93
SWIDTH 612 0
DWIDTH 34 0
BBX 9 57 10 -9
BITMAP
FF00
FF80
FF80
FF80
0780
0780
0780
0780
0780
0780
0780
0780
0780
0780
0780
0780
0780
0780
0780
0780
0780
0780
0780
0780
0780
0780
0780
0780
0780
0780
0780
0780
0780
0780
0780
0780
0780
0780
0780
0780
0780
0780
0780
0780
0780
0780
0780
0780
0780
0780
0780
0780
0F80
FF80
FF80
FF80
FE00
ENDCHAR
STARTCHAR 005E
ENCODING 94
SWIDTH 612 0
DWIDTH 34 0
BBX 26 16 4 24
BITMAP
007FC000
00FFC000
00FBE000
01F3E000
03E1F000
03E1F000
07C0F800
07C0F800
0F807C00
0F803E00
1F003E00
1F001F00
3E001F00
7E000F80
7C000F80
F80007C0
ENDCHAR
STARTCHAR 005F
ENCODING 95
SWIDTH 612 0
DWIDTH 34 0
BBX 26 4 4 -7
BITMAP
FFFFFFC0
FFFFFFC0
FFFFFFC0
FFFFFFC0
ENDCHAR
STARTCHAR 0060
ENCODING 96
SWIDTH 612 0
DWIDTH 34 0
BBX 8 7 13 32
BITMAP
F8
78
7C
3E
1E
1F
0F
ENDCHAR
STARTCHAR 0061
ENCODING 97
SWIDTH 612 0
DWIDTH 34 0
BBX 29 30 3 -1
BITMAP
007F0000
03FFC3C0
07FFE3C0
0FFFF3C0
1FE1FBC0
3F803FC0
7E001FC0
7C000FC0
7C000FC0
F80007C0
F80007C0
F00003C0
F00003C0
F00003C0
F00003C0
F00003C0
F00003C0
F00003C0
F00003C0
F80007C0
F80007C0
78000FC0
7C000FC0
7E001FC0
3F003BE0
1FE1FBF8
0FFFF3F8
07FFE1F8
03FFC0F8
007F0000
ENDCHAR
STARTCHAR 0062
ENCODING 98
SWIDTH 612 0
DWIDTH 34 0
BBX 27 41 4 -1
BITMAP
F0000000
F0000000
F0000000
F0000000
F0000000
F0000000
F0000000
F0000000
F0000000
F0000000
F0000000
F01FC000
F07FF000
F0FFFC00
F1FFFE00
F3E0FF00
F7803F80
FF000F80
FE0007C0
FC0007C0
F80003E0
F80003E0
F80003E0
F00001E0
F00001E0
F00001E0
F00001E0
F00001E0
F00001E0
F80003E0
F80003E0
F80003E0
FC0007C0
FE0007C0
FF000F80
FF803F80
F7E0FF00
F3FFFE00
F1FFFC00
F07FF800
001FC000
ENDCHAR
STARTCHAR 0063
ENCODING 99
SWIDTH 612 0
DWIDTH 34 0
BBX 28 30 3 -1
BITMAP
001FE000
00FFF800
03FFFE00
07FFFF00
0FF07F80
1FC01FC0
3F0007C0
3E0003E0
7E0003E0
7C0001E0
7C0001F0
780001C0
F8000000
F8000000
F8000000
F8000000
F8000000
F8000000
78000180
780001F0
7C0001F0
7C0003E0
3E0003E0
3F0007C0
1FC01FC0
0FF07F80
07FFFF00
03FFFE00
00FFF800
001FE000
ENDCHAR
STARTCHAR 0064
ENCODING 100
SWIDTH 612 0
DWIDTH 34 0
BBX 28 41 3 -1
BITMAP
000001F0
000001F0
000001F0
000001F0
000001F0
000001F0
000001F0
000001F0
000001F0
000001F0
000001F0
003F81F0
01FFE1F0
03FFF1F0
07FFF9F0
0FF0FDF0
1F801DF0
3F000FF0
3E0007F0
7C0003F0
7C0003F0
780001F0
780001F0
F80001F0
F80001F0
F80001F0
F80001F0
F80001F0
F80001F0
780001F0
780001F0
7C0003F0
7C0003F0
3E0007F0
3F000FF0
1F801FF0
0FF0FDF0
0FFFFDF0
03FFF9F0
01FFE1F0
003F8000
ENDCHAR
STARTCHAR 0065
ENCODING 101
SWIDTH 612 0
DWIDTH 34 0
BBX 26 30 4 -1
BITMAP
003F8000
01FFF000
07FFF800
0FFFFC00
1FE0FE00
3F003F00
3E001F80
7C000F80
780007C0
F80003C0
F80003C0
F00003C0
FFFFFFC0
FFFFFFC0
FFFFFFC0
FFFFFFC0
F0000000
F0000000
F0000000
F8000000
F8000300
780007C0
7C0007C0
3E000F80
3F001F80
1FE0FF00
0FFFFE00
07FFFC00
01FFF000
007F8000
ENDCHAR
STARTCHAR 0066
ENCODING 102
SWIDTH 612 0
DWIDTH 34 0
BBX 24 40 5 0
BITMAP
003FFE
007FFE
007FFE
00FFFE
00F800
00F800
00F800
00F800
00F800
00F800
00F800
00F800
FFFFFF
FFFFFF
FFFFFF
FFFFFF
00F800
00F800
00F800
00F800
00F800
00F800
00F800
00F800
00F800
00F800
00F800
00F800
00F800
00F800
00F800
00F800
00F800
00F800
00F800
00F800
00F800
00F800
00F800
00F800
ENDCHAR
STARTCHAR 0067
ENCODING 103
SWIDTH 612 0
DWIDTH 34 0
BBX 27 40 3 -11
BITMAP
003F8000
01FFE1E0
03FFF1E0
0FFFF9E0
1FE0FDE0
1F803FE0
3F000FE0
7E0007E0
7C0007E0
780003E0
F80003E0
F80001E0
F80001E0
F00001E0
F00001E0
F00001E0
F00001E0
F80001E0
F80001E0
F80003E0
780003E0
7C0007E0
7E0007E0
3F000FE0
3F803DE0
1FE0FDE0
0FFFF9E0
07FFF1E0
01FFE1E0
003F81E0
000001E0
000001E0
000001E0
000001E0
000001E0
000003E0
07FFFFE0
07FFFFE0
07FFFFC0
07FFFF80
ENDCHAR
STARTCHAR 0068
ENCODING 104
SWIDTH 612 0
DWIDTH 34 0
BBX 24 40 5 0
BITMAP
F00000
F00000
F00000
F00000
F00000
F00000
F00000
F00000
F00000
F00000
F00000
F01FC0
F07FF0
F1FFF8
F3FFFC
F3C1FE
F7007E
FE003F
FC001F
FC001F
F8000F
F8000F
F0000F
F0000F
F0000F
F0000F
F0000F
F0000F
F0000F
F0000F
F0000F
F0000F
F0000F
F0000F
F0000F
F0000F
F0000F
F0000F
F0000F
F0000F
ENDCHAR
STARTCHAR 0069
ENCODING 105
SWIDTH 612 0
DWIDTH 34 0
BBX 23 41 6 0
BITMAP
003800
00FC00
00FE00
00FE00
01FE00
00FE00
00FE00
007800
000000
000000
000000
000000
000000
7FFC00
7FFC00
7FFC00
7FFC00
007C00
007C00
007C00
007C00
007C00
007C00
007C00
007C00
007C00
007C00
007C00
007C00
007C00
007C00
007C00
007C00
007C00
007C00
007C00
007C00
FFFFFE
FFFFFE
FFFFFE
FFFFFE
ENDCHAR
STARTCHAR 006A
ENCODING 106
SWIDTH 612 0
DWIDTH 34 0
BBX 18 52 7 -11
BITMAP
000F00
001F80
003FC0
003FC0
003FC0
003FC0
001F80
000F00
000000
000000
000000
000000
000000
7FFF00
7FFF00
7FFF00
7FFF00
000F00
000F00
000F00
000F00
000F00
000F00
000F00
000F00
000F00
000F00
000F00
000F00
000F00
000F00
000F00
000F00
000F00
000F00
000F00
000F00
000F00
000F00
000F00
000F00
000F00
000F00
000F00
000F00
000F00
000F00
001F00
FFFF00
FFFF00
FFFE00
FFFC00
ENDCHAR
STARTCHAR 006B
ENCODING 107
SWIDTH 612 0
DWIDTH 34 0
BBX 22 40 8 0
BITMAP
F00000
F00000
F00000
F00000
F00000
F00000
F00000
F00000
F00000
F00000
F00000
F00000
F001F8
F003F0
F007E0
F00FC0
F00F80
F01F00
F03F00
F07E00
F0FC00
F1F800
F3F000
F7E000
FFC000
FF8000
FFC000
FFC000
F3E000
F1F000
F0F800
F07C00
F03E00
F01F00
F01F80
F00FC0
F007E0
F003F0
F001F8
F000FC
ENDCHAR
STARTCHAR 006C
ENCODING 108
SWIDTH 612 0
DWIDTH 34 0
BBX 24 40 5 0
BITMAP
FFFC00
FFFC00
FFFC00
FFFC00
003C00
003C00
003C00
003C00
003C00
003C00
003C00
003C00
003C00
003C00
003C00
003C00
003C00
003C00
003C00
003C00
003C00
003C00
003C00
003C00
003C00
003C00
003C00
003C00
003C00
003C00
003C00
003C00
003C00
003C00
003C00
003C00
FFFFFF
FFFFFF
FFFFFF
FFFFFF
ENDCHAR
STARTCHAR 006D
ENCODING 109
SWIDTH 612 0
DWIDTH 34 0
BBX 29 29 3 0
BITMAP
00F81F80
F3FC3FC0
F7FE7FE0
F7FEFFF0
FE3FE3F0
F81FC1F0
F80F80F8
F00F80F8
F00F00F8
F00F00F8
F00F00F8
F00F00F8
F00F00F8
F00F00F8
F00F00F8
F00F00F8
F00F00F8
F00F00F8
F00F00F8
F00F00F8
F00F00F8
F00F00F8
F00F00F8
F00F00F8
F00F00F8
F00F00F8
F00F00F8
F00F00F8
F00F00F8
ENDCHAR
STARTCHAR 006E
ENCODING 110
SWIDTH 612 0
DWIDTH 34 0
BBX 24 29 5 0
BITMAP
003F80
F0FFF0
F1FFF8
F3FFFC
F7C1FE
F7007E
FE003F
FC001F
FC001F
F8000F
F8000F
F0000F
F0000F
F0000F
F0000F
F0000F
F0000F
F0000F
F0000F
F0000F
F0000F
F0000F
F0000F
F0000F
F0000F
F0000F
F0000F
F0000F
F0000F
ENDCHAR
STARTCHAR 006F
ENCODING 111
SWIDTH 612 0
DWIDTH 34 0
BBX 28 30 3 -1
BITMAP
003FC000
00FFF800
03FFFC00
07FFFE00
0FF0FF00
1F801F80
3F000FC0
3E0007C0
7C0003E0
7C0003E0
780001F0
F80001F0
F80001F0
F80000F0
F80000F0
F80000F0
F80001F0
F80001F0
F80001F0
780001F0
7C0003E0
7C0003E0
3E0007E0
3F000FC0
1F801F80
0FF07F80
07FFFF00
03FFFC00
00FFF800
003FC000
ENDCHAR
STARTCHAR 0070
ENCODING 112
SWIDTH 612 0
DWIDTH 34 0
BBX 27 40 4 -11
BITMAP
001FC000
F07FF000
F1FFFC00
F3FFFE00
F7E0FF00
FF803F80
FF000F80
FE0007C0
FC0007C0
F80003E0
F80003E0
F80003E0
F00001E0
F00001E0
F00001E0
F00001E0
F00001E0
F00001E0
F80003E0
F80003E0
F80003E0
FC0007C0
FE0007C0
FF000F80
F7803F80
F3E0FF00
F1FFFE00
F0FFFC00
F07FF800
F01FC000
F0000000
F0000000
F0000000
F0000000
F0000000
F0000000
F0000000
F0000000
F0000000
F0000000
ENDCHAR
STARTCHAR 0071
ENCODING 113
SWIDTH 612 0
DWIDTH 34 0
BBX 28 40 3 -11
BITMAP
003F8000
01FFE1F0
07FFF1F0
0FFFF9F0
1FF0FDF0
1F803FF0
3F000FF0
7E0007F0
7C0007F0
7C0003F0
F80003F0
F80001F0
F80001F0
F80001F0
F80001F0
F80001F0
F80001F0
F80001F0
F80001F0
F80003F0
7C0003F0
7C0007F0
7E0007F0
3F000FF0
1F801DF0
1FE0FDF0
0FFFF9F0
07FFF1F0
01FFC1F0
007F01F0
000001F0
000001F0
000001F0
000001F0
000001F0
000001F0
000001F0
000001F0
000001F0
000001F0
ENDCHAR
STARTCHAR 0072
ENCODING 114
SWIDTH 612 0
DWIDTH 34 0
BBX 28 29 3 0
BITMAP
0000FC00
FFC3FF00
FFCFFF80
FFCFFFC0
FFDE1FC0
03F807E0
03F003E0
03F001F0
03E001F0
03E001F0
03E001F0
03C001C0
03C00000
03C00000
03C00000
03C00000
03C00000
03C00000
03C00000
03C00000
03C00000
03C00000
03C00000
03C00000
03C00000
FFFF8000
FFFF8000
FFFF8000
FFFF8000
ENDCHAR
STARTCHAR 0073
ENCODING 115
SWIDTH 612 0
DWIDTH 34 0
BBX 24 30 5 -1
BITMAP
00FE00
07FFC0
0FFFE0
1FFFF0
3F83F8
3E00FC
3C007C
7C003E
7C003E
7C0018
3C0000
3F0000
3FE000
1FFF80
0FFFF0
03FFF8
000FFC
00007E
00003E
70001E
F0001F
F8001F
F8001E
7C003E
7E007E
3FC1FC
1FFFFC
0FFFF8
03FFE0
00FF80
ENDCHAR
STARTCHAR 0074
ENCODING 116
SWIDTH 612 0
DWIDTH 34 0
BBX 24 40 4 0
BITMAP
007800
007800
007800
007800
007800
007800
007800
007800
007800
007800
007800
007800
FFFFFF
FFFFFF
FFFFFF
FFFFFF
007800
007800
007800
007800
007800
007800
007800
007800
007800
007800
007800
007800
007800
007800
007800
007800
007800
007800
007800
007C00
007FFC
007FFC
003FFC
001FFC
ENDCHAR
STARTCHAR 0075
ENCODING 117
SWIDTH 612 0
DWIDTH 34 0
BBX 24 29 5 -1
BITMAP
F0000F
F0000F
F0000F
F0000F
F0000F
F0000F
F0000F
F0000F
F0000F
F0000F
F0000F
F0000F
F0000F
F0000F
F0000F
F0000F
F0000F
F0001F
F0001F
F0001F
F0003F
F8003F
FC007F
7E00EF
7F83CF
3FFFCF
1FFF8F
0FFE0F
03F800
ENDCHAR
STARTCHAR 0076
ENCODING 118
SWIDTH 612 0
DWIDTH 34 0
BBX 28 28 3 0
BITMAP
F80001F0
7C0003F0
7C0003E0
7C0003E0
3E0007E0
3E0007C0
3E0007C0
1F000F80
1F000F80
1F000F80
0F801F00
0F801F00
0F801F00
07C03E00
07C03E00
07C03E00
03E03C00
03E07C00
03E07C00
01F07800
01F0F800
00F0F800
00F8F000
00F9F000
0079F000
007DE000
007FE000
003FE000
ENDCHAR
STARTCHAR 0077
ENCODING 119
SWIDTH 612 0
DWIDTH 34 0
BBX 32 28 1 0
BITMAP
F80FF00F
F80FF00F
F80F701F
780F781F
780E781F
781E781E
781E781E
7C1E781E
7C1E781E
7C1E783E
3C1E383E
3C1E3C3C
3C1C3C3C
3C3C3C3C
3E3C3C3C
3E3C3C3C
1E3C3C7C
1E3C3C7C
1E3C1C78
1E3C1E78
1E381E78
1F781E78
0F781E78
0F781EF8
0F781EF0
0F780EF0
0FF80FF0
0FF80FF0
ENDCHAR
STARTCHAR 0078
ENCODING 120
SWIDTH 612 0
DWIDTH 34 0
BBX 26 28 4 0
BITMAP
7C000FC0
3E000F80
3E001F00
1F001F00
1F003E00
0F807C00
07807C00
07C0F800
03E0F800
03E1F000
01F3E000
00F3E000
00FFC000
007FC000
007FC000
00FFC000
01F3E000
01F1F000
03E1F000
07C0F800
07C0F800
0F807C00
0F803E00
1F003E00
3E001F00
3E000F80
7C000F80
F80007C0
ENDCHAR
STARTCHAR 0079
ENCODING 121
SWIDTH 612 0
DWIDTH 34 0
BBX 24 39 5 -11
BITMAP
F0000F
F0000F
F0000F
F0000F
F0000F
F0000F
F0000F
F0000F
F0000F
F0000F
F0000F
F0000F
F0000F
F0000F
F0000F
F0000F
F0000F
F0000F
F0000F
F8001F
F8001F
F8003F
7C007F
7E00EF
3F83EF
3FFFCF
1FFF8F
07FF0F
01FC0F
00000F
00000F
00000F
00000F
00000F
00001F
0FFFFF
0FFFFF
0FFFFE
0FFFFC
ENDCHAR
STARTCHAR 007A
ENCODING 122
SWIDTH 612 0
DWIDTH 34 0
BBX 24 28 5 0
BITMAP
FFFFFF
FFFFFF
FFFFFF
FFFFFF
00000F
00001F
00003F
00007E
0000FC
0003F8
0007E0
000FC0
001F80
007F00
00FC00
01F800
03F000
0FE000
1F8000
3F0000
7E0000
FC0000
F00000
F00000
FFFFFF
FFFFFF
FFFFFF
FFFFFF
ENDCHAR
STARTCHAR 007B
ENCODING 123
SWIDTH 612 0
DWIDTH 34 0
BBX 14 57 11 -9
BITMAP
03FC
07FC
07FC
07FC
0780
0780
0780
0780
0780
0780
0780
0780
0780
0780
0780
0780
0780
0780
0780
0780
0780
0780
0780
0780
0F80
FF00
FF00
F800
FC00
FF00
FF00
0F80
0780
0780
0780
0780
0780
0780
0780
0780
0780
0780
0780
0780
0780
0780
0780
0780
0780
0780
0780
0780
07C0
07FC
07FC
03FC
01FC
ENDCHAR
STARTCHAR 007C
ENCODING 124
SWIDTH 612 0
DWIDTH 34 0
BBX 4 58 15 -9
BITMAP
F0
F0
F0
F0
F0
F0
F0
F0
F0
F0
F0
F0
F0
F0
F0
F0
F0
F0
F0
F0
F0
F0
F0
F0
F0
F0
F0
F0
F0
F0
F0
F0
F0
F0
F0
F0
F0
F0
F0
F0
F0
F0
F0
F0
F0
F0
F0
F0
F0
F0
F0
F0
F0
F0
F0
F0
F0
F0
ENDCHAR
STARTCHAR 007D
ENCODING 125
SWIDTH 612 0
DWIDTH 34 0
BBX 14 57 9 -9
BITMAP
FF00
FF80
FF80
FFC0
07C0
07C0
07C0
07C0
07C0
07C0
07C0
07C0
07C0
07C0
07C0
07C0
07C0
07C0
07C0
07C0
07C0
07C0
07C0
07C0
07C0
03FC
01FC
007C
00FC
01FC
03FC
07C0
07C0
07C0
07C0
07C0
07C0
07C0
07C0
07C0
07C0
07C0
07C0
07C0
07C0
07C0
07C0
07C0
07C0
07C0
07C0
07C0
07C0
FFC0
FF80
FF80
FE00
ENDCHAR
STARTCHAR 007E
ENCODING 126
SWIDTH 612 0
DWIDTH 34 0
BBX 27 10 4 13
BITMAP
00F00080
03FC01C0
07FC07C0
0FFE0FE0
1F9E3F80
7F1F7F00
FC0FFC00
F80FF800
7007F000
4003C000
ENDCHAR
STARTCHAR 00A0
ENCODING 160
SWIDTH 612 0
DWIDTH 34 0
BBX 0 0 0 0
BITMAP
ENDCHAR
STARTCHAR 00A1
ENCODING 161
SWIDTH 612 0
DWIDTH 34 0
BBX 8 41 13 -12
BITMAP
3C
7E
FF
FF
FF
FF
7E
3C
00
00
00
00
3C
3C
3C
3C
3C
3C
3C
3C
3C
3C
3C
3C
3C
3C
3C
3C
3C
3C
3C
3C
3C
3C
3C
3C
3C
3C
3C
3C
3C
ENDCHAR
STARTCHAR 00A2
ENCODING 162
SWIDTH 612 0
DWIDTH 34 0
BBX 28 37 3 2
BITMAP
00078000
00078000
00078000
00078000
003FE000
00FFFC00
03FFFE00
07FFFF00
0FF7BF80
1F878FC0
3F0787C0
3E0783E0
7E0783E0
7C0781F0
7C0781F0
78078100
F8078000
F8078000
F8078000
F8078000
F8078000
F8078000
780781E0
7C0781F0
7C0781E0
3E0783E0
3F0787E0
1F878FC0
1FC79FC0
0FFFFF80
07FFFF00
01FFFC00
007FF800
00078000
00078000
00078000
00078000
ENDCHAR
STARTCHAR 00A3
ENCODING 163
SWIDTH 612 0
DWIDTH 34 0
BBX 22 29 6 6
BITMAP
007F00
01FFC0
03FFF0
07FFF0
07E3F8
0F80F8
0F807C
0F007C
0F003C
0F003C
0F003C
0F0000
0F0000
0F0000
FFF800
FFF800
FFF800
FFF800
0F0000
0F0000
0F0000
0F0000
0F0000
0F0000
0F0000
FFFFF8
FFFFF8
FFFFF8
FFFFF8
ENDCHAR
STARTCHAR 00A4
ENCODING 164
SWIDTH 612 0
DWIDTH 34 0
BBX 30 30 2 5
BITMAP
10000020
381FF070
7CFFFCF8
FFFFFFFC
3FFFFFF8
1FF03FF0
0FC00FE0
1F8003E0
1F0003F0
3E0001F0
3C0000F0
3C0000F8
7C0000F8
7C000078
7C000078
7C000078
7C000078
7C0000F8
3C0000F8
3E0000F0
3E0001F0
1F0003F0
1F8007E0
0FC00FE0
1FF83FF0
3FFFFFF8
FFFFFFFC
7C7FFCF8
381FE070
10000020
ENDCHAR
STARTCHAR 00A5
ENCODING 165
SWIDTH 612 0
DWIDTH 34 0
BBX 24 28 5 6
BITMAP
F8001F
7C003E
3C003E
3E007C
1E007C
1F00F8
0F80F0
0F81F0
07C1E0
07C3E0
03E3C0
03E7C0
01F780
3FFFFC
3FFFFC
3FFFFC
3FFFFC
003C00
003C00
3FFFFC
3FFFFC
3FFFFC
3FFFFC
003C00
003C00
003C00
003C00
003C00
ENDCHAR
STARTCHAR 00A6
ENCODING 166
SWIDTH 612 0
DWIDTH 34 0
BBX 4 58 15 -9
BITMAP
F0
F0
F0
F0
F0
F0
F0
F0
F0
F0
F0
F0
F0
F0
F0
F0
F0
F0
F0
F0
F0
F0
F0
F0
F0
F0
F0
00
00
00
00
F0
F0
F0
F0
F0
F0
F0
F0
F0
F0
F0
F0
F0
F0
F0
F0
F0
F0
F0
F0
F0
F0
F0
F0
F0
F0
F0
ENDCHAR
STARTCHAR 00A7
ENCODING 167
SWIDTH 612 0
DWIDTH 34 0
BBX 15 29 10 12
BITMAP
07C0
1FF0
3FF8
7FFC
7C7C
F83C
F01E
F01E
7C00
7F80
7FF0
7FF8
F7FC
F07E
F81E
7E1E
7FFE
3FFC
0FFC
00FC
003E
E01E
F01E
F01E
FC7E
7FFC
7FF8
3FF0
0FE0
ENDCHAR
STARTCHAR 00A8
ENCODING 168
SWIDTH 612 0
DWIDTH 34 0
BBX 19 8 8 33
BITMAP
380780
FE0FC0
FE1FC0
FE1FE0
FE1FE0
FE1FC0
FE0FC0
380780
ENDCHAR
STARTCHAR 00A9
ENCODING 169
SWIDTH 612 0
DWIDTH 34 0
BBX 28 28 3 18
BITMAP
001FC000
00FFF000
03FFFC00
07C03E00
0F000F00
1E0F0780
3C3FC3C0
387FE1C0
7078E0E0
70F070E0
60E07070
E0E07070
E0E00070
E0E00070
E0E00070
E0E00070
E0E07070
60E07070
70F070E0
7070E0E0
387FE1C0
3C3FC3C0
1E0F0780
0F000F00
07C03E00
03FFFC00
00FFF000
003FC000
ENDCHAR
STARTCHAR 00AA
ENCODING 170
SWIDTH 612 0
DWIDTH 34 0
BBX 18 16 9 23
BITMAP
0FCF00
1FFF00
3FFF00
7C3F00
F81F00
F00F00
F00F00
F00F00
E00F00
F00F00
F00F00
F01F00
7C3F00
3FFFC0
1FEFC0
0FC7C0
ENDCHAR
STARTCHAR 00AB
ENCODING 171
SWIDTH 612 0
DWIDTH 34 0
BBX 26 26 4 1
BITMAP
00040040
001C01C0
003C03C0
00FC0FC0
01FC1FC0
07F87F80
0FE0FE00
3FC3FC00
7F07F000
FE0FE000
F80FC000
F00F0000
C00E0000
C00C0000
F00F0000
F80F8000
FE0FE000
FF0FF000
3FC3FC00
1FE1FE00
07F07F80
03FC3FC0
00FC0FC0
007C07C0
001C01C0
000C00C0
ENDCHAR
STARTCHAR 00AC
ENCODING 172
SWIDTH 612 0
DWIDTH 34 0
BBX 24 9 5 13
BITMAP
FFFFFF
FFFFFF
FFFFFF
FFFFFF
00000F
00000F
00000F
00000F
00000F
ENDCHAR
STARTCHAR 00AE
ENCODING 174
SWIDTH 612 0
DWIDTH 34 0
BBX 28 28 3 18
BITMAP
001FC000
00FFF000
03FFFC00
07C03E00
0F000F00
1E000780
3C7F83C0
387FE1C0
707FE0E0
7070F0E0
60707070
E0707070
E070E070
E07FE070
E07FC070
E07FE070
E070E070
6070F070
7070F0E0
7070F0E0
3870F1C0
3C70F3C0
1E000780
0F000F00
07C03E00
03FFFC00
00FFF000
003FC000
ENDCHAR
STARTCHAR 00AF
ENCODING 175
SWIDTH 612 0
DWIDTH 34 0
BBX 16 4 9 32
BITMAP
FFFF
FFFF
FFFF
FFFF
ENDCHAR
STARTCHAR 00B0
ENCODING 176
SWIDTH 612 0
DWIDTH 34 0
BBX 16 16 9 24
BITMAP
07E0
1FF8
3FFC
7FFE
7C3E
F81F
F00F
F00F
F00F
F00F
F81F
7E3E
7FFE
3FFC
1FF8
07E0
ENDCHAR
STARTCHAR 00B1
ENCODING 177
SWIDTH 612 0
DWIDTH 34 0
BBX 24 32 5 0
BITMAP
003C00
003C00
003C00
003C00
003C00
003C00
003C00
003C00
003C00
003C00
FFFFFF
FFFFFF
FFFFFF
FFFFFF
003C00
003C00
003C00
003C00
003C00
003C00
003C00
003C00
003C00
003C00
000000
000000
000000
000000
FFFFFF
FFFFFF
FFFFFF
FFFFFF
ENDCHAR
STARTCHAR 00B2
ENCODING 178
SWIDTH 612 0
DWIDTH 34 0
BBX 12 16 11 23
BITMAP
0F80
3FC0
7FE0
70F0
7070
E070
E0F0
01E0
0FE0
3FC0
7E00
7800
7000
7FF0
7FF0
7FF0
ENDCHAR
STARTCHAR 00B3
ENCODING 179
SWIDTH 612 0
DWIDTH 34 0
BBX 12 16 11 23
BITMAP
7FE0
7FE0
7FE0
01E0
0FE0
0F00
0F00
0FE0
0FE0
00F0
E070
F070
70F0
7FE0
3FC0
0F80
ENDCHAR
STARTCHAR 00B4
ENCODING 180
SWIDTH 612 0
DWIDTH 34 0
BBX 9 7 13 32
BITMAP
1F80
1F00
3E00
3C00
7C00
7800
F000
ENDCHAR
STARTCHAR 00B5
ENCODING 181
SWIDTH 612 0
DWIDTH 34 0
BBX 24 39 5 -11
BITMAP
F0000F
F0000F
F0000F
F0000F
F0000F
F0000F
F0000F
F0000F
F0000F
F0000F
F0000F
F0000F
F0000F
F0000F
F0000F
F0000F
F0000F
F0000F
F0000F
F8000F
F8001F
FC001F
FC003F
FF007F
FFC3FF
F7FFEF
F3FFCF
F1FF8F
F07E00
F00000
F00000
F00000
F00000
F00000
F00000
F00000
F00000
F00000
F00000
ENDCHAR
STARTCHAR 00B6
ENCODING 182
SWIDTH 612 0
DWIDTH 34 0
BBX 18 28 7 12
BITMAP
07FFC0
1FFFC0
3FFFC0
7FFFC0
7CF3C0
F8F3C0
F0F3C0
F0F3C0
F0F3C0
F0F3C0
F8F3C0
7CF3C0
7FF3C0
3FF3C0
1FF3C0
07F3C0
00F3C0
00F3C0
00F3C0
00F3C0
00F3C0
00F3C0
00F3C0
00F3C0
00F3C0
00F3C0
00F3C0
00F3C0
ENDCHAR
STARTCHAR 00B7
ENCODING 183
SWIDTH 612 0
DWIDTH 34 0
BBX 8 8 13 16
BITMAP
3C
7E
FF
FF
FF
FF
7E
3C
ENDCHAR
STARTCHAR 00B8
ENCODING 184
SWIDTH 612 0
DWIDTH 34 0
BBX 11 12 12 -12
BITMAP
7000
6000
EF00
FF80
FFC0
F1C0
01E0
21C0
E1C0
FFC0
7F80
1F00
ENDCHAR
STARTCHAR 00B9
ENCODING 185
SWIDTH 612 0
DWIDTH 34 0
BBX 11 16 12 23
BITMAP
7E00
7E00
7E00
7E00
EE00
EE00
EE00
0E00
0E00
0E00
0E00
0E00
0E00
FFE0
FFE0
FFE0
ENDCHAR
STARTCHAR 00BA
ENCODING 186
SWIDTH 612 0
DWIDTH 34 0
BBX 16 16 9 23
BITMAP
07E0
1FF8
3FFC
7C3E
780F
F00F
F007
F007
E007
F007
F00F
780F
7C3E
3FFC
1FF8
07E0
ENDCHAR
STARTCHAR 00BB
ENCODING 187
SWIDTH 612 0
DWIDTH 34 0
BBX 26 26 4 1
BITMAP
C00C0000
E00E0000
F80F8000
FC0FC000
FF0FF000
7F87F800
1FE1FE00
0FF0FF00
03F83FC0
01FC1FC0
007C07C0
003C03C0
000C00C0
000C00C0
001C01C0
007C07C0
00FC0FC0
03FC3FC0
07F07F00
1FE1FE00
3F83F800
FF0FF000
FC0FC000
F80F8000
E00F0000
C00C0000
ENDCHAR
STARTCHAR 00BC
ENCODING 188
SWIDTH 612 0
DWIDTH 34 0
BBX 28 39 3 0
BITMAP
3F000000
7F000000
77000000
77000000
67000000
E7000000
E7000000
07000000
07000000
07000000
07000000
07000020
070000E0
FFF003F0
FFF007E0
FFF01F80
00007E00
0001F800
0007E000
001F8000
007E0000
01F80000
07E00000
1F800FC0
7E001FC0
F8001FC0
60003BC0
00003BC0
000073C0
000073C0
0000E3C0
0000E3C0
0001C3C0
0001FFF0
0001FFF0
0001FFF0
000003C0
000003C0
000003C0
ENDCHAR
STARTCHAR 00BD
ENCODING 189
SWIDTH 612 0
DWIDTH 34 0
BBX 28 39 3 0
BITMAP
3F000000
7F000000
77000000
77000000
67000000
E7000000
E7000000
07000000
07000000
07000000
07000000
07000020
070000E0
FFF003F0
FFF007E0
FFF01F80
00007E00
0001F800
0007E000
001F8000
007E0000
01F80000
07E00000
1F800F80
7E003FE0
F8003FE0
600070F0
00007070
00007070
00007070
000001F0
00000FE0
00003FC0
00003E00
00007800
00007000
00007FF0
00007FF0
00007FF0
ENDCHAR
STARTCHAR 00BE
ENCODING 190
SWIDTH 612 0
DWIDTH 34 0
BBX 28 39 3 0
BITMAP
FFE00000
FFE00000
FFE00000
03E00000
0FE00000
0F000000
0F000000
0FC00000
0FE00000
00E00000
E0E00000
E0E00020
E0E000E0
7FC003F0
7FC007E0
1F001F80
00007E00
0001F800
0007E000
001F8000
007E0000
01F80000
07E00000
1F800FC0
7E001FC0
F8001FC0
60003BC0
00003BC0
000073C0
000073C0
0000E3C0
0000E3C0
0001C3C0
0001FFF0
0001FFF0
0001FFF0
000003C0
000003C0
000003C0
ENDCHAR
STARTCHAR 00BF
ENCODING 191
SWIDTH 612 0
DWIDTH 34 0
BBX 26 42 4 -13
BITMAP
00070000
001FC000
001FC000
001FC000
001FC000
001FC000
001FC000
00070000
00000000
00000000
00000000
000F8000
000F8000
000F8000
000F8000
000F8000
000F8000
01FF8000
07FF0000
0FFF0000
1FFE0000
3F800000
7E000000
7C000000
7C000000
F80003C0
F80003C0
F80003C0
F80003C0
F80007C0
F80007C0
F80007C0
F80007C0
7C000F80
7C000F80
3E001F00
3F803F00
1FE1FE00
0FFFFC00
07FFF800
01FFE000
007F8000
ENDCHAR
STARTCHAR 00C0
ENCODING 192
SWIDTH 612 0
DWIDTH 34 0
BBX 32 50 1 0
BITMAP
007C0000
003E0000
001F0000
001F0000
000F8000
00078000
0007C000
00000000
00000000
00000000
000FF800
001FF800
001F7800
001E7C00
003E7C00
003E7C00
003E3E00
007C3E00
007C3E00
007C1E00
00781F00
00F81F00
00F81F00
00F80F80
01F00F80
01F00F80
01F00780
01E007C0
03E007C0
03E007C0
03E003E0
07C003E0
07C003E0
07C001F0
0F8001F0
0F8001F0
0FFFFFF0
0FFFFFF8
1FFFFFF8
1FFFFFF8
1F00007C
3E00007C
3E00007C
3E00003E
7C00003E
7C00003E
7C00003E
7C00001F
F800001F
F800001F
ENDCHAR
STARTCHAR 00C1
ENCODING 193
SWIDTH 612 0
DWIDTH 34 0
BBX 32 50 1 0
BITMAP
00003E00
00007C00
00007800
0000F800
0000F000
0001E000
0003E000
00000000
00000000
00000000
000FF800
001FF800
001F7800
001E7C00
003E7C00
003E7C00
003E3E00
007C3E00
007C3E00
007C1E00
00781F00
00F81F00
00F81F00
00F80F80
01F00F80
01F00F80
01F00780
01E007C0
03E007C0
03E007C0
03E003E0
07C003E0
07C003E0
07C001F0
0F8001F0
0F8001F0
0FFFFFF0
0FFFFFF8
1FFFFFF8
1FFFFFF8
1F00007C
3E00007C
3E00007C
3E00003E
7C00003E
7C00003E
7C00003E
7C00001F
F800001F
F800001F
ENDCHAR
STARTCHAR 00C2
ENCODING 194
SWIDTH 612 0
DWIDTH 34 0
BBX 32 50 1 0
BITMAP
000FF000
000FF000
001F7800
003E7C00
003C3C00
007C1E00
00F81F00
00000000
00000000
00000000
000FF800
001FF800
001F7800
001E7C00
003E7C00
003E7C00
003E3E00
007C3E00
007C3E00
007C1E00
00781F00
00F81F00
00F81F00
00F80F80
01F00F80
01F00F80
01F00780
01E007C0
03E007C0
03E007C0
03E003E0
07C003E0
07C003E0
07C001F0
0F8001F0
0F8001F0
0FFFFFF0
0FFFFFF8
1FFFFFF8
1FFFFFF8
1F00007C
3E00007C
3E00007C
3E00003E
7C00003E
7C00003E
7C00003E
7C00001F
F800001F
F800001F
ENDCHAR
STARTCHAR 00C3
ENCODING 195
SWIDTH 612 0
DWIDTH 34 0
BBX 32 52 1 0
BITMAP
001F0000
003F8300
007F8380
00FFC7C0
01F3CF80
01E1FF00
00E1FE00
0040FC00
00007800
00000000
00000000
00000000
000FF800
001FF800
001F7800
001E7C00
003E7C00
003E7C00
003E3E00
007C3E00
007C3E00
007C1E00
00781F00
00F81F00
00F81F00
00F80F80
01F00F80
01F00F80
01F00780
01E007C0
03E007C0
03E007C0
03E003E0
07C003E0
07C003E0
07C001F0
0F8001F0
0F8001F0
0FFFFFF0
0FFFFFF8
1FFFFFF8
1FFFFFF8
1F00007C
3E00007C
3E00007C
3E00003E
7C00003E
7C00003E
7C00003E
7C00001F
F800001F
F800001F
ENDCHAR
STARTCHAR 00C4
ENCODING 196
SWIDTH 612 0
DWIDTH 34 0
BBX 32 52 1 0
BITMAP
00700F00
01FC1F80
01FC3F80
01FC3FC0
01FC3FC0
01FC3F80
01FC1F80
00700F00
00000000
00000000
00000000
00000000
000FF800
001FF800
001F7800
001E7C00
003E7C00
003E7C00
003E3E00
007C3E00
007C3E00
007C1E00
00781F00
00F81F00
00F81F00
00F80F80
01F00F80
01F00F80
01F00780
01E007C0
03E007C0
03E007C0
03E003E0
07C003E0
07C003E0
07C001F0
0F8001F0
0F8001F0
0FFFFFF0
0FFFFFF8
1FFFFFF8
1FFFFFF8
1F00007C
3E00007C
3E00007C
3E00003E
7C00003E
7C00003E
7C00003E
7C00001F
F800001F
F800001F
ENDCHAR
STARTCHAR 00C5
ENCODING 197
SWIDTH 612 0
DWIDTH 34 0
BBX 32 54 1 0
BITMAP
0003E000
000FF000
001FF800
001E3800
003C3C00
003C3C00
003C3C00
001E3800
001FF800
000FF000
0003E000
00000000
00000000
00000000
000FF800
001FF800
001F7800
001E7C00
003E7C00
003E7C00
003E3E00
007C3E00
007C3E00
007C1E00
00781F00
00F81F00
00F81F00
00F80F80
01F00F80
01F00F80
01F00780
01E007C0
03E007C0
03E007C0
03E003E0
07C003E0
07C003E0
07C001F0
0F8001F0
0F8001F0
0FFFFFF0
0FFFFFF8
1FFFFFF8
1FFFFFF8
1F00007C
3E00007C
3E00007C
3E00003E
7C00003E
7C00003E
7C00003E
7C00001F
F800001F
F800001F
ENDCHAR
STARTCHAR 00C6
ENCODING 198
SWIDTH 612 0
DWIDTH 34 0
BBX 30 40 1 0
BITMAP
000FFFF8
001FFFF8
001FFFF8
001FFFF8
003EF800
003EF800
003CF800
007CF800
007CF800
007CF800
0078F800
00F8F800
00F8F800
00F8F800
01F0F800
01F0F800
01F0F800
01E0F800
03E0FFF8
03E0FFF8
03E0FFF8
07C0FFF8
07C0F800
07C0F800
0F80F800
0F80F800
0FFFF800
0FFFF800
1FFFF800
1FFFF800
1F00F800
3E00F800
3E00F800
3E00F800
7C00F800
7C00F800
7C00FFFC
7C00FFFC
F800FFFC
F800FFFC
ENDCHAR
STARTCHAR 00C7
ENCODING 199
SWIDTH 612 0
DWIDTH 34 0
BBX 27 53 4 -12
BITMAP
007F8000
01FFF000
07FFFC00
0FFFFE00
1FE0FF00
3F803F80
3F001F80
7E000FC0
7C0007C0
FC0007C0
F80003E0
F80003E0
F80003E0
F00003E0
F00003E0
F0000000
F0000000
F0000000
F0000000
F0000000
F0000000
F0000000
F0000000
F0000000
F0000000
F0000000
F0000000
F00003E0
F00003E0
F80003E0
F80003E0
F80003E0
F80007C0
7C0007C0
7E000FC0
3E000F80
3F803F80
1FE0FF00
0FFFFE00
07FFFC00
03FFF000
007F8000
00380000
003B8000
0037E000
007FE000
007CF000
00007000
00107000
0078F000
003FE000
001FC000
000F8000
ENDCHAR
STARTCHAR 00C8
ENCODING 200
SWIDTH 612 0
DWIDTH 34 0
BBX 24 50 5 0
BITMAP
03F000
01F000
00F800
007800
007C00
003C00
001E00
000000
000000
000000
FFFFFF
FFFFFF
FFFFFF
FFFFFF
F80000
F80000
F80000
F80000
F80000
F80000
F80000
F80000
F80000
F80000
F80000
F80000
F80000
F80000
FFFFFF
FFFFFF
FFFFFF
FFFFFF
F80000
F80000
F80000
F80000
F80000
F80000
F80000
F80000
F80000
F80000
F80000
F80000
F80000
F80000
FFFFFF
FFFFFF
FFFFFF
FFFFFF
ENDCHAR
STARTCHAR 00C9
ENCODING 201
SWIDTH 612 0
DWIDTH 34 0
BBX 24 50 5 0
BITMAP
0003E0
0003C0
0007C0
000F80
000F00
001F00
001E00
000000
000000
000000
FFFFFF
FFFFFF
FFFFFF
FFFFFF
F80000
F80000
F80000
F80000
F80000
F80000
F80000
F80000
F80000
F80000
F80000
F80000
F80000
F80000
FFFFFF
FFFFFF
FFFFFF
FFFFFF
F80000
F80000
F80000
F80000
F80000
F80000
F80000
F80000
F80000
F80000
F80000
F80000
F80000
F80000
FFFFFF
FFFFFF
FFFFFF
FFFFFF
ENDCHAR
STARTCHAR 00CA
ENCODING 202
SWIDTH 612 0
DWIDTH 34 0
BBX 24 50 5 0
BITMAP
007F00
00FF80
01F780
01E7C0
03C3E0
07C1E0
0F81F0
000000
000000
000000
FFFFFF
FFFFFF
FFFFFF
FFFFFF
F80000
F80000
F80000
F80000
F80000
F80000
F80000
F80000
F80000
F80000
F80000
F80000
F80000
F80000
FFFFFF
FFFFFF
FFFFFF
FFFFFF
F80000
F80000
F80000
F80000
F80000
F80000
F80000
F80000
F80000
F80000
F80000
F80000
F80000
F80000
FFFFFF
FFFFFF
FFFFFF
FFFFFF
ENDCHAR
STARTCHAR 00CB
ENCODING 203
SWIDTH 612 0
DWIDTH 34 0
BBX 24 52 5 0
BITMAP
0780F0
0FC1F8
1FC3FC
1FE3FC
1FE3FC
1FC3FC
0FC1F8
0780F0
000000
000000
000000
000000
FFFFFF
FFFFFF
FFFFFF
FFFFFF
F80000
F80000
F80000
F80000
F80000
F80000
F80000
F80000
F80000
F80000
F80000
F80000
F80000
F80000
FFFFFF
FFFFFF
FFFFFF
FFFFFF
F80000
F80000
F80000
F80000
F80000
F80000
F80000
F80000
F80000
F80000
F80000
F80000
F80000
F80000
FFFFFF
FFFFFF
FFFFFF
FFFFFF
ENDCHAR
STARTCHAR 00CC
ENCODING 204
SWIDTH 612 0
DWIDTH 34 0
BBX 25 50 5 0
BITMAP
07E00000
03E00000
01F00000
00F00000
00F80000
00780000
003C0000
00000000
00000000
00000000
FFFFFF80
FFFFFF80
FFFFFF80
FFFFFF80
003C0000
003C0000
003C0000
003C0000
003C0000
003C0000
003C0000
003C0000
003C0000
003C0000
003C0000
003C0000
003C0000
003C0000
003C0000
003C0000
003C0000
003C0000
003C0000
003C0000
003C0000
003C0000
003C0000
003C0000
003C0000
003C0000
003C0000
003C0000
003C0000
003C0000
003C0000
003C0000
FFFFFF80
FFFFFF80
FFFFFF80
FFFFFF80
ENDCHAR
STARTCHAR 00CD
ENCODING 205
SWIDTH 612 0
DWIDTH 34 0
BBX 25 50 5 0
BITMAP
0003E000
0007C000
000F8000
000F0000
001F0000
001E0000
003C0000
00000000
00000000
00000000
FFFFFF80
FFFFFF80
FFFFFF80
FFFFFF80
003C0000
003C0000
003C0000
003C0000
003C0000
003C0000
003C0000
003C0000
003C0000
003C0000
003C0000
003C0000
003C0000
003C0000
003C0000
003C0000
003C0000
003C0000
003C0000
003C0000
003C0000
003C0000
003C0000
003C0000
003C0000
003C0000
003C0000
003C0000
003C0000
003C0000
003C0000
003C0000
FFFFFF80
FFFFFF80
FFFFFF80
FFFFFF80
ENDCHAR
STARTCHAR 00CE
ENCODING 206
SWIDTH 612 0
DWIDTH 34 0
BBX 25 50 5 0
BITMAP
00FF0000
00FF0000
01F78000
03E7C000
03C3C000
07C1E000
0F81F000
00000000
00000000
00000000
FFFFFF80
FFFFFF80
FFFFFF80
FFFFFF80
003C0000
003C0000
003C0000
003C0000
003C0000
003C0000
003C0000
003C0000
003C0000
003C0000
003C0000
003C0000
003C0000
003C0000
003C0000
003C0000
003C0000
003C0000
003C0000
003C0000
003C0000
003C0000
003C0000
003C0000
003C0000
003C0000
003C0000
003C0000
003C0000
003C0000
003C0000
003C0000
FFFFFF80
FFFFFF80
FFFFFF80
FFFFFF80
ENDCHAR
STARTCHAR 00CF
ENCODING 207
SWIDTH 612 0
DWIDTH 34 0
BBX 25 52 5 0
BITMAP
0700F000
1FC1F800
1FC3F800
1FC3FC00
1FC3FC00
1FC3F800
1FC1F800
0700F000
00000000
00000000
00000000
00000000
FFFFFF80
FFFFFF80
FFFFFF80
FFFFFF80
003C0000
003C0000
003C0000
003C0000
003C0000
003C0000
003C0000
003C0000
003C0000
003C0000
003C0000
003C0000
003C0000
003C0000
003C0000
003C0000
003C0000
003C0000
003C0000
003C0000
003C0000
003C0000
003C0000
003C0000
003C0000
003C0000
003C0000
003C0000
003C0000
003C0000
003C0000
003C0000
FFFFFF80
FFFFFF80
FFFFFF80
FFFFFF80
ENDCHAR
STARTCHAR 00D0
ENCODING 208
SWIDTH 612 0
DWIDTH 34 0
BBX 27 40 4 0
BITMAP
FFFFC000
FFFFF800
FFFFFC00
FFFFFF00
1F00FF00
1F001F80
1F000FC0
1F0007C0
1F0007C0
1F0003C0
1F0003E0
1F0003E0
1F0003E0
1F0003E0
1F0003E0
1F0003E0
1F0003E0
1F0003E0
FFFC03E0
FFFC03E0
FFFC03E0
FFFC03E0
1F0003E0
1F0003E0
1F0003E0
1F0003E0
1F0003E0
1F0003E0
1F0003E0
1F0003E0
1F0003C0
1F0007C0
1F0007C0
1F000FC0
1F001F80
1F00FF00
FFFFFF00
FFFFFC00
FFFFF800
FFFFC000
ENDCHAR
STARTCHAR 00D1
ENCODING 209
SWIDTH 612 0
DWIDTH 34 0
BBX 26 52 4 0
BITMAP
00F80000
01FC0800
03FE1C00
07FE3E00
07DF7C00
0F8FFC00
0707F800
0207F000
0003E000
00000000
00000000
00000000
FFC007C0
FFC007C0
FBC007C0
FBE007C0
FBE007C0
FBE007C0
F9E007C0
F9F007C0
F9F007C0
F8F007C0
F8F807C0
F8F807C0
F87807C0
F87C07C0
F87C07C0
F87C07C0
F83C07C0
F83E07C0
F83E07C0
F81E07C0
F81F07C0
F81F07C0
F80F07C0
F80F87C0
F80F87C0
F80F87C0
F80787C0
F807C7C0
F807C7C0
F803C7C0
F803E7C0
F803E7C0
F801E7C0
F801E7C0
F801F7C0
F801F7C0
F800F7C0
F800FFC0
F800FFC0
F8007FC0
ENDCHAR
STARTCHAR 00D2
ENCODING 210
SWIDTH 612 0
DWIDTH 34 0
BBX 28 51 3 -1
BITMAP
00F80000
00780000
007C0000
003C0000
001E0000
001F0000
000F0000
00000000
00000000
003FC000
01FFF800
03FFFC00
07FFFF00
0FF07F00
1F801F80
3F000FC0
3E0007C0
3E0007E0
7C0003E0
7C0003E0
7C0001E0
780001F0
F80001F0
F80001F0
F80001F0
F80001F0
F80001F0
F80001F0
F80001F0
F80001F0
F80001F0
F80001F0
F80001F0
F80001F0
F80001F0
F80001F0
F80001F0
F80001F0
780001F0
7C0001E0
7C0003E0
7C0003E0
3E0003E0
3E0007C0
3F000FC0
1F801F80
0FF07F80
07FFFF00
03FFFC00
01FFF800
003FC000
ENDCHAR
STARTCHAR 00D3
ENCODING 211
SWIDTH 612 0
DWIDTH 34 0
BBX 28 51 3 -1
BITMAP
0000F800
0001F000
0001E000
0003E000
0003C000
00078000
000F8000
00000000
00000000
003FC000
01FFF800
03FFFC00
07FFFF00
0FF07F00
1F801F80
3F000FC0
3E0007C0
3E0007E0
7C0003E0
7C0003E0
7C0001E0
780001F0
F80001F0
F80001F0
F80001F0
F80001F0
F80001F0
F80001F0
F80001F0
F80001F0
F80001F0
F80001F0
F80001F0
F80001F0
F80001F0
F80001F0
F80001F0
F80001F0
780001F0
7C0001E0
7C0003E0
7C0003E0
3E0003E0
3E0007C0
3F000FC0
1F801F80
0FF07F80
07FFFF00
03FFFC00
01FFF800
003FC000
ENDCHAR
STARTCHAR 00D4
ENCODING 212
SWIDTH 612 0
DWIDTH 34 0
BBX 28 51 3 -1
BITMAP
003FC000
003FC000
007DE000
00F9F000
00F0F000
01F07800
03E07C00
00000000
00000000
003FC000
01FFF800
03FFFC00
07FFFF00
0FF07F00
1F801F80
3F000FC0
3E0007C0
3E0007E0
7C0003E0
7C0003E0
7C0001E0
780001F0
F80001F0
F80001F0
F80001F0
F80001F0
F80001F0
F80001F0
F80001F0
F80001F0
F80001F0
F80001F0
F80001F0
F80001F0
F80001F0
F80001F0
F80001F0
F80001F0
780001F0
7C0001E0
7C0003E0
7C0003E0
3E0003E0
3E0007C0
3F000FC0
1F801F80
0FF07F80
07FFFF00
03FFFC00
01FFF800
003FC000
ENDCHAR
STARTCHAR 00D5
ENCODING 213
SWIDTH 612 0
DWIDTH 34 0
BBX 28 53 3 -1
BITMAP
007C0000
00FE0C00
01FE0E00
03FF1F00
07CF3E00
0787FC00
0387F800
0103F000
0001E000
00000000
00000000
003FC000
01FFF800
03FFFC00
07FFFF00
0FF07F00
1F801F80
3F000FC0
3E0007C0
3E0007E0
7C0003E0
7C0003E0
7C0001E0
780001F0
F80001F0
F80001F0
F80001F0
F80001F0
F80001F0
F80001F0
F80001F0
F80001F0
F80001F0
F80001F0
F80001F0
F80001F0
F80001F0
F80001F0
F80001F0
F80001F0
780001F0
7C0001E0
7C0003E0
7C0003E0
3E0003E0
3E0007C0
3F000FC0
1F801F80
0FF07F80
07FFFF00
03FFFC00
01FFF800
003FC000
ENDCHAR
STARTCHAR 00D6
ENCODING 214
SWIDTH 612 0
DWIDTH 34 0
BBX 28 53 3 -1
BITMAP
01C03C00
07F07E00
07F0FE00
07F0FF00
07F0FF00
07F0FE00
07F07E00
01C03C00
00000000
00000000
00000000
003FC000
01FFF800
03FFFC00
07FFFF00
0FF07F00
1F801F80
3F000FC0
3E0007C0
3E0007E0
7C0003E0
7C0003E0
7C0001E0
780001F0
F80001F0
F80001F0
F80001F0
F80001F0
F80001F0
F80001F0
F80001F0
F80001F0
F80001F0
F80001F0
F80001F0
F80001F0
F80001F0
F80001F0
F80001F0
F80001F0
780001F0
7C0001E0
7C0003E0
7C0003E0
3E0003E0
3E0007C0
3F000FC0
1F801F80
0FF07F80
07FFFF00
03FFFC00
01FFF800
003FC000
ENDCHAR
STARTCHAR 00D7
ENCODING 215
SWIDTH 612 0
DWIDTH 34 0
BBX 22 22 6 9
BITMAP
200010
300038
78007C
FC00FC
7E01F8
3F03F0
1F87E0
0FCFC0
07FF80
03FF00
01FE00
00FC00
01FE00
03FF00
07FF80
0FCFC0
1F87E0
3F03F0
7E01F8
FC00FC
780078
300030
ENDCHAR
STARTCHAR 00D8
ENCODING 216
SWIDTH 612 0
DWIDTH 34 0
BBX 28 49 3 -5
BITMAP
00001E00
00001F00
00001E00
003FDE00
01FFFE00
03FFFC00
07FFFF00
0FF0FF00
1F807F80
3F007FC0
3E00FFC0
3E00F7E0
7C00F3E0
7C01F3E0
7C01E1E0
7801E1F0
F803E1F0
F803C1F0
F803C1F0
F807C1F0
F80781F0
F80781F0
F80F81F0
F80F81F0
F80F01F0
F81F01F0
F81F01F0
F81E01F0
F81E01F0
F83E01F0
F83C01F0
F83C01F0
787C01F0
7C7801E0
7C7803E0
7CF803E0
3EF003E0
3EF007C0
3FF00FC0
1FF01F80
0FF07F80
07FFFF00
03FFFC00
03FFF800
07FFC000
07C00000
07800000
0F800000
03800000
ENDCHAR
STARTCHAR 00D9
ENCODING 217
SWIDTH 612 0
DWIDTH 34 0
BBX 27 51 4 -1
BITMAP
01F00000
00F80000
00780000
007C0000
003C0000
001E0000
001F0000
00000000
00000000
00000000
F00003E0
F00003E0
F00003E0
F00003E0
F00003E0
F00003E0
F00003E0
F00003E0
F00003E0
F00003E0
F00003E0
F00003E0
F00003E0
F00003E0
F00003E0
F00003E0
F00003E0
F00003E0
F00003E0
F00003E0
F00003E0
F00003E0
F00003E0
F00003E0
F00003E0
F00003E0
F00003E0
F00003E0
F00003E0
F80003C0
F80007C0
F80007C0
F80007C0
7C000F80
7E001F80
3F003F00
1FE0FF00
1FFFFE00
07FFFC00
03FFF000
007F8000
ENDCHAR
STARTCHAR 00DA
ENCODING 218
SWIDTH 612 0
DWIDTH 34 0
BBX 27 51 4 -1
BITMAP
0001F000
0003E000
0003C000
0007C000
00078000
000F0000
001F0000
00000000
00000000
00000000
F00003E0
F00003E0
F00003E0
F00003E0
F00003E0
F00003E0
F00003E0
F00003E0
F00003E0
F00003E0
F00003E0
F00003E0
F00003E0
F00003E0
F00003E0
F00003E0
F00003E0
F00003E0
F00003E0
F00003E0
F00003E0
F00003E0
F00003E0
F00003E0
F00003E0
F00003E0
F00003E0
F00003E0
F00003E0
F80003C0
F80007C0
F80007C0
F80007C0
7C000F80
7E001F80
3F003F00
1FE0FF00
1FFFFE00
07FFFC00
03FFF000
007F8000
ENDCHAR
STARTCHAR 00DB
ENCODING 219
SWIDTH 612 0
DWIDTH 34 0
BBX 27 51 4 -1
BITMAP
007F8000
007F8000
00FBC000
01F3E000
01E1E000
03E0F000
07C0F800
00000000
00000000
00000000
F00003E0
F00003E0
F00003E0
F00003E0
F00003E0
F00003E0
F00003E0
F00003E0
F00003E0
F00003E0
F00003E0
F00003E0
F00003E0
F00003E0
F00003E0
F00003E0
F00003E0
F00003E0
F00003E0
F00003E0
F00003E0
F00003E0
F00003E0
F00003E0
F00003E0
F00003E0
F00003E0
F00003E0
F00003E0
F80003C0
F80007C0
F80007C0
F80007C0
7C000F80
7E001F80
3F003F00
1FE0FF00
1FFFFE00
07FFFC00
03FFF000
007F8000
ENDCHAR
STARTCHAR 00DC
ENCODING 220
SWIDTH 612 0
DWIDTH 34 0
BBX 27 53 4 -1
BITMAP
03807800
0FE0FC00
0FE1FC00
0FE1FE00
0FE1FE00
0FE1FC00
0FE0FC00
03807800
00000000
00000000
00000000
00000000
F00003E0
F00003E0
F00003E0
F00003E0
F00003E0
F00003E0
F00003E0
F00003E0
F00003E0
F00003E0
F00003E0
F00003E0
F00003E0
F00003E0
F00003E0
F00003E0
F00003E0
F00003E0
F00003E0
F00003E0
F00003E0
F00003E0
F00003E0
F00003E0
F00003E0
F00003E0
F00003E0
F00003E0
F00003E0
F80003C0
F80007C0
F80007C0
F80007C0
7C000F80
7E001F80
3F003F00
1FE0FF00
1FFFFE00
07FFFC00
03FFF000
007F8000
ENDCHAR
STARTCHAR 00DD
ENCODING 221
SWIDTH 612 0
DWIDTH 34 0
BBX 31 50 2 0
BITMAP
00007C00
0000F800
0001F000
0001E000
0003E000
0003C000
00078000
00000000
00000000
00000000
F800007E
F800007C
7C0000FC
7C0000F8
3E0001F8
3E0001F0
1F0001F0
1F0003E0
0F8003E0
0F8007C0
0FC007C0
07C00F80
07C00F80
03E01F00
03E01F00
01F03E00
01F03E00
00F83E00
00F87C00
007C7C00
007CF800
003EF800
003FF000
001FF000
001FE000
000FE000
00078000
00078000
00078000
00078000
00078000
00078000
00078000
00078000
00078000
00078000
00078000
00078000
00078000
00078000
ENDCHAR
STARTCHAR 00DE
ENCODING 222
SWIDTH 612 0
DWIDTH 34 0
BBX 26 40 5 0
BITMAP
F0000000
F0000000
F0000000
F0000000
F0000000
F0000000
F0000000
F0000000
FFFFC000
FFFFF000
FFFFFC00
FFFFFE00
F001FF00
F0003F00
F0001F80
F0000F80
F00007C0
F00007C0
F00007C0
F00007C0
F00007C0
F00007C0
F00007C0
F0000F80
F0000F80
F0001F80
F0007F00
FFFFFE00
FFFFFC00
FFFFF800
FFFFE000
F0000000
F0000000
F0000000
F0000000
F0000000
F0000000
F0000000
F0000000
F0000000
ENDCHAR
STARTCHAR 00DF
ENCODING 223
SWIDTH 612 0
DWIDTH 34 0
BBX 30 42 2 -1
BITMAP
001FC000
007FF800
01FFFC00
03FFFE00
03F8FF00
07E01F80
07C00F80
0F800780
0F000780
0F0007C0
0F0007C0
1F0007C0
1F000780
FF000780
FF000F80
FF001F80
FF003F00
1F03FE00
1F03FC00
1F03F000
1F038000
1F03FC00
1F03FF80
1F03FFC0
1F03FFE0
1F001FF0
1F0003F0
1F0000F8
1F0000F8
1F000078
1F000078
1F00007C
1F0C007C
1F3C0078
1F3C0078
1F3E00F8
1F1F01F8
1F1FC7F0
1F0FFFE0
1F07FFC0
1F03FF80
0000FE00
ENDCHAR
STARTCHAR 00E0
ENCODING 224
SWIDTH 612 0
DWIDTH 34 0
BBX 29 40 3 -1
BITMAP
03E00000
01F00000
01F00000
00F80000
00780000
007C0000
003E0000
00000000
00000000
00000000
007F0000
03FFC3C0
07FFE3C0
0FFFF3C0
1FE1FBC0
3F803FC0
7E001FC0
7C000FC0
7C000FC0
F80007C0
F80007C0
F00003C0
F00003C0
F00003C0
F00003C0
F00003C0
F00003C0
F00003C0
F00003C0
F80007C0
F80007C0
78000FC0
7C000FC0
7E001FC0
3F003BE0
1FE1FBF8
0FFFF3F8
07FFE1F8
03FFC0F8
007F0000
ENDCHAR
STARTCHAR 00E1
ENCODING 225
SWIDTH 612 0
DWIDTH 34 0
BBX 29 40 3 -1
BITMAP
0003E000
0007C000
00078000
000F8000
000F0000
001E0000
003E0000
00000000
00000000
00000000
007F0000
03FFC3C0
07FFE3C0
0FFFF3C0
1FE1FBC0
3F803FC0
7E001FC0
7C000FC0
7C000FC0
F80007C0
F80007C0
F00003C0
F00003C0
F00003C0
F00003C0
F00003C0
F00003C0
F00003C0
F00003C0
F80007C0
F80007C0
78000FC0
7C000FC0
7E001FC0
3F003BE0
1FE1FBF8
0FFFF3F8
07FFE1F8
03FFC0F8
007F0000
ENDCHAR
STARTCHAR 00E2
ENCODING 226
SWIDTH 612 0
DWIDTH 34 0
BBX 29 40 3 -1
BITMAP
007F0000
00FF8000
00F7C000
01E3C000
03E3E000
03C1F000
07C0F800
00000000
00000000
00000000
007F0000
03FFC3C0
07FFE3C0
0FFFF3C0
1FE1FBC0
3F803FC0
7E001FC0
7C000FC0
7C000FC0
F80007C0
F80007C0
F00003C0
F00003C0
F00003C0
F00003C0
F00003C0
F00003C0
F00003C0
F00003C0
F80007C0
F80007C0
78000FC0
7C000FC0
7E001FC0
3F003BE0
1FE1FBF8
0FFFF3F8
07FFE1F8
03FFC0F8
007F0000
ENDCHAR
STARTCHAR 00E3
ENCODING 227
SWIDTH 612 0
DWIDTH 34 0
BBX 29 41 3 -1
BITMAP
00780000
01FC0800
01FE1E00
03FF1F00
07CF3E00
0F8FFC00
0707F800
0103F000
0001E000
00000000
00000000
007F0000
03FFC3C0
07FFE3C0
0FFFF3C0
1FE1FBC0
3F803FC0
7E001FC0
7C000FC0
7C000FC0
F80007C0
F80007C0
F00003C0
F00003C0
F00003C0
F00003C0
F00003C0
F00003C0
F00003C0
F00003C0
F80007C0
F80007C0
78000FC0
7C000FC0
7E001FC0
3F003BE0
1FE1FBF8
0FFFF3F8
07FFE1F8
03FFC0F8
007F0000
ENDCHAR
STARTCHAR 00E4
ENCODING 228
SWIDTH 612 0
DWIDTH 34 0
BBX 29 42 3 -1
BITMAP
07807000
0FC1FC00
0FE1FC00
1FE1FC00
1FE1FC00
0FE1FC00
0FC1FC00
0780F000
00000000
00000000
00000000
00000000
007F0000
03FFC3C0
07FFE3C0
0FFFF3C0
1FE1FBC0
3F803FC0
7E001FC0
7C000FC0
7C000FC0
F80007C0
F80007C0
F00003C0
F00003C0
F00003C0
F00003C0
F00003C0
F00003C0
F00003C0
F00003C0
F80007C0
F80007C0
78000FC0
7C000FC0
7E001FC0
3F003BE0
1FE1FBF8
0FFFF3F8
07FFE1F8
03FFC0F8
007F0000
ENDCHAR
STARTCHAR 00E5
ENCODING 229
SWIDTH 612 0
DWIDTH 34 0
BBX 29 44 3 -1
BITMAP
003E0000
007F8000
00FF8000
01E3C000
01C1C000
01C1C000
01C1C000
01E3C000
00FF8000
007F8000
003E0000
00000000
00000000
00000000
007F0000
03FFC3C0
07FFE3C0
0FFFF3C0
1FE1FBC0
3F803FC0
7E001FC0
7C000FC0
7C000FC0
F80007C0
F80007C0
F00003C0
F00003C0
F00003C0
F00003C0
F00003C0
F00003C0
F00003C0
F00003C0
F80007C0
F80007C0
78000FC0
7C000FC0
7E001FC0
3F003BE0
1FE1FBF8
0FFFF3F8
07FFE1F8
03FFC0F8
007F0000
ENDCHAR
STARTCHAR 00E6
ENCODING 230
SWIDTH 612 0
DWIDTH 34 0
BBX 26 30 4 -1
BITMAP
00FF8000
03FFE000
0FFFF800
1FFFFC00
1F9FFE00
3E1E3F00
7C1E1F80
7C1E0F80
781E0780
381E07C0
001E03C0
001E03C0
03FFFFC0
0FFFFFC0
1FFFFFC0
3FFFFFC0
7F1E0000
7C1E0000
F81E0000
F81E0000
F01E0700
F01E07C0
F81E0F80
F81E0F80
7C1E3F00
7F1FFF00
3FFFFE00
1FFFFC00
0FFFF000
03FF8000
ENDCHAR
STARTCHAR 00E7
ENCODING 231
SWIDTH 612 0
DWIDTH 34 0
BBX 28 41 3 -12
BITMAP
001FE000
00FFF800
03FFFE00
07FFFF00
0FF07F80
1FC01FC0
3F0007C0
3E0003E0
7E0003E0
7C0001E0
7C0001F0
780001C0
F8000000
F8000000
F8000000
F8000000
F8000000
F8000000
78000180
780001F0
7C0001F0
7C0003E0
3E0003E0
3F0007C0
1FC01FC0
0FF07F80
07FFFF00
03FFFE00
00FFF800
003FE000
001C0000
001CE000
001FF000
001FF800
003E7800
00003800
00083800
003C3800
001FF800
000FF000
0007C000
ENDCHAR
STARTCHAR 00E8
ENCODING 232
SWIDTH 612 0
DWIDTH 34 0
BBX 26 40 4 -1
BITMAP
01F00000
00F00000
00F80000
007C0000
003C0000
003E0000
001E0000
00000000
00000000
00000000
003F8000
01FFF000
07FFF800
0FFFFC00
1FE0FE00
3F003F00
3E001F80
7C000F80
780007C0
F80003C0
F80003C0
F00003C0
FFFFFFC0
FFFFFFC0
FFFFFFC0
FFFFFFC0
F0000000
F0000000
F0000000
F8000000
F8000300
780007C0
7C0007C0
3E000F80
3F001F80
1FE0FF00
0FFFFE00
07FFFC00
01FFF000
007F8000
ENDCHAR
STARTCHAR 00E9
ENCODING 233
SWIDTH 612 0
DWIDTH 34 0
BBX 26 40 4 -1
BITMAP
0001F000
0003E000
0003C000
0007C000
00078000
000F0000
001F0000
00000000
00000000
00000000
003F8000
01FFF000
07FFF800
0FFFFC00
1FE0FE00
3F003F00
3E001F80
7C000F80
780007C0
F80003C0
F80003C0
F00003C0
FFFFFFC0
FFFFFFC0
FFFFFFC0
FFFFFFC0
F0000000
F0000000
F0000000
F8000000
F8000300
780007C0
7C0007C0
3E000F80
3F001F80
1FE0FF00
0FFFFE00
07FFFC00
01FFF000
007F8000
ENDCHAR
STARTCHAR 00EA
ENCODING 234
SWIDTH 612 0
DWIDTH 34 0
BBX 26 40 4 -1
BITMAP
007F8000
007FC000
00FBC000
00F3E000
01E1F000
03E0F000
07C0F800
00000000
00000000
00000000
003F8000
01FFF000
07FFF800
0FFFFC00
1FE0FE00
3F003F00
3E001F80
7C000F80
780007C0
F80003C0
F80003C0
F00003C0
FFFFFFC0
FFFFFFC0
FFFFFFC0
FFFFFFC0
F0000000
F0000000
F0000000
F8000000
F8000300
780007C0
7C0007C0
3E000F80
3F001F80
1FE0FF00
0FFFFE00
07FFFC00
01FFF000
007F8000
ENDCHAR
STARTCHAR 00EB
ENCODING 235
SWIDTH 612 0
DWIDTH 34 0
BBX 26 42 4 -1
BITMAP
03807800
07E0FC00
0FE1FC00
0FF1FE00
0FE1FE00
0FE1FC00
0FE0FC00
03807800
00000000
00000000
00000000
00000000
003F8000
01FFF000
07FFF800
0FFFFC00
1FE0FE00
3F003F00
3E001F80
7C000F80
780007C0
F80003C0
F80003C0
F00003C0
FFFFFFC0
FFFFFFC0
FFFFFFC0
FFFFFFC0
F0000000
F0000000
F0000000
F8000000
F8000300
780007C0
7C0007C0
3E000F80
3F001F80
1FE0FF00
0FFFFE00
07FFFC00
01FFF000
007F8000
ENDCHAR
STARTCHAR 00EC
ENCODING 236
SWIDTH 612 0
DWIDTH 34 0
BBX 23 39 6 0
BITMAP
07C000
03E000
03E000
01F000
00F000
00F800
007800
000000
000000
000000
000000
7FFC00
7FFC00
7FFC00
7FFC00
007C00
007C00
007C00
007C00
007C00
007C00
007C00
007C00
007C00
007C00
007C00
007C00
007C00
007C00
007C00
007C00
007C00
007C00
007C00
007C00
FFFFFE
FFFFFE
FFFFFE
FFFFFE
ENDCHAR
STARTCHAR 00ED
ENCODING 237
SWIDTH 612 0
DWIDTH 34 0
BBX 23 39 6 0
BITMAP
0007C0
000F80
000F80
001F00
001E00
003E00
003C00
000000
000000
000000
000000
7FFC00
7FFC00
7FFC00
7FFC00
007C00
007C00
007C00
007C00
007C00
007C00
007C00
007C00
007C00
007C00
007C00
007C00
007C00
007C00
007C00
007C00
007C00
007C00
007C00
007C00
FFFFFE
FFFFFE
FFFFFE
FFFFFE
ENDCHAR
STARTCHAR 00EE
ENCODING 238
SWIDTH 612 0
DWIDTH 34 0
BBX 23 39 6 0
BITMAP
00FE00
01FF00
03EF80
03C780
07C7C0
0F83C0
0F83E0
000000
000000
000000
000000
7FFC00
7FFC00
7FFC00
7FFC00
007C00
007C00
007C00
007C00
007C00
007C00
007C00
007C00
007C00
007C00
007C00
007C00
007C00
007C00
007C00
007C00
007C00
007C00
007C00
007C00
FFFFFE
FFFFFE
FFFFFE
FFFFFE
ENDCHAR
STARTCHAR 00EF
ENCODING 239
SWIDTH 612 0
DWIDTH 34 0
BBX 23 41 6 0
BITMAP
0F01E0
1F83F0
3FC7F8
3FC7F8
3FC7F8
3FC7F8
1F83F0
0F01E0
000000
000000
000000
000000
000000
7FFC00
7FFC00
7FFC00
7FFC00
007C00
007C00
007C00
007C00
007C00
007C00
007C00
007C00
007C00
007C00
007C00
007C00
007C00
007C00
007C00
007C00
007C00
007C00
007C00
007C00
FFFFFE
FFFFFE
FFFFFE
FFFFFE
ENDCHAR
STARTCHAR 00F0
ENCODING 240
SWIDTH 612 0
DWIDTH 34 0
BBX 28 42 3 -1
BITMAP
01030000
01F3C000
03FFC000
03FF8000
03FFE000
003FF000
000FF800
001FFC00
001E7E00
00063F00
00001F00
00000F80
003F8780
01FFE7C0
03FFF3C0
07FFFBE0
0FF0FFE0
1F801FE0
3F000FE0
3E0007F0
7C0003F0
7C0003F0
780001F0
F80001F0
F80001F0
F80000F0
F80000F0
F80000F0
F80001F0
F80001F0
F80001F0
780001E0
7C0003E0
7C0003E0
3E0007C0
3F000FC0
1F801F80
0FF0FF00
07FFFE00
03FFFC00
00FFF800
003FC000
ENDCHAR
STARTCHAR 00F1
ENCODING 241
SWIDTH 612 0
DWIDTH 34 0
BBX 24 40 5 0
BITMAP
007C00
00FE04
01FF0E
03FF1F
03EFBE
07C7FC
0387FC
0103F8
0001F0
000000
000000
003F80
F0FFF0
F1FFF8
F3FFFC
F7C1FE
F7007E
FE003F
FC001F
FC001F
F8000F
F8000F
F0000F
F0000F
F0000F
F0000F
F0000F
F0000F
F0000F
F0000F
F0000F
F0000F
F0000F
F0000F
F0000F
F0000F
F0000F
F0000F
F0000F
F0000F
ENDCHAR
STARTCHAR 00F2
ENCODING 242
SWIDTH 612 0
DWIDTH 34 0
BBX 28 40 3 -1
BITMAP
00F80000
00780000
007C0000
003C0000
001E0000
001F0000
000F0000
00000000
00000000
00000000
003FC000
00FFF800
03FFFC00
07FFFE00
0FF0FF00
1F801F80
3F000FC0
3E0007C0
7C0003E0
7C0003E0
780001F0
F80001F0
F80001F0
F80000F0
F80000F0
F80000F0
F80001F0
F80001F0
F80001F0
780001F0
7C0003E0
7C0003E0
3E0007E0
3F000FC0
1F801F80
0FF07F80
07FFFF00
03FFFC00
00FFF800
003FC000
ENDCHAR
STARTCHAR 00F3
ENCODING 243
SWIDTH 612 0
DWIDTH 34 0
BBX 28 40 3 -1
BITMAP
0000F800
0001F000
0001E000
0003E000
0003C000
00078000
000F8000
00000000
00000000
00000000
003FC000
00FFF800
03FFFC00
07FFFE00
0FF0FF00
1F801F80
3F000FC0
3E0007C0
7C0003E0
7C0003E0
780001F0
F80001F0
F80001F0
F80000F0
F80000F0
F80000F0
F80001F0
F80001F0
F80001F0
780001F0
7C0003E0
7C0003E0
3E0007E0
3F000FC0
1F801F80
0FF07F80
07FFFF00
03FFFC00
00FFF800
003FC000
ENDCHAR
STARTCHAR 00F4
ENCODING 244
SWIDTH 612 0
DWIDTH 34 0
BBX 28 40 3 -1
BITMAP
003FC000
003FC000
007DE000
00F9F000
00F0F000
01F07800
03E07C00
00000000
00000000
00000000
003FC000
00FFF800
03FFFC00
07FFFE00
0FF0FF00
1F801F80
3F000FC0
3E0007C0
7C0003E0
7C0003E0
780001F0
F80001F0
F80001F0
F80000F0
F80000F0
F80000F0
F80001F0
F80001F0
F80001F0
780001F0
7C0003E0
7C0003E0
3E0007E0
3F000FC0
1F801F80
0FF07F80
07FFFF00
03FFFC00
00FFF800
003FC000
ENDCHAR
STARTCHAR 00F5
ENCODING 245
SWIDTH 612 0
DWIDTH 34 0
BBX 28 41 3 -1
BITMAP
007C0000
00FE0C00
01FE0E00
03FF1F00
07CF3E00
0787FC00
0387F800
0103F000
0001E000
00000000
00000000
003FC000
00FFF800
03FFFC00
07FFFE00
0FF0FF00
1F801F80
3F000FC0
3E0007C0
7C0003E0
7C0003E0
780001F0
F80001F0
F80001F0
F80000F0
F80000F0
F80000F0
F80001F0
F80001F0
F80001F0
780001F0
7C0003E0
7C0003E0
3E0007E0
3F000FC0
1F801F80
0FF07F80
07FFFF00
03FFFC00
00FFF800
003FC000
ENDCHAR
STARTCHAR 00F6
ENCODING 246
SWIDTH 612 0
DWIDTH 34 0
BBX 28 42 3 -1
BITMAP
01C03C00
07F07E00
07F0FE00
07F0FF00
07F0FF00
07F0FE00
07F07E00
01C03C00
00000000
00000000
00000000
00000000
003FC000
00FFF800
03FFFC00
07FFFE00
0FF0FF00
1F801F80
3F000FC0
3E0007C0
7C0003E0
7C0003E0
780001F0
F80001F0
F80001F0
F80000F0
F80000F0
F80000F0
F80001F0
F80001F0
F80001F0
780001F0
7C0003E0
7C0003E0
3E0007E0
3F000FC0
1F801F80
0FF07F80
07FFFF00
03FFFC00
00FFF800
003FC000
ENDCHAR
STARTCHAR 00F7
ENCODING 247
SWIDTH 612 0
DWIDTH 34 0
BBX 24 27 5 6
BITMAP
003C00
007E00
00FF00
00FF00
00FF00
00FF00
007E00
003C00
000000
000000
000000
000000
FFFFFF
FFFFFF
FFFFFF
FFFFFF
000000
000000
000000
003C00
007E00
00FF00
00FF00
00FF00
00FF00
007E00
003C00
ENDCHAR
STARTCHAR 00F8
ENCODING 248
SWIDTH 612 0
DWIDTH 34 0
BBX 28 36 3 -4
BITMAP
00004000
00007C00
00007800
003FF800
00FFF800
03FFFC00
07FFFE00
0FF1FF00
1F81FF80
3F01EFC0
3E03E7E0
7C03C3E0
7C03C3E0
7807C1F0
F80781F0
F80781F0
F80F80F0
F80F80F0
F80F00F0
F81F00F0
F81F01F0
F81E01F0
781E01F0
7C3E01E0
7C3C03E0
3E3C07E0
3F7C0FC0
1FF81F80
0FF87F80
07FFFF00
03FFFC00
01FFF800
01FFC000
01E00000
01E00000
00600000
ENDCHAR
STARTCHAR 00F9
ENCODING 249
SWIDTH 612 0
DWIDTH 34 0
BBX 24 40 5 -1
BITMAP
07E000
03E000
01F000
00F000
00F800
007800
003C00
000000
000000
000000
000000
F0000F
F0000F
F0000F
F0000F
F0000F
F0000F
F0000F
F0000F
F0000F
F0000F
F0000F
F0000F
F0000F
F0000F
F0000F
F0000F
F0000F
F0001F
F0001F
F0001F
F0003F
F8003F
FC007F
7E00EF
7F83CF
3FFFCF
1FFF8F
0FFE0F
03F800
ENDCHAR
STARTCHAR 00FA
ENCODING 250
SWIDTH 612 0
DWIDTH 34 0
BBX 24 40 5 -1
BITMAP
0007E0
0007C0
000F80
000F00
001F00
001E00
003C00
000000
000000
000000
000000
F0000F
F0000F
F0000F
F0000F
F0000F
F0000F
F0000F
F0000F
F0000F
F0000F
F0000F
F0000F
F0000F
F0000F
F0000F
F0000F
F0000F
F0001F
F0001F
F0001F
F0003F
F8003F
FC007F
7E00EF
7F83CF
3FFFCF
1FFF8F
0FFE0F
03F800
ENDCHAR
STARTCHAR 00FB
ENCODING 251
SWIDTH 612 0
DWIDTH 34 0
BBX 24 40 5 -1
BITMAP
00FF00
01FF00
01EF80
03E7C0
03C3C0
0783E0
0F81F0
000000
000000
000000
000000
F0000F
F0000F
F0000F
F0000F
F0000F
F0000F
F0000F
F0000F
F0000F
F0000F
F0000F
F0000F
F0000F
F0000F
F0000F
F0000F
F0000F
F0001F
F0001F
F0001F
F0003F
F8003F
FC007F
7E00EF
7F83CF
3FFFCF
1FFF8F
0FFE0F
03F800
ENDCHAR
STARTCHAR 00FC
ENCODING 252
SWIDTH 612 0
DWIDTH 34 0
BBX 24 42 5 -1
BITMAP
0F01E0
1F83F0
1FC3F8
3FC3F8
3FC7F8
1FC3F8
1F83F0
0F00E0
000000
000000
000000
000000
000000
F0000F
F0000F
F0000F
F0000F
F0000F
F0000F
F0000F
F0000F
F0000F
F0000F
F0000F
F0000F
F0000F
F0000F
F0000F
F0000F
F0000F
F0001F
F0001F
F0001F
F0003F
F8003F
FC007F
7E00EF
7F83CF
3FFFCF
1FFF8F
0FFE0F
03F800
ENDCHAR
STARTCHAR 00FD
ENCODING 253
SWIDTH 612 0
DWIDTH 34 0
BBX 24 50 5 -11
BITMAP
0003E0
0007C0
000F80
000F00
001F00
001E00
003C00
000000
000000
000000
000000
F0000F
F0000F
F0000F
F0000F
F0000F
F0000F
F0000F
F0000F
F0000F
F0000F
F0000F
F0000F
F0000F
F0000F
F0000F
F0000F
F0000F
F0000F
F0000F
F8001F
F8001F
F8003F
7C007F
7E00EF
3F83EF
3FFFCF
1FFF8F
07FF0F
01FC0F
00000F
00000F
00000F
00000F
00000F
00001F
0FFFFF
0FFFFF
0FFFFE
0FFFFC
ENDCHAR
STARTCHAR 00FE
ENCODING 254
SWIDTH 612 0
DWIDTH 34 0
BBX 27 51 4 -11
BITMAP
F0000000
F0000000
F0000000
F0000000
F0000000
F0000000
F0000000
F0000000
F0000000
F0000000
F0000000
F01FC000
F07FF000
F1FFFC00
F3FFFE00
F7E0FF00
FF803F80
FF000F80
FE0007C0
FC0007C0
F80003E0
F80003E0
F80003E0
F00001E0
F00001E0
F00001E0
F00001E0
F00001E0
F00001E0
F80003E0
F80003E0
F80003E0
FC0007C0
FE0007C0
FF000F80
F7803F80
F3E0FF00
F1FFFE00
F0FFFC00
F07FF800
F01FC000
F0000000
F0000000
F0000000
F0000000
F0000000
F0000000
F0000000
F0000000
F0000000
F0000000
ENDCHAR
STARTCHAR 00FF
ENCODING 255
SWIDTH 612 0
DWIDTH 34 0
BBX 24 52 5 -11
BITMAP
0700F0
1FC1F8
1FC3F8
1FC3FC
1FC3FC
1FC3F8
1FC1F8
0700F0
000000
000000
000000
000000
000000
F0000F
F0000F
F0000F
F0000F
F0000F
F0000F
F0000F
F0000F
F0000F
F0000F
F0000F
F0000F
F0000F
F0000F
F0000F
F0000F
F0000F
F0000F
F0000F
F8001F
F8001F
F8003F
7C007F
7E00EF
3F83EF
3FFFCF
1FFF8F
07FF0F
01FC0F
00000F
00000F
00000F
00000F
00000F
00001F
0FFFFF
0FFFFF
0FFFFE
0FFFFC
ENDCHAR
STARTCHAR 0100
ENCODING 256
SWIDTH 612 0
DWIDTH 34 0
BBX 32 47 1 0
BITMAP
00FFFF00
00FFFF00
00FFFF00
00FFFF00
00000000
00000000
00000000
000FF800
001FF800
001F7800
001E7C00
003E7C00
003E7C00
003E3E00
007C3E00
007C3E00
007C1E00
00781F00
00F81F00
00F81F00
00F80F80
01F00F80
01F00F80
01F00780
01E007C0
03E007C0
03E007C0
03E003E0
07C003E0
07C003E0
07C001F0
0F8001F0
0F8001F0
0FFFFFF0
0FFFFFF8
1FFFFFF8
1FFFFFF8
1F00007C
3E00007C
3E00007C
3E00003E
7C00003E
7C00003E
7C00003E
7C00001F
F800001F
F800001F
ENDCHAR
STARTCHAR 0101
ENCODING 257
SWIDTH 612 0
DWIDTH 34 0
BBX 29 37 3 -1
BITMAP
07FFF000
07FFF000
07FFF000
07FFF000
00000000
00000000
00000000
007F0000
03FFC3C0
07FFE3C0
0FFFF3C0
1FE1FBC0
3F803FC0
7E001FC0
7C000FC0
7C000FC0
F80007C0
F80007C0
F00003C0
F00003C0
F00003C0
F00003C0
F00003C0
F00003C0
F00003C0
F00003C0
F80007C0
F80007C0
78000FC0
7C000FC0
7E001FC0
3F003BE0
1FE1FBF8
0FFFF3F8
07FFE1F8
03FFC0F8
007F0000
ENDCHAR
STARTCHAR 0102
ENCODING 258
SWIDTH 612 0
DWIDTH 34 0
BBX 32 50 1 0
BITMAP
003C3C00
003C3C00
003E7C00
001FFC00
001FF800
000FF000
0007E000
00000000
00000000
00000000
000FF800
001FF800
001F7800
001E7C00
003E7C00
003E7C00
003E3E00
007C3E00
007C3E00
007C1E00
00781F00
00F81F00
00F81F00
00F80F80
01F00F80
01F00F80
01F00780
01E007C0
03E007C0
03E007C0
03E003E0
07C003E0
07C003E0
07C001F0
0F8001F0
0F8001F0
0FFFFFF0
0FFFFFF8
1FFFFFF8
1FFFFFF8
1F00007C
3E00007C
3E00007C
3E00003E
7C00003E
7C00003E
7C00003E
7C00001F
F800001F
F800001F
ENDCHAR
STARTCHAR 0103
ENCODING 259
SWIDTH 612 0
DWIDTH 34 0
BBX 29 40 3 -1
BITMAP
01C1E000
01C1E000
01E3C000
01FFC000
01FFC000
00FF8000
003E0000
00000000
00000000
00000000
007F0000
03FFC3C0
07FFE3C0
0FFFF3C0
1FE1FBC0
3F803FC0
7E001FC0
7C000FC0
7C000FC0
F80007C0
F80007C0
F00003C0
F00003C0
F00003C0
F00003C0
F00003C0
F00003C0
F00003C0
F00003C0
F80007C0
F80007C0
78000FC0
7C000FC0
7E001FC0
3F003BE0
1FE1FBF8
0FFFF3F8
07FFE1F8
03FFC0F8
007F0000
ENDCHAR
STARTCHAR 0104
ENCODING 260
SWIDTH 612 0
DWIDTH 34 0
BBX 34 49 1 -9
BITMAP
000FF80000
001FF80000
001F780000
001E7C0000
003E7C0000
003E7C0000
003E3E0000
007C3E0000
007C3E0000
007C1E0000
00781F0000
00F81F0000
00F81F0000
00F80F8000
01F00F8000
01F00F8000
01F0078000
01E007C000
03E007C000
03E007C000
03E003E000
07C003E000
07C003E000
07C001F000
0F8001F000
0F8001F000
0FFFFFF000
0FFFFFF800
1FFFFFF800
1FFFFFF800
1F00007C00
3E00007C00
3E00007C00
3E00003E00
7C00003E00
7C00003E00
7C00003E00
7C00001F00
F800001F00
F800001F00
0000001E00
0000001E00
0000001E00
0000001C00
0000003E00
0000003FC0
0000001FC0
0000001FC0
00000007C0
ENDCHAR
STARTCHAR 0105
ENCODING 261
SWIDTH 612 0
DWIDTH 34 0
BBX 29 39 3 -10
BITMAP
007F0000
03FFC3C0
07FFE3C0
0FFFF3C0
1FE1FBC0
3F803FC0
7E001FC0
7C000FC0
7C000FC0
F80007C0
F80007C0
F00003C0
F00003C0
F00003C0
F00003C0
F00003C0
F00003C0
F00003C0
F00003C0
F80007C0
F80007C0
78000FC0
7C000FC0
7E001FC0
3F003BE0
1FE1FBF8
0FFFF3F8
07FFE1F8
03FFC1F8
007F01E0
000003C0
000003C0
000003C0
000003C0
000003C0
000003F8
000003F8
000001F8
000000F8
ENDCHAR
STARTCHAR 0106
ENCODING 262
SWIDTH 612 0
DWIDTH 34 0
BBX 27 51 4 -1
BITMAP
0001F000
0003E000
0003E000
0007C000
00078000
000F0000
001F0000
00000000
00000000
007F8000
01FFF000
07FFFC00
0FFFFE00
1FE0FF00
3F803F80
3F001F80
7E000FC0
7C0007C0
FC0007C0
F80003E0
F80003E0
F80003E0
F00003E0
F00003E0
F0000000
F0000000
F0000000
F0000000
F0000000
F0000000
F0000000
F0000000
F0000000
F0000000
F0000000
F0000000
F00003E0
F00003E0
F80003E0
F80003E0
F80003E0
F80007C0
7C0007C0
7E000FC0
3E000F80
3F803F80
1FE0FF00
0FFFFE00
07FFFC00
01FFF000
007F8000
ENDCHAR
STARTCHAR 0107
ENCODING 263
SWIDTH 612 0
DWIDTH 34 0
BBX 28 40 3 -1
BITMAP
0000F800
0000F000
0001F000
0001E000
0003C000
0003C000
00078000
00000000
00000000
00000000
001FE000
00FFF800
03FFFE00
07FFFF00
0FF07F80
1FC01FC0
3F0007C0
3E0003E0
7E0003E0
7C0001E0
7C0001F0
780001C0
F8000000
F8000000
F8000000
F8000000
F8000000
F8000000
78000180
780001F0
7C0001F0
7C0003E0
3E0003E0
3F0007C0
1FC01FC0
0FF07F80
07FFFF00
03FFFE00
00FFF800
001FE000
ENDCHAR
STARTCHAR 0108
ENCODING 264
SWIDTH 612 0
DWIDTH 34 0
BBX 27 51 4 -1
BITMAP
003F8000
007FC000
00FBC000
00F1E000
01F1F000
03E0F000
07C0F800
00000000
00000000
007F8000
01FFF000
07FFFC00
0FFFFE00
1FE0FF00
3F803F80
3F001F80
7E000FC0
7C0007C0
FC0007C0
F80003E0
F80003E0
F80003E0
F00003E0
F00003E0
F0000000
F0000000
F0000000
F0000000
F0000000
F0000000
F0000000
F0000000
F0000000
F0000000
F0000000
F0000000
F00003E0
F00003E0
F80003E0
F80003E0
F80003E0
F80007C0
7C0007C0
7E000FC0
3E000F80
3F803F80
1FE0FF00
0FFFFE00
07FFFC00
01FFF000
007F8000
ENDCHAR
STARTCHAR 0109
ENCODING 265
SWIDTH 612 0
DWIDTH 34 0
BBX 28 40 3 -1
BITMAP
001FC000
003FE000
007DE000
0078F000
00F8F800
01F07800
03E07C00
00000000
00000000
00000000
001FE000
00FFF800
03FFFE00
07FFFF00
0FF07F80
1FC01FC0
3F0007C0
3E0003E0
7E0003E0
7C0001E0
7C0001F0
780001C0
F8000000
F8000000
F8000000
F8000000
F8000000
F8000000
78000180
780001F0
7C0001F0
7C0003E0
3E0003E0
3F0007C0
1FC01FC0
0FF07F80
07FFFF00
03FFFE00
00FFF800
001FE000
ENDCHAR
STARTCHAR 010A
ENCODING 266
SWIDTH 612 0
DWIDTH 34 0
BBX 27 53 4 -1
BITMAP
001E0000
003F0000
003F8000
007F8000
007F8000
003F8000
003F0000
001E0000
00000000
00000000
00000000
007F8000
01FFF000
07FFFC00
0FFFFE00
1FE0FF00
3F803F80
3F001F80
7E000FC0
7C0007C0
FC0007C0
F80003E0
F80003E0
F80003E0
F00003E0
F00003E0
F0000000
F0000000
F0000000
F0000000
F0000000
F0000000
F0000000
F0000000
F0000000
F0000000
F0000000
F0000000
F00003E0
F00003E0
F80003E0
F80003E0
F80003E0
F80007C0
7C0007C0
7E000FC0
3E000F80
3F803F80
1FE0FF00
0FFFFE00
07FFFC00
01FFF000
007F8000
ENDCHAR
STARTCHAR 010B
ENCODING 267
SWIDTH 612 0
DWIDTH 34 0
BBX 28 42 3 -1
BITMAP
000F0000
001F8000
001FC000
003FC000
003FC000
001FC000
001F8000
000F0000
00000000
00000000
00000000
00000000
001FE000
00FFF800
03FFFE00
07FFFF00
0FF07F80
1FC01FC0
3F0007C0
3E0003E0
7E0003E0
7C0001E0
7C0001F0
780001C0
F8000000
F8000000
F8000000
F8000000
F8000000
F8000000
78000180
780001F0
7C0001F0
7C0003E0
3E0003E0
3F0007C0
1FC01FC0
0FF07F80
07FFFF00
03FFFE00
00FFF800
001FE000
ENDCHAR
STARTCHAR 010C
ENCODING 268
SWIDTH 612 0
DWIDTH 34 0
BBX 27 51 4 -1
BITMAP
07C07800
03E0F800
01E1F000
01F1E000
00FBE000
007FC000
003F8000
00000000
00000000
007F8000
01FFF000
07FFFC00
0FFFFE00
1FE0FF00
3F803F80
3F001F80
7E000FC0
7C0007C0
FC0007C0
F80003E0
F80003E0
F80003E0
F00003E0
F00003E0
F0000000
F0000000
F0000000
F0000000
F0000000
F0000000
F0000000
F0000000
F0000000
F0000000
F0000000
F0000000
F00003E0
F00003E0
F80003E0
F80003E0
F80003E0
F80007C0
7C0007C0
7E000FC0
3E000F80
3F803F80
1FE0FF00
0FFFFE00
07FFFC00
01FFF000
007F8000
ENDCHAR
STARTCHAR 010D
ENCODING 269
SWIDTH 612 0
DWIDTH 34 0
BBX 28 40 3 -1
BITMAP
03E03C00
01F07C00
00F0F800
00F8F000
007DF000
003FE000
003FC000
00000000
00000000
00000000
001FE000
00FFF800
03FFFE00
07FFFF00
0FF07F80
1FC01FC0
3F0007C0
3E0003E0
7E0003E0
7C0001E0
7C0001F0
780001C0
F8000000
F8000000
F8000000
F8000000
F8000000
F8000000
78000180
780001F0
7C0001F0
7C0003E0
3E0003E0
3F0007C0
1FC01FC0
0FF07F80
07FFFF00
03FFFE00
00FFF800
001FE000
ENDCHAR
STARTCHAR 010E
ENCODING 270
SWIDTH 612 0
DWIDTH 34 0
BBX 27 50 4 0
BITMAP
07C0F800
03E0F000
01E1F000
01F1E000
00F3C000
007FC000
007F8000
00000000
00000000
00000000
FFFFC000
FFFFF800
FFFFFC00
FFFFFF00
1F00FF00
1F001F80
1F000FC0
1F0007C0
1F0007C0
1F0003C0
1F0003E0
1F0003E0
1F0003E0
1F0003E0
1F0003E0
1F0003E0
1F0003E0
1F0003E0
1F0003E0
1F0003E0
1F0003E0
1F0003E0
1F0003E0
1F0003E0
1F0003E0
1F0003E0
1F0003E0
1F0003E0
1F0003E0
1F0003E0
1F0003C0
1F0007C0
1F0007C0
1F000FC0
1F001F80
1F00FF00
FFFFFF00
FFFFFC00
FFFFF800
FFFFC000
ENDCHAR
STARTCHAR 010F
ENCODING 271
SWIDTH 612 0
DWIDTH 34 0
BBX 32 41 1 -1
BITMAP
00003C3C
00003C7E
00003C7F
00003CFF
00003CFF
00003C7F
00003C7F
00003C3F
00003C07
00003C07
00003C07
00FC3C7F
03FE3C7E
0FFF3C7C
1FFFBC00
1FC7FC00
3F01FC00
3E00FC00
7C007C00
7C007C00
78007C00
78003C00
F8003C00
F8003C00
F8003C00
F8003C00
F8003C00
F8003C00
F8003C00
F8003C00
78003C00
78007C00
7C007C00
7C007C00
3E00FC00
3F01FC00
1F87FC00
1FFFBC00
0FFFBC00
03FF3C00
00FC0000
ENDCHAR
STARTCHAR 0110
ENCODING 272
SWIDTH 612 0
DWIDTH 34 0
BBX 27 40 4 0
BITMAP
FFFFC000
FFFFF800
FFFFFC00
FFFFFF00
1F00FF00
1F001F80
1F000FC0
1F0007C0
1F0007C0
1F0003C0
1F0003E0
1F0003E0
1F0003E0
1F0003E0
1F0003E0
1F0003E0
1F0003E0
1F0003E0
FFFC03E0
FFFC03E0
FFFC03E0
FFFC03E0
1F0003E0
1F0003E0
1F0003E0
1F0003E0
1F0003E0
1F0003E0
1F0003E0
1F0003E0
1F0003C0
1F0007C0
1F0007C0
1F000FC0
1F001F80
1F00FF00
FFFFFF00
FFFFFC00
FFFFF800
FFFFC000
ENDCHAR
STARTCHAR 0111
ENCODING 273
SWIDTH 612 0
DWIDTH 34 0
BBX 31 41 3 -1
BITMAP
000001F0
000001F0
000001F0
000001F0
0003FFFE
0003FFFE
0003FFFE
0003FFFE
000001F0
000001F0
000001F0
003F81F0
01FFE1F0
03FFF1F0
07FFF9F0
0FF0FDF0
1F801DF0
3F000FF0
3E0007F0
7C0003F0
7C0003F0
780001F0
780001F0
F80001F0
F80001F0
F80001F0
F80001F0
F80001F0
F80001F0
780001F0
780001F0
7C0003F0
7C0003F0
3E0007F0
3F000FF0
1F801FF0
0FF0FDF0
0FFFFDF0
03FFF9F0
01FFE1F0
003F8000
ENDCHAR
STARTCHAR 0112
ENCODING 274
SWIDTH 612 0
DWIDTH 34 0
BBX 24 47 5 0
BITMAP
07FFF8
07FFF8
07FFF8
07FFF8
000000
000000
000000
FFFFFF
FFFFFF
FFFFFF
FFFFFF
F80000
F80000
F80000
F80000
F80000
F80000
F80000
F80000
F80000
F80000
F80000
F80000
F80000
F80000
FFFFFF
FFFFFF
FFFFFF
FFFFFF
F80000
F80000
F80000
F80000
F80000
F80000
F80000
F80000
F80000
F80000
F80000
F80000
F80000
F80000
FFFFFF
FFFFFF
FFFFFF
FFFFFF
ENDCHAR
STARTCHAR 0113
ENCODING 275
SWIDTH 612 0
DWIDTH 34 0
BBX 26 37 4 -1
BITMAP
07FFF800
07FFF800
07FFF800
07FFF800
00000000
00000000
00000000
003F8000
01FFF000
07FFF800
0FFFFC00
1FE0FE00
3F003F00
3E001F80
7C000F80
780007C0
F80003C0
F80003C0
F00003C0
FFFFFFC0
FFFFFFC0
FFFFFFC0
FFFFFFC0
F0000000
F0000000
F0000000
F8000000
F8000300
780007C0
7C0007C0
3E000F80
3F001F80
1FE0FF00
0FFFFE00
07FFFC00
01FFF000
007F8000
ENDCHAR
STARTCHAR 0114
ENCODING 276
SWIDTH 612 0
DWIDTH 34 0
BBX 24 50 5 0
BITMAP
03C3C0
03C3C0
03E3C0
01FFC0
01FF80
00FF80
003E00
000000
000000
000000
FFFFFF
FFFFFF
FFFFFF
FFFFFF
F80000
F80000
F80000
F80000
F80000
F80000
F80000
F80000
F80000
F80000
F80000
F80000
F80000
F80000
FFFFFF
FFFFFF
FFFFFF
FFFFFF
F80000
F80000
F80000
F80000
F80000
F80000
F80000
F80000
F80000
F80000
F80000
F80000
F80000
F80000
FFFFFF
FFFFFF
FFFFFF
FFFFFF
ENDCHAR
STARTCHAR 0115
ENCODING 277
SWIDTH 612 0
DWIDTH 34 0
BBX 26 40 4 -1
BITMAP
01E1E000
01E1E000
01F1E000
00FFE000
00FFC000
007FC000
001F0000
00000000
00000000
00000000
003F8000
01FFF000
07FFF800
0FFFFC00
1FE0FE00
3F003F00
3E001F80
7C000F80
780007C0
F80003C0
F80003C0
F00003C0
FFFFFFC0
FFFFFFC0
FFFFFFC0
FFFFFFC0
F0000000
F0000000
F0000000
F8000000
F8000300
780007C0
7C0007C0
3E000F80
3F001F80
1FE0FF00
0FFFFE00
07FFFC00
01FFF000
007F8000
ENDCHAR
STARTCHAR 0116
ENCODING 278
SWIDTH 612 0
DWIDTH 34 0
BBX 24 52 5 0
BITMAP
003C00
007E00
007F00
00FF00
00FF00
007F00
007E00
003C00
000000
000000
000000
000000
FFFFFF
FFFFFF
FFFFFF
FFFFFF
F80000
F80000
F80000
F80000
F80000
F80000
F80000
F80000
F80000
F80000
F80000
F80000
F80000
F80000
FFFFFF
FFFFFF
FFFFFF
FFFFFF
F80000
F80000
F80000
F80000
F80000
F80000
F80000
F80000
F80000
F80000
F80000
F80000
F80000
F80000
FFFFFF
FFFFFF
FFFFFF
FFFFFF
ENDCHAR
STARTCHAR 0117
ENCODING 279
SWIDTH 612 0
DWIDTH 34 0
BBX 26 42 4 -1
BITMAP
001E0000
003F0000
003F8000
007F8000
007F8000
003F8000
003F0000
001E0000
00000000
00000000
00000000
00000000
003F8000
01FFF000
07FFF800
0FFFFC00
1FE0FE00
3F003F00
3E001F80
7C000F80
780007C0
F80003C0
F80003C0
F00003C0
FFFFFFC0
FFFFFFC0
FFFFFFC0
FFFFFFC0
F0000000
F0000000
F0000000
F8000000
F8000300
780007C0
7C0007C0
3E000F80
3F001F80
1FE0FF00
0FFFFE00
07FFFC00
01FFF000
007F8000
ENDCHAR
STARTCHAR 0118
ENCODING 280
SWIDTH 612 0
DWIDTH 34 0
BBX 27 49 5 -9
BITMAP
FFFFFF00
FFFFFF00
FFFFFF00
FFFFFF00
F8000000
F8000000
F8000000
F8000000
F8000000
F8000000
F8000000
F8000000
F8000000
F8000000
F8000000
F8000000
F8000000
F8000000
FFFFFF00
FFFFFF00
FFFFFF00
FFFFFF00
F8000000
F8000000
F8000000
F8000000
F8000000
F8000000
F8000000
F8000000
F8000000
F8000000
F8000000
F8000000
F8000000
F8000000
FFFFFF00
FFFFFF00
FFFFFF00
FFFFFF00
00000F00
00000F00
00000F00
00000E00
00000F00
00000FE0
00000FE0
00000FE0
000003E0
ENDCHAR
STARTCHAR 0119
ENCODING 281
SWIDTH 612 0
DWIDTH 34 0
BBX 26 38 4 -9
BITMAP
003F8000
01FFF000
07FFF800
0FFFFC00
1FE1FE00
3F003F00
3E001F80
7C000F80
780007C0
F80007C0
F00003C0
F00003C0
FFFFFFC0
FFFFFFC0
FFFFFFC0
FFFFFFC0
F0000000
F0000000
F0000000
F8000000
78000380
7C0007C0
7C000F80
3E001F80
1F807F00
0FFFFE00
07FFFC00
03FFF800
00FFC000
001E0000
001E0000
001C0000
003C0000
003E0000
003FC000
001FC000
001FC000
0007C000
ENDCHAR
STARTCHAR 011A
ENCODING 282
SWIDTH 612 0
DWIDTH 34 0
BBX 24 50 5 0
BITMAP
0F80F0
07C1F0
03C3E0
03E3C0
01F7C0
00FF80
00FF00
000000
000000
000000
FFFFFF
FFFFFF
FFFFFF
FFFFFF
F80000
F80000
F80000
F80000
F80000
F80000
F80000
F80000
F80000
F80000
F80000
F80000
F80000
F80000
FFFFFF
FFFFFF
FFFFFF
FFFFFF
F80000
F80000
F80000
F80000
F80000
F80000
F80000
F80000
F80000
F80000
F80000
F80000
F80000
F80000
FFFFFF
FFFFFF
FFFFFF
FFFFFF
ENDCHAR
STARTCHAR 011B
ENCODING 283
SWIDTH 612 0
DWIDTH 34 0
BBX 26 40 4 -1
BITMAP
07C07800
03E0F800
01E1F000
01F1E000
00FBE000
007FC000
007F8000
00000000
00000000
00000000
003F8000
01FFF000
07FFF800
0FFFFC00
1FE0FE00
3F003F00
3E001F80
7C000F80
780007C0
F80003C0
F80003C0
F00003C0
FFFFFFC0
FFFFFFC0
FFFFFFC0
FFFFFFC0
F0000000
F0000000
F0000000
F8000000
F8000300
780007C0
7C0007C0
3E000F80
3F001F80
1FE0FF00
0FFFFE00
07FFFC00
01FFF000
007F8000
ENDCHAR
STARTCHAR 011C
ENCODING 284
SWIDTH 612 0
DWIDTH 34 0
BBX 28 51 3 -1
BITMAP
003FC000
003FC000
007DE000
00F9F000
00F0F000
01F07800
03E07C00
00000000
00000000
003FC000
01FFF800
03FFFC00
07FFFF00
0FF07F80
1F801F80
3F000FC0
3E0007C0
3E0003E0
7C0003E0
7C0001E0
7C0001F0
780001F0
F80001F0
F80001F0
F8000000
F8000000
F8000000
F8000000
F8000000
F8000000
F8000000
F83FFFF0
F83FFFF0
F83FFFF0
F83FFFF0
F80001F0
F80001F0
F80001F0
780001F0
7C0001F0
7C0001F0
7C0003F0
7E0003F0
3E0007F0
3F000FF0
1F801FF0
0FF07DF0
07FFFDF0
03FFF9F0
01FFE1F0
003F8000
ENDCHAR
STARTCHAR 011D
ENCODING 285
SWIDTH 612 0
DWIDTH 34 0
BBX 27 50 3 -11
BITMAP
007F8000
007FC000
00FBC000
01F3E000
01E1F000
03E0F000
07C0F800
00000000
00000000
00000000
003F8000
01FFE1E0
03FFF1E0
0FFFF9E0
1FE0FDE0
1F803FE0
3F000FE0
7E0007E0
7C0007E0
780003E0
F80003E0
F80001E0
F80001E0
F00001E0
F00001E0
F00001E0
F00001E0
F80001E0
F80001E0
F80003E0
780003E0
7C0007E0
7E0007E0
3F000FE0
3F803DE0
1FE0FDE0
0FFFF9E0
07FFF1E0
01FFE1E0
003F81E0
000001E0
000001E0
000001E0
000001E0
000001E0
000003E0
07FFFFE0
07FFFFE0
07FFFFC0
07FFFF80
ENDCHAR
STARTCHAR 011E
ENCODING 286
SWIDTH 612 0
DWIDTH 34 0
BBX 28 51 3 -1
BITMAP
00F0F000
00F0F000
00F9F000
007FF000
007FE000
003FC000
001F8000
00000000
00000000
003FC000
01FFF800
03FFFC00
07FFFF00
0FF07F80
1F801F80
3F000FC0
3E0007C0
3E0003E0
7C0003E0
7C0001E0
7C0001F0
780001F0
F80001F0
F80001F0
F8000000
F8000000
F8000000
F8000000
F8000000
F8000000
F8000000
F83FFFF0
F83FFFF0
F83FFFF0
F83FFFF0
F80001F0
F80001F0
F80001F0
780001F0
7C0001F0
7C0001F0
7C0003F0
7E0003F0
3E0007F0
3F000FF0
1F801FF0
0FF07DF0
07FFFDF0
03FFF9F0
01FFE1F0
003F8000
ENDCHAR
STARTCHAR 011F
ENCODING 287
SWIDTH 612 0
DWIDTH 34 0
BBX 27 50 3 -11
BITMAP
01E0F000
01E0F000
00F1E000
00FFE000
00FFE000
007FC000
001F0000
00000000
00000000
00000000
003F8000
01FFE1E0
03FFF1E0
0FFFF9E0
1FE0FDE0
1F803FE0
3F000FE0
7E0007E0
7C0007E0
780003E0
F80003E0
F80001E0
F80001E0
F00001E0
F00001E0
F00001E0
F00001E0
F80001E0
F80001E0
F80003E0
780003E0
7C0007E0
7E0007E0
3F000FE0
3F803DE0
1FE0FDE0
0FFFF9E0
07FFF1E0
01FFE1E0
003F81E0
000001E0
000001E0
000001E0
000001E0
000001E0
000003E0
07FFFFE0
07FFFFE0
07FFFFC0
07FFFF80
ENDCHAR
STARTCHAR 0120
ENCODING 288
SWIDTH 612 0
DWIDTH 34 0
BBX 28 53 3 -1
BITMAP
000F0000
001F8000
003FC000
003FC000
003FC000
003FC000
001F8000
000F0000
00000000
00000000
00000000
003FC000
01FFF800
03FFFC00
07FFFF00
0FF07F80
1F801F80
3F000FC0
3E0007C0
3E0003E0
7C0003E0
7C0001E0
7C0001F0
780001F0
F80001F0
F80001F0
F8000000
F8000000
F8000000
F8000000
F8000000
F8000000
F8000000
F83FFFF0
F83FFFF0
F83FFFF0
F83FFFF0
F80001F0
F80001F0
F80001F0
780001F0
7C0001F0
7C0001F0
7C0003F0
7E0003F0
3E0007F0
3F000FF0
1F801FF0
0FF07DF0
07FFFDF0
03FFF9F0
01FFE1F0
003F8000
ENDCHAR
STARTCHAR 0121
ENCODING 289
SWIDTH 612 0
DWIDTH 34 0
BBX 27 52 3 -11
BITMAP
000E0000
003F8000
003F8000
003F8000
003F8000
003F8000
003F8000
000E0000
00000000
00000000
00000000
00000000
003F8000
01FFE1E0
03FFF1E0
0FFFF9E0
1FE0FDE0
1F803FE0
3F000FE0
7E0007E0
7C0007E0
780003E0
F80003E0
F80001E0
F80001E0
F00001E0
F00001E0
F00001E0
F00001E0
F80001E0
F80001E0
F80003E0
780003E0
7C0007E0
7E0007E0
3F000FE0
3F803DE0
1FE0FDE0
0FFFF9E0
07FFF1E0
01FFE1E0
003F81E0
000001E0
000001E0
000001E0
000001E0
000001E0
000003E0
07FFFFE0
07FFFFE0
07FFFFC0
07FFFF80
ENDCHAR
STARTCHAR 0122
ENCODING 290
SWIDTH 612 0
DWIDTH 34 0
BBX 28 57 3 -16
BITMAP
003FC000
01FFF800
03FFFC00
07FFFF00
0FF07F80
1F801F80
3F000FC0
3E0007C0
3E0003E0
7C0003E0
7C0001E0
7C0001F0
780001F0
F80001F0
F80001F0
F8000000
F8000000
F8000000
F8000000
F8000000
F8000000
F8000000
F83FFFF0
F83FFFF0
F83FFFF0
F83FFFF0
F80001F0
F80001F0
F80001F0
780001F0
7C0001F0
7C0001F0
7C0003F0
7E0003F0
3E0007F0
3F000FF0
1F801FF0
0FF07DF0
07FFFDF0
03FFF9F0
01FFE1F0
003F8000
00000000
000F0000
001F8000
003FC000
003FC000
003FC000
003FC000
001FC000
000FC000
0001C000
0001C000
0003C000
001F8000
001F8000
001F0000
ENDCHAR
STARTCHAR 0123
ENCODING 291
SWIDTH 612 0
DWIDTH 34 0
BBX 27 58 3 -11
BITMAP
000F8000
001F8000
003F8000
00380000
00380000
00380000
003E0000
003F8000
003F8000
003F8000
003F8000
003F8000
003F8000
000E0000
00000000
00000000
00000000
00000000
003F8000
01FFE1E0
03FFF1E0
0FFFF9E0
1FE0FDE0
1F803FE0
3F000FE0
7E0007E0
7C0007E0
780003E0
F80003E0
F80001E0
F80001E0
F00001E0
F00001E0
F00001E0
F00001E0
F80001E0
F80001E0
F80003E0
780003E0
7C0007E0
7E0007E0
3F000FE0
3F803DE0
1FE0FDE0
0FFFF9E0
07FFF1E0
01FFE1E0
003F81E0
000001E0
000001E0
000001E0
000001E0
000001E0
000003E0
07FFFFE0
07FFFFE0
07FFFFC0
07FFFF80
ENDCHAR
STARTCHAR 0124
ENCODING 292
SWIDTH 612 0
DWIDTH 34 0
BBX 26 50 4 0
BITMAP
007F8000
007F8000
00FBC000
01F3E000
01E1E000
03E0F000
07C0F800
00000000
00000000
00000000
F80007C0
F80007C0
F80007C0
F80007C0
F80007C0
F80007C0
F80007C0
F80007C0
F80007C0
F80007C0
F80007C0
F80007C0
F80007C0
F80007C0
F80007C0
F80007C0
F80007C0
F80007C0
FFFFFFC0
FFFFFFC0
FFFFFFC0
FFFFFFC0
F80007C0
F80007C0
F80007C0
F80007C0
F80007C0
F80007C0
F80007C0
F80007C0
F80007C0
F80007C0
F80007C0
F80007C0
F80007C0
F80007C0
F80007C0
F80007C0
F80007C0
F80007C0
ENDCHAR
STARTCHAR 0125
ENCODING 293
SWIDTH 612 0
DWIDTH 34 0
BBX 24 50 5 0
BITMAP
0FF000
1FF000
1EF800
3E7C00
7C3C00
783E00
F81F00
000000
000000
000000
F00000
F00000
F00000
F00000
F00000
F00000
F00000
F00000
F00000
F00000
F00000
F01FC0
F07FF0
F1FFF8
F3FFFC
F3C1FE
F7007E
FE003F
FC001F
FC001F
F8000F
F8000F
F0000F
F0000F
F0000F
F0000F
F0000F
F0000F
F0000F
F0000F
F0000F
F0000F
F0000F
F0000F
F0000F
F0000F
F0000F
F0000F
F0000F
F0000F
ENDCHAR
STARTCHAR 0126
ENCODING 294
SWIDTH 612 0
DWIDTH 34 0
BBX 33 40 1 0
BITMAP
1F0000F800
1F0000F800
1F0000F800
1F0000F800
1F0000F800
1F0000F800
1F0000F800
1F0000F800
FFFFFFFF80
FFFFFFFF80
FFFFFFFF80
FFFFFFFF80
1F0000F800
1F0000F800
1F0000F800
1F0000F800
1F0000F800
1F0000F800
1FFFFFF800
1FFFFFF800
1FFFFFF800
1FFFFFF800
1F0000F800
1F0000F800
1F0000F800
1F0000F800
1F0000F800
1F0000F800
1F0000F800
1F0000F800
1F0000F800
1F0000F800
1F0000F800
1F0000F800
1F0000F800
1F0000F800
1F0000F800
1F0000F800
1F0000F800
1F0000F800
ENDCHAR
STARTCHAR 0127
ENCODING 295
SWIDTH 612 0
DWIDTH 34 0
BBX 27 40 2 0
BITMAP
1E000000
1E000000
1E000000
1E000000
FFFF8000
FFFF8000
FFFF8000
FFFF8000
1E000000
1E000000
1E000000
1E03F800
1E0FFE00
1E3FFF00
1E7FFF80
1E783FC0
1EE00FC0
1FC007E0
1F8003E0
1F8003E0
1F0001E0
1F0001E0
1E0001E0
1E0001E0
1E0001E0
1E0001E0
1E0001E0
1E0001E0
1E0001E0
1E0001E0
1E0001E0
1E0001E0
1E0001E0
1E0001E0
1E0001E0
1E0001E0
1E0001E0
1E0001E0
1E0001E0
1E0001E0
ENDCHAR
STARTCHAR 0128
ENCODING 296
SWIDTH 612 0
DWIDTH 34 0
BBX 25 52 5 0
BITMAP
01F00000
03F83000
07F83800
0FFC7C00
1F3CF800
1E1FF000
0E1FE000
040FC000
00078000
00000000
00000000
00000000
FFFFFF80
FFFFFF80
FFFFFF80
FFFFFF80
003C0000
003C0000
003C0000
003C0000
003C0000
003C0000
003C0000
003C0000
003C0000
003C0000
003C0000
003C0000
003C0000
003C0000
003C0000
003C0000
003C0000
003C0000
003C0000
003C0000
003C0000
003C0000
003C0000
003C0000
003C0000
003C0000
003C0000
003C0000
003C0000
003C0000
003C0000
003C0000
FFFFFF80
FFFFFF80
FFFFFF80
FFFFFF80
ENDCHAR
STARTCHAR 0129
ENCODING 297
SWIDTH 612 0
DWIDTH 34 0
BBX 24 40 5 0
BITMAP
07C000
0FC0C0
1FE1E0
3FF1F0
7CF3E0
F8FFC0
307F80
103F00
001E00
000000
000000
000000
3FFE00
3FFE00
3FFE00
3FFE00
003E00
003E00
003E00
003E00
003E00
003E00
003E00
003E00
003E00
003E00
003E00
003E00
003E00
003E00
003E00
003E00
003E00
003E00
003E00
003E00
7FFFFF
7FFFFF
7FFFFF
7FFFFF
ENDCHAR
STARTCHAR 012A
ENCODING 298
SWIDTH 612 0
DWIDTH 34 0
BBX 25 47 5 0
BITMAP
0FFFF000
0FFFF000
0FFFF000
0FFFF000
00000000
00000000
00000000
FFFFFF80
FFFFFF80
FFFFFF80
FFFFFF80
003C0000
003C0000
003C0000
003C0000
003C0000
003C0000
003C0000
003C0000
003C0000
003C0000
003C0000
003C0000
003C0000
003C0000
003C0000
003C0000
003C0000
003C0000
003C0000
003C0000
003C0000
003C0000
003C0000
003C0000
003C0000
003C0000
003C0000
003C0000
003C0000
003C0000
003C0000
003C0000
FFFFFF80
FFFFFF80
FFFFFF80
FFFFFF80
ENDCHAR
STARTCHAR 012B
ENCODING 299
SWIDTH 612 0
DWIDTH 34 0
BBX 23 36 6 0
BITMAP
7FFC00
7FFC00
7FFC00
7FFC00
000000
000000
000000
000000
7FFC00
7FFC00
7FFC00
7FFC00
007C00
007C00
007C00
007C00
007C00
007C00
007C00
007C00
007C00
007C00
007C00
007C00
007C00
007C00
007C00
007C00
007C00
007C00
007C00
007C00
FFFFFE
FFFFFE
FFFFFE
FFFFFE
ENDCHAR
STARTCHAR 012C
ENCODING 300
SWIDTH 612 0
DWIDTH 34 0
BBX 25 50 5 0
BITMAP
03C3C000
03C3C000
03E7C000
01FFC000
01FF8000
00FF0000
007E0000
00000000
00000000
00000000
FFFFFF80
FFFFFF80
FFFFFF80
FFFFFF80
003C0000
003C0000
003C0000
003C0000
003C0000
003C0000
003C0000
003C0000
003C0000
003C0000
003C0000
003C0000
003C0000
003C0000
003C0000
003C0000
003C0000
003C0000
003C0000
003C0000
003C0000
003C0000
003C0000
003C0000
003C0000
003C0000
003C0000
003C0000
003C0000
003C0000
003C0000
003C0000
FFFFFF80
FFFFFF80
FFFFFF80
FFFFFF80
ENDCHAR
STARTCHAR 012D
ENCODING 301
SWIDTH 612 0
DWIDTH 34 0
BBX 23 39 6 0
BITMAP
078380
078780
07C780
03FF80
03FF80
01FF00
007C00
000000
000000
000000
000000
7FFC00
7FFC00
7FFC00
7FFC00
007C00
007C00
007C00
007C00
007C00
007C00
007C00
007C00
007C00
007C00
007C00
007C00
007C00
007C00
007C00
007C00
007C00
007C00
007C00
007C00
FFFFFE
FFFFFE
FFFFFE
FFFFFE
ENDCHAR
STARTCHAR 012E
ENCODING 302
SWIDTH 612 0
DWIDTH 34 0
BBX 27 49 5 -9
BITMAP
FFFFFF80
FFFFFF80
FFFFFF80
FFFFFF80
003C0000
003C0000
003C0000
003C0000
003C0000
003C0000
003C0000
003C0000
003C0000
003C0000
003C0000
003C0000
003C0000
003C0000
003C0000
003C0000
003C0000
003C0000
003C0000
003C0000
003C0000
003C0000
003C0000
003C0000
003C0000
003C0000
003C0000
003C0000
003C0000
003C0000
003C0000
003C0000
FFFFFF80
FFFFFF80
FFFFFF80
FFFFFF80
00000700
00000F00
00000F00
00000F00
00000F00
00000FE0
00000FE0
000007E0
000003E0
ENDCHAR
STARTCHAR 012F
ENCODING 303
SWIDTH 612 0
DWIDTH 34 0
BBX 25 50 6 -9
BITMAP
00380000
00FC0000
00FE0000
00FE0000
01FE0000
00FE0000
00FE0000
00780000
00000000
00000000
00000000
00000000
00000000
7FFC0000
7FFC0000
7FFC0000
7FFC0000
007C0000
007C0000
007C0000
007C0000
007C0000
007C0000
007C0000
007C0000
007C0000
007C0000
007C0000
007C0000
007C0000
007C0000
007C0000
007C0000
007C0000
007C0000
007C0000
007C0000
FFFFFE00
FFFFFE00
FFFFFE00
FFFFFE00
00001E00
00001C00
00003C00
00003C00
00003C00
00003F80
00003F80
00001F80
00000F80
ENDCHAR
STARTCHAR 0130
ENCODING 304
SWIDTH 612 0
DWIDTH 34 0
BBX 25 52 5 0
BITMAP
003C0000
007E0000
00FF0000
00FF0000
00FF0000
00FF0000
007E0000
003C0000
00000000
00000000
00000000
00000000
FFFFFF80
FFFFFF80
FFFFFF80
FFFFFF80
003C0000
003C0000
003C0000
003C0000
003C0000
003C0000
003C0000
003C0000
003C0000
003C0000
003C0000
003C0000
003C0000
003C0000
003C0000
003C0000
003C0000
003C0000
003C0000
003C0000
003C0000
003C0000
003C0000
003C0000
003C0000
003C0000
003C0000
003C0000
003C0000
003C0000
003C0000
003C0000
FFFFFF80
FFFFFF80
FFFFFF80
FFFFFF80
ENDCHAR
STARTCHAR 0131
ENCODING 305
SWIDTH 612 0
DWIDTH 34 0
BBX 23 28 6 0
BITMAP
7FFC00
7FFC00
7FFC00
7FFC00
007C00
007C00
007C00
007C00
007C00
007C00
007C00
007C00
007C00
007C00
007C00
007C00
007C00
007C00
007C00
007C00
007C00
007C00
007C00
007C00
FFFFFE
FFFFFE
FFFFFE
FFFFFE
ENDCHAR
STARTCHAR 0132
ENCODING 306
SWIDTH 612 0
DWIDTH 34 0
BBX 28 41 4 -1
BITMAP
F800FFF0
F800FFF0
F800FFF0
F800FFF0
F8000F00
F8000F00
F8000F00
F8000F00
F8000F00
F8000F00
F8000F00
F8000F00
F8000F00
F8000F00
F8000F00
F8000F00
F8000F00
F8000F00
F8000F00
F8000F00
00000F00
00000F00
00000F00
00000F00
00000F00
F8000F00
F8000F00
F8000F00
F8000F00
F8000F00
F8001F00
F8001F00
7C001F00
7C001F00
7E003E00
3F007E00
3FC1FC00
1FFFF800
0FFFF000
03FFE000
00FF8000
ENDCHAR
STARTCHAR 0133
ENCODING 307
SWIDTH 612 0
DWIDTH 34 0
BBX 28 52 3 -11
BITMAP
3C0003C0
7E0007E0
FF0007F0
FF000FF0
FF000FF0
FF0007F0
7E0007E0
3C0003C0
00000000
00000000
00000000
00000000
00000000
3C0003C0
3C0003C0
3C0003C0
3C0003C0
3C0003C0
3C0003C0
3C0003C0
3C0003C0
3C0003C0
3C0003C0
3C0003C0
3C0003C0
3C0003C0
3C0003C0
3C0003C0
3C0003C0
3C0003C0
3C0003C0
3C0003C0
3E0007C0
3E0007C0
3E000FC0
1F001FC0
1F803BC0
0FE0FBC0
0FFFF3C0
07FFE3C0
01FFC3C0
007F03C0
000003C0
000003C0
000003C0
000003C0
000003C0
000007C0
003FFFC0
003FFFC0
003FFF80
003FFF00
ENDCHAR
STARTCHAR 0134
ENCODING 308
SWIDTH 612 0
DWIDTH 34 0
BBX 30 51 4 -1
BITMAP
00003F80
00007FC0
00007BE0
0000F1E0
0001F1F0
0001E0F8
0003E07C
00000000
00000000
00000000
0000FFF0
0000FFF0
0000FFF0
0000FFF0
00000F00
00000F00
00000F00
00000F00
00000F00
00000F00
00000F00
00000F00
00000F00
00000F00
00000F00
00000F00
00000F00
00000F00
00000F00
00000F00
00000F00
00000F00
00000F00
00000F00
00000F00
F8000F00
F8000F00
F8000F00
F8000F00
F8000F00
F8001F00
F8001F00
7C001F00
7C001F00
7E003E00
3F007E00
3FC1FC00
1FFFF800
0FFFF000
03FFE000
00FF8000
ENDCHAR
STARTCHAR 0135
ENCODING 309
SWIDTH 612 0
DWIDTH 34 0
BBX 18 51 7 -11
BITMAP
03F800
07FC00
07BE00
0F1E00
1F1F00
1E0F00
3E0F80
000040
000000
000000
000000
000000
3FFF80
3FFF80
3FFF80
3FFF80
000780
000780
000780
000780
000780
000780
000780
000780
000780
000780
000780
000780
000780
000780
000780
000780
000780
000780
000780
000780
000780
000780
000780
000780
000780
000780
000780
000780
000780
000780
000F80
FFFF80
FFFF80
FFFF00
FFFE00
ENDCHAR
STARTCHAR 0136
ENCODING 310
SWIDTH 612 0
DWIDTH 34 0
BBX 28 56 5 -16
BITMAP
F80007E0
F8000FC0
F8001F80
F8003F00
F8007E00
F800FE00
F800FC00
F801F800
F803F000
F807E000
F80FC000
F81FC000
F81F8000
F83F0000
F87E0000
F8FC0000
F9F80000
FBF80000
FFF00000
FFE00000
FFE00000
FFE00000
FBF00000
F9F80000
F8FC0000
F87E0000
F83F0000
F81F8000
F81FC000
F80FC000
F807E000
F803F000
F801F800
F800FC00
F8007E00
F8003F00
F8001F80
F8001F80
F8000FC0
F80007F0
00000000
00000000
001E0000
003F0000
007F0000
007F8000
007F8000
007F8000
003F8000
001F8000
00038000
00038000
00078000
007F0000
007F0000
007C0000
ENDCHAR
STARTCHAR 0137
ENCODING 311
SWIDTH 612 0
DWIDTH 34 0
BBX 22 56 8 -16
BITMAP
F00000
F00000
F00000
F00000
F00000
F00000
F00000
F00000
F00000
F00000
F00000
F00000
F001F8
F003F0
F007E0
F00FC0
F00F80
F01F00
F03F00
F07E00
F0FC00
F1F800
F3F000
F7E000
FFC000
FF8000
FFC000
FFC000
F3E000
F1F000
F0F800
F07C00
F03E00
F01F00
F01F80
F00FC0
F007E0
F003F0
F001F8
F000FC
000000
000000
00F000
01F800
01FC00
03FC00
03FC00
01FC00
01FC00
00FC00
001C00
001C00
001C00
01FC00
01F800
01F000
ENDCHAR
STARTCHAR 0138
ENCODING 312
SWIDTH 612 0
DWIDTH 34 0
BBX 22 28 8 0
BITMAP
F001F8
F003F0
F007E0
F00FC0
F00F80
F01F00
F03F00
F07E00
F0FC00
F1F800
F3F000
F7E000
FFC000
FF8000
FFC000
FFC000
F3E000
F1F000
F0F800
F07C00
F03E00
F01F00
F01F80
F00FC0
F007E0
F003F0
F001F8
F000FC
ENDCHAR
STARTCHAR 0139
ENCODING 313
SWIDTH 612 0
DWIDTH 34 0
BBX 25 50 5 0
BITMAP
0F800000
1F000000
1E000000
3E000000
3C000000
78000000
F8000000
00000000
00000000
00000000
F8000000
F8000000
F8000000
F8000000
F8000000
F8000000
F8000000
F8000000
F8000000
F8000000
F8000000
F8000000
F8000000
F8000000
F8000000
F8000000
F8000000
F8000000
F8000000
F8000000
F8000000
F8000000
F8000000
F8000000
F8000000
F8000000
F8000000
F8000000
F8000000
F8000000
F8000000
F8000000
F8000000
F8000000
F8000000
F8000000
FFFFFF80
FFFFFF80
FFFFFF80
FFFFFF80
ENDCHAR
STARTCHAR 013A
ENCODING 314
SWIDTH 612 0
DWIDTH 34 0
BBX 24 51 5 0
BITMAP
0003E0
0007C0
000780
000F80
000F00
001E00
003E00
000000
000000
000000
000000
FFFC00
FFFC00
FFFC00
FFFC00
003C00
003C00
003C00
003C00
003C00
003C00
003C00
003C00
003C00
003C00
003C00
003C00
003C00
003C00
003C00
003C00
003C00
003C00
003C00
003C00
003C00
003C00
003C00
003C00
003C00
003C00
003C00
003C00
003C00
003C00
003C00
003C00
FFFFFF
FFFFFF
FFFFFF
FFFFFF
ENDCHAR
STARTCHAR 013B
ENCODING 315
SWIDTH 612 0
DWIDTH 34 0
BBX 25 56 5 -16
BITMAP
F8000000
F8000000
F8000000
F8000000
F8000000
F8000000
F8000000
F8000000
F8000000
F8000000
F8000000
F8000000
F8000000
F8000000
F8000000
F8000000
F8000000
F8000000
F8000000
F8000000
F8000000
F8000000
F8000000
F8000000
F8000000
F8000000
F8000000
F8000000
F8000000
F8000000
F8000000
F8000000
F8000000
F8000000
F8000000
F8000000
FFFFFF80
FFFFFF80
FFFFFF80
FFFFFF80
00000000
00000000
001C0000
007F0000
007F0000
007F0000
007F0000
007F0000
007F0000
001F0000
00070000
00070000
00070000
007F0000
007E0000
007C0000
ENDCHAR
STARTCHAR 013C
ENCODING 316
SWIDTH 612 0
DWIDTH 34 0
BBX 24 56 5 -16
BITMAP
FFFC00
FFFC00
FFFC00
FFFC00
003C00
003C00
003C00
003C00
003C00
003C00
003C00
003C00
003C00
003C00
003C00
003C00
003C00
003C00
003C00
003C00
003C00
003C00
003C00
003C00
003C00
003C00
003C00
003C00
003C00
003C00
003C00
003C00
003C00
003C00
003C00
003C00
FFFFFF
FFFFFF
FFFFFF
FFFFFF
000000
000000
003C00
007E00
00FF00
00FF00
00FF00
00FF00
007F00
003F00
000700
000700
000700
007F00
007E00
007C00
ENDCHAR
STARTCHAR 013D
ENCODING 317
SWIDTH 612 0
DWIDTH 34 0
BBX 25 40 5 0
BITMAP
F8001E00
F8003F00
F8007F80
F8007F80
F8007F80
F8007F80
F8003F80
F8001F80
F8000380
F8000380
F8000380
F8003F80
F8003F00
F8003E00
F8000000
F8000000
F8000000
F8000000
F8000000
F8000000
F8000000
F8000000
F8000000
F8000000
F8000000
F8000000
F8000000
F8000000
F8000000
F8000000
F8000000
F8000000
F8000000
F8000000
F8000000
F8000000
FFFFFF80
FFFFFF80
FFFFFF80
FFFFFF80
ENDCHAR
STARTCHAR 013E
ENCODING 318
SWIDTH 612 0
DWIDTH 34 0
BBX 24 40 5 0
BITMAP
FFFC1C
FFFC7F
FFFC7F
FFFC7F
003C7F
003C7F
003C7F
003C1F
003C07
003C07
003C07
003C7F
003C7E
003C7C
003C00
003C00
003C00
003C00
003C00
003C00
003C00
003C00
003C00
003C00
003C00
003C00
003C00
003C00
003C00
003C00
003C00
003C00
003C00
003C00
003C00
003C00
FFFFFF
FFFFFF
FFFFFF
FFFFFF
ENDCHAR
STARTCHAR 013F
ENCODING 319
SWIDTH 612 0
DWIDTH 34 0
BBX 25 40 5 0
BITMAP
F8000000
F8000000
F8000000
F8000000
F8000000
F8000000
F8000000
F8000000
F8000000
F8000000
F8000000
F8000000
F8000000
F8000000
F8000000
F8000000
F8001E00
F8003F00
F8007F80
F8007F80
F8007F80
F8007F80
F8003F00
F8001E00
F8000000
F8000000
F8000000
F8000000
F8000000
F8000000
F8000000
F8000000
F8000000
F8000000
F8000000
F8000000
FFFFFF80
FFFFFF80
FFFFFF80
FFFFFF80
ENDCHAR
STARTCHAR 0140
ENCODING 320
SWIDTH 612 0
DWIDTH 34 0
BBX 24 40 5 0
BITMAP
FFFC00
FFFC00
FFFC00
FFFC00
003C00
003C00
003C00
003C00
003C00
003C00
003C00
003C00
003C00
003C00
003C00
003C00
003C1C
003C7F
003C7F
003C7F
003C7F
003C7F
003C7F
003C1C
003C00
003C00
003C00
003C00
003C00
003C00
003C00
003C00
003C00
003C00
003C00
003C00
FFFFFF
FFFFFF
FFFFFF
FFFFFF
ENDCHAR
STARTCHAR 0141
ENCODING 321
SWIDTH 612 0
DWIDTH 34 0
BBX 30 40 1 0
BITMAP
03C00000
03C00000
03C00000
03C00000
03C00000
03C00000
03C00000
03C00000
03C00000
03C00000
03C00000
03C00000
03C00000
03C00000
03C00000
03C00000
03CC0000
03FE0000
03FE0000
03FF0000
0FFC0000
3FF00000
FFC00000
7FC00000
7FC00000
33C00000
03C00000
03C00000
03C00000
03C00000
03C00000
03C00000
03C00000
03C00000
03C00000
03C00000
03FFFFFC
03FFFFFC
03FFFFFC
03FFFFFC
ENDCHAR
STARTCHAR 0142
ENCODING 322
SWIDTH 612 0
DWIDTH 34 0
BBX 24 40 5 0
BITMAP
FFFC00
FFFC00
FFFC00
FFFC00
003C00
003C00
003C00
003C00
003C00
003C00
003C00
003C00
003C00
003C00
003C00
003C00
003CC0
003FE0
003FE0
003FF0
00FFC0
03FF00
0FFC00
07FC00
03FC00
033C00
003C00
003C00
003C00
003C00
003C00
003C00
003C00
003C00
003C00
003C00
FFFFFF
FFFFFF
FFFFFF
FFFFFF
ENDCHAR
STARTCHAR 0143
ENCODING 323
SWIDTH 612 0
DWIDTH 34 0
BBX 26 50 4 0
BITMAP
00007C00
00007800
0000F800
0000F000
0001E000
0003E000
0003C000
00000000
00000000
00000000
FFC007C0
FFC007C0
FBC007C0
FBE007C0
FBE007C0
FBE007C0
F9E007C0
F9F007C0
F9F007C0
F8F007C0
F8F807C0
F8F807C0
F87807C0
F87C07C0
F87C07C0
F87C07C0
F83C07C0
F83E07C0
F83E07C0
F81E07C0
F81F07C0
F81F07C0
F80F07C0
F80F87C0
F80F87C0
F80F87C0
F80787C0
F807C7C0
F807C7C0
F803C7C0
F803E7C0
F803E7C0
F801E7C0
F801E7C0
F801F7C0
F801F7C0
F800F7C0
F800FFC0
F800FFC0
F8007FC0
ENDCHAR
STARTCHAR 0144
ENCODING 324
SWIDTH 612 0
DWIDTH 34 0
BBX 24 39 5 0
BITMAP
0001F8
0001F0
0003E0
0003C0
0007C0
000780
000F00
000000
000000
000000
003F80
F0FFF0
F1FFF8
F3FFFC
F7C1FE
F7007E
FE003F
FC001F
FC001F
F8000F
F8000F
F0000F
F0000F
F0000F
F0000F
F0000F
F0000F
F0000F
F0000F
F0000F
F0000F
F0000F
F0000F
F0000F
F0000F
F0000F
F0000F
F0000F
F0000F
ENDCHAR
STARTCHAR 0145
ENCODING 325
SWIDTH 612 0
DWIDTH 34 0
BBX 26 56 4 -16
BITMAP
FFC007C0
FFC007C0
FBC007C0
FBE007C0
FBE007C0
FBE007C0
F9E007C0
F9F007C0
F9F007C0
F8F007C0
F8F807C0
F8F807C0
F87807C0
F87C07C0
F87C07C0
F87C07C0
F83C07C0
F83E07C0
F83E07C0
F81E07C0
F81F07C0
F81F07C0
F80F07C0
F80F87C0
F80F87C0
F80F87C0
F80787C0
F807C7C0
F807C7C0
F803C7C0
F803E7C0
F803E7C0
F801E7C0
F801E7C0
F801F7C0
F801F7C0
F800F7C0
F800FFC0
F800FFC0
F8007FC0
00000000
00000000
00780000
00FC0000
01FE0000
01FE0000
01FE0000
01FE0000
00FE0000
007E0000
000E0000
000E0000
001E0000
00FC0000
00FC0000
00F80000
ENDCHAR
STARTCHAR 0146
ENCODING 326
SWIDTH 612 0
DWIDTH 34 0
BBX 24 45 5 -16
BITMAP
003F80
F0FFF0
F1FFF8
F3FFFC
F7C1FE
F7007E
FE003F
FC001F
FC001F
F8000F
F8000F
F0000F
F0000F
F0000F
F0000F
F0000F
F0000F
F0000F
F0000F
F0000F
F0000F
F0000F
F0000F
F0000F
F0000F
F0000F
F0000F
F0000F
F0000F
000000
000000
001E00
003F00
007F00
007F80
007F80
007F80
003F80
001F80
000380
000380
000780
007F00
007F00
007E00
ENDCHAR
STARTCHAR 0147
ENCODING 327
SWIDTH 612 0
DWIDTH 34 0
BBX 26 50 4 0
BITMAP
01F01E00
00F83E00
00787C00
007C7800
003EF800
001FF000
000FE000
00000000
00000000
00000000
FFC007C0
FFC007C0
FBC007C0
FBE007C0
FBE007C0
FBE007C0
F9E007C0
F9F007C0
F9F007C0
F8F007C0
F8F807C0
F8F807C0
F87807C0
F87C07C0
F87C07C0
F87C07C0
F83C07C0
F83E07C0
F83E07C0
F81E07C0
F81F07C0
F81F07C0
F80F07C0
F80F87C0
F80F87C0
F80F87C0
F80787C0
F807C7C0
F807C7C0
F803C7C0
F803E7C0
F803E7C0
F801E7C0
F801E7C0
F801F7C0
F801F7C0
F800F7C0
F800FFC0
F800FFC0
F8007FC0
ENDCHAR
STARTCHAR 0148
ENCODING 328
SWIDTH 612 0
DWIDTH 34 0
BBX 24 39 5 0
BITMAP
03C07C
03E0F8
01F0F0
00F1E0
00FBE0
007FC0
003F80
000000
000000
000000
003F80
F0FFF0
F1FFF8
F3FFFC
F7C1FE
F7007E
FE003F
FC001F
FC001F
F8000F
F8000F
F0000F
F0000F
F0000F
F0000F
F0000F
F0000F
F0000F
F0000F
F0000F
F0000F
F0000F
F0000F
F0000F
F0000F
F0000F
F0000F
F0000F
F0000F
ENDCHAR
STARTCHAR 0149
ENCODING 329
SWIDTH 612 0
DWIDTH 34 0
BBX 25 47 4 0
BITMAP
3C000000
7E000000
FF000000
FF000000
FF000000
FF000000
7F000000
3F000000
07000000
07000000
07000000
7F000000
7E000000
7C000000
00000000
00000000
00000000
00000000
001FC000
787FF800
78FFFC00
79FFFE00
7BE0FF00
7B803F00
7F001F80
7E000F80
7E000F80
7C000780
7C000780
78000780
78000780
78000780
78000780
78000780
78000780
78000780
78000780
78000780
78000780
78000780
78000780
78000780
78000780
78000780
78000780
78000780
78000780
ENDCHAR
STARTCHAR 014A
ENCODING 330
SWIDTH 612 0
DWIDTH 34 0
BBX 26 51 4 -11
BITMAP
FFC007C0
FFC007C0
FBC007C0
FBE007C0
FBE007C0
FBE007C0
F9E007C0
F9F007C0
F9F007C0
F8F007C0
F8F807C0
F8F807C0
F87807C0
F87C07C0
F87C07C0
F87C07C0
F83C07C0
F83E07C0
F83E07C0
F81E07C0
F81F07C0
F81F07C0
F80F07C0
F80F87C0
F80F87C0
F80F87C0
F80787C0
F807C7C0
F807C7C0
F803C7C0
F803E7C0
F803E7C0
F801E7C0
F801E7C0
F801F7C0
F801F7C0
F800F7C0
F800FFC0
F800FFC0
F8007FC0
000007C0
000007C0
000007C0
000007C0
000007C0
000007C0
00000FC0
007FFFC0
007FFF80
007FFF00
007FFE00
ENDCHAR
STARTCHAR 014B
ENCODING 331
SWIDTH 612 0
DWIDTH 34 0
BBX 24 40 5 -11
BITMAP
003F80
F0FFF0
F1FFF8
F3FFFC
F7C1FE
F7007E
FE003F
FC001F
FC001F
F8000F
F8000F
F0000F
F0000F
F0000F
F0000F
F0000F
F0000F
F0000F
F0000F
F0000F
F0000F
F0000F
F0000F
F0000F
F0000F
F0000F
F0000F
F0000F
F0000F
00000F
00000F
00000F
00000F
00000F
00000F
00001F
0007FF
0007FF
0007FE
0007FC
ENDCHAR
STARTCHAR 014C
ENCODING 332
SWIDTH 612 0
DWIDTH 34 0
BBX 28 48 3 -1
BITMAP
03FFFC00
03FFFC00
03FFFC00
03FFFC00
00000000
00000000
003FC000
01FFF800
03FFFC00
07FFFF00
0FF07F00
1F801F80
3F000FC0
3E0007C0
3E0007E0
7C0003E0
7C0003E0
7C0001E0
780001F0
F80001F0
F80001F0
F80001F0
F80001F0
F80001F0
F80001F0
F80001F0
F80001F0
F80001F0
F80001F0
F80001F0
F80001F0
F80001F0
F80001F0
F80001F0
F80001F0
780001F0
7C0001E0
7C0003E0
7C0003E0
3E0003E0
3E0007C0
3F000FC0
1F801F80
0FF07F80
07FFFF00
03FFFC00
01FFF800
003FC000
ENDCHAR
STARTCHAR 014D
ENCODING 333
SWIDTH 612 0
DWIDTH 34 0
BBX 28 37 3 -1
BITMAP
03FFFC00
03FFFC00
03FFFC00
03FFFC00
00000000
00000000
00000000
003FC000
00FFF800
03FFFC00
07FFFE00
0FF0FF00
1F801F80
3F000FC0
3E0007C0
7C0003E0
7C0003E0
780001F0
F80001F0
F80001F0
F80000F0
F80000F0
F80000F0
F80001F0
F80001F0
F80001F0
780001F0
7C0003E0
7C0003E0
3E0007E0
3F000FC0
1F801F80
0FF07F80
07FFFF00
03FFFC00
00FFF800
003FC000
ENDCHAR
STARTCHAR 014E
ENCODING 334
SWIDTH 612 0
DWIDTH 34 0
BBX 28 51 3 -1
BITMAP
00F0F000
00F0F000
00F9F000
007FF000
007FE000
003FC000
001F8000
00000000
00000000
003FC000
01FFF800
03FFFC00
07FFFF00
0FF07F00
1F801F80
3F000FC0
3E0007C0
3E0007E0
7C0003E0
7C0003E0
7C0001E0
780001F0
F80001F0
F80001F0
F80001F0
F80001F0
F80001F0
F80001F0
F80001F0
F80001F0
F80001F0
F80001F0
F80001F0
F80001F0
F80001F0
F80001F0
F80001F0
F80001F0
780001F0
7C0001E0
7C0003E0
7C0003E0
3E0003E0
3E0007C0
3F000FC0
1F801F80
0FF07F80
07FFFF00
03FFFC00
01FFF800
003FC000
ENDCHAR
STARTCHAR 014F
ENCODING 335
SWIDTH 612 0
DWIDTH 34 0
BBX 28 40 3 -1
BITMAP
00F0F000
00F0F000
00F9F000
007FF000
007FE000
003FC000
001F8000
00000000
00000000
00000000
003FC000
00FFF800
03FFFC00
07FFFE00
0FF0FF00
1F801F80
3F000FC0
3E0007C0
7C0003E0
7C0003E0
780001F0
F80001F0
F80001F0
F80000F0
F80000F0
F80000F0
F80001F0
F80001F0
F80001F0
780001F0
7C0003E0
7C0003E0
3E0007E0
3F000FC0
1F801F80
0FF07F80
07FFFF00
03FFFC00
00FFF800
003FC000
ENDCHAR
STARTCHAR 0150
ENCODING 336
SWIDTH 612 0
DWIDTH 34 0
BBX 28 51 3 -1
BITMAP
001F1F80
001E1F00
003E3E00
003C3C00
00787C00
00787800
00F0F000
00000000
00000000
003FC000
01FFF800
03FFFC00
07FFFF00
0FF07F00
1F801F80
3F000FC0
3E0007C0
3E0007E0
7C0003E0
7C0003E0
7C0001E0
780001F0
F80001F0
F80001F0
F80001F0
F80001F0
F80001F0
F80001F0
F80001F0
F80001F0
F80001F0
F80001F0
F80001F0
F80001F0
F80001F0
F80001F0
F80001F0
F80001F0
780001F0
7C0001E0
7C0003E0
7C0003E0
3E0003E0
3E0007C0
3F000FC0
1F801F80
0FF07F80
07FFFF00
03FFFC00
01FFF800
003FC000
ENDCHAR
STARTCHAR 0151
ENCODING 337
SWIDTH 612 0
DWIDTH 34 0
BBX 28 40 3 -1
BITMAP
001F1F80
001E1F00
003E3E00
003C3C00
00787C00
00787800
00F0F000
00000000
00000000
00000000
003FC000
00FFF800
03FFFC00
07FFFE00
0FF0FF00
1F801F80
3F000FC0
3E0007C0
7C0003E0
7C0003E0
780001F0
F80001F0
F80001F0
F80000F0
F80000F0
F80000F0
F80001F0
F80001F0
F80001F0
780001F0
7C0003E0
7C0003E0
3E0007E0
3F000FC0
1F801F80
0FF07F80
07FFFF00
03FFFC00
00FFF800
003FC000
ENDCHAR
STARTCHAR 0152
ENCODING 338
SWIDTH 612 0
DWIDTH 34 0
BBX 28 40 3 0
BITMAP
003FFFE0
01FFFFE0
03FFFFE0
0FFFFFE0
1FE3E000
1F83E000
3F03E000
3E03E000
7C03E000
7C03E000
7C03E000
F803E000
F803E000
F803E000
F803E000
F803E000
F803E000
F803E000
F803FFE0
F803FFE0
F803FFE0
F803FFE0
F803E000
F803E000
F803E000
F803E000
F803E000
F803E000
F803E000
7C03E000
7C03E000
7C03E000
3E03E000
3F03E000
1F83E000
1FE3E000
0FFFFFF0
07FFFFF0
01FFFFF0
003FFFF0
ENDCHAR
STARTCHAR 0153
ENCODING 339
SWIDTH 612 0
DWIDTH 34 0
BBX 27 30 4 -1
BITMAP
003FC000
01FFF000
03FFFC00
0FFFFE00
1FFFFF00
1F9F3F80
3F1F0F80
7E1F07C0
7C1F03C0
781F03C0
F81F03E0
F81F03E0
F01FFFE0
F01FFFE0
F01FFFE0
F01FFFE0
F01F0000
F01F0000
F81F0000
F81F0000
781F0380
7C1F03E0
7E1F07C0
3F1F0F80
1F9F1F80
1FFFFF00
0FFFFE00
03FFFC00
01FFF800
003FC000
ENDCHAR
STARTCHAR 0154
ENCODING 340
SWIDTH 612 0
DWIDTH 34 0
BBX 26 51 5 0
BITMAP
0007C000
000F8000
001F0000
001E0000
003E0000
003C0000
00780000
00000000
00000000
00000000
00000000
FFFFC000
FFFFF000
FFFFFC00
FFFFFE00
F001FF00
F0003F00
F0001F80
F0000F80
F00007C0
F00007C0
F00007C0
F00007C0
F00007C0
F00007C0
F0000780
F0000F80
F0000F80
F0001F00
F0007E00
FFFFFC00
FFFFF800
FFFFFC00
FFFFFF00
F0003F00
F0001F00
F0000F00
F0000F00
F0000F00
F0000F00
F0000F00
F0000F00
F0000F00
F0000F00
F0000F00
F0000F00
F0000F00
F0000F00
F0000F00
F0000F00
F0000F00
ENDCHAR
STARTCHAR 0155
ENCODING 341
SWIDTH 612 0
DWIDTH 34 0
BBX 28 39 3 0
BITMAP
00000F80
00000F00
00001F00
00003E00
00003C00
00007C00
00007800
00000000
00000000
00000000
0000FC00
FFC3FF00
FFCFFF80
FFCFFFC0
FFDE1FC0
03F807E0
03F003E0
03F001F0
03E001F0
03E001F0
03E001F0
03C001C0
03C00000
03C00000
03C00000
03C00000
03C00000
03C00000
03C00000
03C00000
03C00000
03C00000
03C00000
03C00000
03C00000
FFFF8000
FFFF8000
FFFF8000
FFFF8000
ENDCHAR
STARTCHAR 0156
ENCODING 342
SWIDTH 612 0
DWIDTH 34 0
BBX 26 56 5 -16
BITMAP
FFFFC000
FFFFF000
FFFFFC00
FFFFFE00
F001FF00
F0003F00
F0001F80
F0000F80
F00007C0
F00007C0
F00007C0
F00007C0
F00007C0
F00007C0
F0000780
F0000F80
F0000F80
F0001F00
F0007E00
FFFFFC00
FFFFF800
FFFFFC00
FFFFFF00
F0003F00
F0001F00
F0000F00
F0000F00
F0000F00
F0000F00
F0000F00
F0000F00
F0000F00
F0000F00
F0000F00
F0000F00
F0000F00
F0000F00
F0000F00
F0000F00
F0000F00
00000000
00000000
001C0000
007E0000
007F0000
007F0000
00FF0000
007F0000
007F0000
003F0000
00070000
00070000
00070000
007F0000
007E0000
007C0000
ENDCHAR
STARTCHAR 0157
ENCODING 343
SWIDTH 612 0
DWIDTH 34 0
BBX 28 46 3 -17
BITMAP
0000FC00
FFC3FF00
FFCFFF80
FFCFFFC0
FFDE1FC0
03F807E0
03F003E0
03F001F0
03E001F0
03E001F0
03E001F0
03C001C0
03C00000
03C00000
03C00000
03C00000
03C00000
03C00000
03C00000
03C00000
03C00000
03C00000
03C00000
03C00000
03C00000
FFFF8000
FFFF8000
FFFF8000
FFFF8000
00000000
00000000
00000000
03C00000
07E00000
07F00000
0FF00000
0FF00000
07F00000
07F00000
03F00000
00700000
00700000
00700000
07F00000
07E00000
07C00000
ENDCHAR
STARTCHAR 0158
ENCODING 344
SWIDTH 612 0
DWIDTH 34 0
BBX 26 50 5 0
BITMAP
1E03E000
1F07C000
0F878000
078F0000
07DF0000
03FE0000
01FC0000
00000000
00000000
00000000
FFFFC000
FFFFF000
FFFFFC00
FFFFFE00
F001FF00
F0003F00
F0001F80
F0000F80
F00007C0
F00007C0
F00007C0
F00007C0
F00007C0
F00007C0
F0000780
F0000F80
F0000F80
F0001F00
F0007E00
FFFFFC00
FFFFF800
FFFFFC00
FFFFFF00
F0003F00
F0001F00
F0000F00
F0000F00
F0000F00
F0000F00
F0000F00
F0000F00
F0000F00
F0000F00
F0000F00
F0000F00
F0000F00
F0000F00
F0000F00
F0000F00
F0000F00
ENDCHAR
STARTCHAR 0159
ENCODING 345
SWIDTH 612 0
DWIDTH 34 0
BBX 28 39 3 0
BITMAP
03C07C00
03E0F800
01F0F000
00F1F000
00FBE000
007FC000
003FC000
00000000
00000000
00000000
0000FC00
FFC3FF00
FFCFFF80
FFCFFFC0
FFDE1FC0
03F807E0
03F003E0
03F001F0
03E001F0
03E001F0
03E001F0
03C001C0
03C00000
03C00000
03C00000
03C00000
03C00000
03C00000
03C00000
03C00000
03C00000
03C00000
03C00000
03C00000
03C00000
FFFF8000
FFFF8000
FFFF8000
FFFF8000
ENDCHAR
STARTCHAR 015A
ENCODING 346
SWIDTH 612 0
DWIDTH 34 0
BBX 28 52 3 -1
BITMAP
0001F000
0003E000
0003E000
0007C000
00078000
000F0000
001F0000
00000000
00000000
00000000
003FC000
01FFF800
07FFFE00
0FFFFF00
1FF07F80
1F801FC0
3F0007E0
3E0003E0
7C0003F0
7C0001F0
7C0001F0
7C0001F0
7C0001F0
7C0001F0
3E000000
3F000000
3FC00000
1FF80000
0FFFC000
07FFF800
03FFFE00
007FFF80
000FFFC0
00007FE0
00000FE0
000003F0
F00001F0
F00001F0
F00000F0
F00000F0
F80000F0
F80000F0
F80001F0
7C0001F0
7C0001F0
3F0003E0
3F8007E0
1FF03FC0
0FFFFF80
03FFFF00
01FFFC00
003FF000
ENDCHAR
STARTCHAR 015B
ENCODING 347
SWIDTH 612 0
DWIDTH 34 0
BBX 24 40 5 -1
BITMAP
0007C0
000F80
001F00
001E00
003E00
003C00
007800
000000
000000
000000
00FE00
07FFC0
0FFFE0
1FFFF0
3F83F8
3E00FC
3C007C
7C003E
7C003E
7C0018
3C0000
3F0000
3FE000
1FFF80
0FFFF0
03FFF8
000FFC
00007E
00003E
70001E
F0001F
F8001F
F8001E
7C003E
7E007E
3FC1FC
1FFFFC
0FFFF8
03FFE0
00FF80
ENDCHAR
STARTCHAR 015C
ENCODING 348
SWIDTH 612 0
DWIDTH 34 0
BBX 28 51 3 -1
BITMAP
003FC000
003FC000
007DE000
00F9F000
00F0F000
01F07800
03E07C00
00000000
00000000
003FC000
01FFF800
07FFFE00
0FFFFF00
1FF07F80
1F801FC0
3F0007E0
3E0003E0
7C0003F0
7C0001F0
7C0001F0
7C0001F0
7C0001F0
7C0001F0
3E000000
3F000000
3FC00000
1FF80000
0FFFC000
07FFF800
03FFFE00
007FFF80
000FFFC0
00007FE0
00000FE0
000003F0
F00001F0
F00001F0
F00000F0
F00000F0
F80000F0
F80000F0
F80001F0
7C0001F0
7C0001F0
3F0003E0
3F8007E0
1FF03FC0
0FFFFF80
03FFFF00
01FFFC00
003FF000
ENDCHAR
STARTCHAR 015D
ENCODING 349
SWIDTH 612 0
DWIDTH 34 0
BBX 24 40 5 -1
BITMAP
00FE00
01FF00
03EF80
03C780
07C7C0
0783E0
0F83E0
000000
000000
000000
00FE00
07FFC0
0FFFE0
1FFFF0
3F83F8
3E00FC
3C007C
7C003E
7C003E
7C0018
3C0000
3F0000
3FE000
1FFF80
0FFFF0
03FFF8
000FFC
00007E
00003E
70001E
F0001F
F8001F
F8001E
7C003E
7E007E
3FC1FC
1FFFFC
0FFFF8
03FFE0
00FF80
ENDCHAR
STARTCHAR 015E
ENCODING 350
SWIDTH 612 0
DWIDTH 34 0
BBX 28 53 3 -12
BITMAP
003FC000
01FFF800
07FFFE00
0FFFFF00
1FF07F80
1F801FC0
3F0007E0
3E0003E0
7C0003F0
7C0001F0
7C0001F0
7C0001F0
7C0001F0
7C0001F0
3E000000
3F000000
3FC00000
1FF80000
0FFFC000
07FFF800
03FFFE00
007FFF80
000FFFC0
00007FE0
00000FE0
000003F0
F00001F0
F00001F0
F00000F0
F00000F0
F80000F0
F80000F0
F80001F0
7C0001F0
7C0001F0
3F0003E0
3F8007E0
1FF03FC0
0FFFFF80
07FFFF00
01FFFC00
003FF000
000C0000
001CE000
001FF000
001FF800
001E3800
00003800
000C3800
001C3800
001FF800
000FF000
0007E000
ENDCHAR
STARTCHAR 015F
ENCODING 351
SWIDTH 612 0
DWIDTH 34 0
BBX 24 41 5 -12
BITMAP
00FE00
07FFC0
0FFFE0
1FFFF0
3F83F8
3E00FC
3C007C
7C003E
7C003E
7C0018
3C0000
3F0000
3FE000
1FFF80
0FFFF0
03FFF8
000FFC
00007E
00003E
70001E
F0001F
F8001F
F8001E
7C003E
7E007E
3FC1FC
1FFFFC
0FFFF8
03FFE0
00FF80
007000
007780
007FC0
007FE0
00F9E0
0000E0
0020E0
00F1E0
007FC0
003FC0
001F00
ENDCHAR
STARTCHAR 0160
ENCODING 352
SWIDTH 612 0
DWIDTH 34 0
BBX 28 51 3 -1
BITMAP
03E07C00
01F07C00
00F0F800
00F8F000
007DE000
003FE000
003FC000
00000000
00000000
003FC000
01FFF800
07FFFE00
0FFFFF00
1FF07F80
1F801FC0
3F0007E0
3E0003E0
7C0003F0
7C0001F0
7C0001F0
7C0001F0
7C0001F0
7C0001F0
3E000000
3F000000
3FC00000
1FF80000
0FFFC000
07FFF800
03FFFE00
007FFF80
000FFFC0
00007FE0
00000FE0
000003F0
F00001F0
F00001F0
F00000F0
F00000F0
F80000F0
F80000F0
F80001F0
7C0001F0
7C0001F0
3F0003E0
3F8007E0
1FF03FC0
0FFFFF80
03FFFF00
01FFFC00
003FF000
ENDCHAR
STARTCHAR 0161
ENCODING 353
SWIDTH 612 0
DWIDTH 34 0
BBX 24 40 5 -1
BITMAP
0F81F0
0783E0
07C3C0
03C7C0
01E780
01FF00
00FF00
000000
000000
000000
00FE00
07FFC0
0FFFE0
1FFFF0
3F83F8
3E00FC
3C007C
7C003E
7C003E
7C0018
3C0000
3F0000
3FE000
1FFF80
0FFFF0
03FFF8
000FFC
00007E
00003E
70001E
F0001F
F8001F
F8001E
7C003E
7E007E
3FC1FC
1FFFFC
0FFFF8
03FFE0
00FF80
ENDCHAR
STARTCHAR 0162
ENCODING 354
SWIDTH 612 0
DWIDTH 34 0
BBX 28 52 3 -12
BITMAP
FFFFFFF0
FFFFFFF0
FFFFFFF0
FFFFFFF0
000F0000
000F0000
000F0000
000F0000
000F0000
000F0000
000F0000
000F0000
000F0000
000F0000
000F0000
000F0000
000F0000
000F0000
000F0000
000F0000
000F0000
000F0000
000F0000
000F0000
000F0000
000F0000
000F0000
000F0000
000F0000
000F0000
000F0000
000F0000
000F0000
000F0000
000F0000
000F0000
000F0000
000F0000
000F0000
000F0000
00060000
000E0000
000EF000
000FF800
000FFC00
000F1C00
00001C00
00061C00
000E1C00
000FFC00
0007F800
0003F000
ENDCHAR
STARTCHAR 0163
ENCODING 355
SWIDTH 612 0
DWIDTH 34 0
BBX 24 52 4 -12
BITMAP
007800
007800
007800
007800
007800
007800
007800
007800
007800
007800
007800
007800
FFFFFF
FFFFFF
FFFFFF
FFFFFF
007800
007800
007800
007800
007800
007800
007800
007800
007800
007800
007800
007800
007800
007800
007800
007800
007800
007800
007800
007C00
007FFC
007FFC
003FFC
001FFC
000700
000600
000EF0
000FF8
000FFC
000F1C
00001C
00061C
000E1C
000FFC
0007F8
0001F0
ENDCHAR
STARTCHAR 0164
ENCODING 356
SWIDTH 612 0
DWIDTH 34 0
BBX 28 50 3 0
BITMAP
03E07C00
01F07800
00F0F800
00F9F000
0079E000
003FE000
003FC000
00000000
00000000
00000000
FFFFFFF0
FFFFFFF0
FFFFFFF0
FFFFFFF0
000F0000
000F0000
000F0000
000F0000
000F0000
000F0000
000F0000
000F0000
000F0000
000F0000
000F0000
000F0000
000F0000
000F0000
000F0000
000F0000
000F0000
000F0000
000F0000
000F0000
000F0000
000F0000
000F0000
000F0000
000F0000
000F0000
000F0000
000F0000
000F0000
000F0000
000F0000
000F0000
000F0000
000F0000
000F0000
000F0000
ENDCHAR
STARTCHAR 0165
ENCODING 357
SWIDTH 612 0
DWIDTH 34 0
BBX 26 40 4 0
BITMAP
00780F00
00781F80
00783FC0
00783FC0
00783FC0
00783FC0
00781FC0
00780FC0
007801C0
007801C0
007801C0
007801C0
FFFF81C0
FFFF9FC0
FFFF9F80
FFFF9F00
00780000
00780000
00780000
00780000
00780000
00780000
00780000
00780000
00780000
00780000
00780000
00780000
00780000
00780000
00780000
00780000
00780000
00780000
00780000
007C0000
007FFC00
007FFC00
003FFC00
001FFC00
ENDCHAR
STARTCHAR 0166
ENCODING 358
SWIDTH 612 0
DWIDTH 34 0
BBX 28 40 3 0
BITMAP
FFFFFFF0
FFFFFFF0
FFFFFFF0
FFFFFFF0
000F0000
000F0000
000F0000
000F0000
000F0000
000F0000
000F0000
000F0000
000F0000
000F0000
000F0000
000F0000
1FFFFF80
1FFFFF80
1FFFFF80
1FFFFF80
000F0000
000F0000
000F0000
000F0000
000F0000
000F0000
000F0000
000F0000
000F0000
000F0000
000F0000
000F0000
000F0000
000F0000
000F0000
000F0000
000F0000
000F0000
000F0000
000F0000
ENDCHAR
STARTCHAR 0167
ENCODING 359
SWIDTH 612 0
DWIDTH 34 0
BBX 24 40 4 0
BITMAP
007800
007800
007800
007800
007800
007800
007800
007800
007800
007800
007800
007800
FFFFFF
FFFFFF
FFFFFF
FFFFFF
007800
007800
007800
007800
3FFFFC
3FFFFC
3FFFFC
3FFFFC
007800
007800
007800
007800
007800
007800
007800
007800
007800
007800
007800
007C00
007FFC
007FFC
003FFC
001FFC
ENDCHAR
STARTCHAR 0168
ENCODING 360
SWIDTH 612 0
DWIDTH 34 0
BBX 27 53 4 -1
BITMAP
003E0000
007F0600
00FF0700
01FF8F80
03E79F00
03C3FE00
01C3FC00
0081F800
0000F000
00000000
00000000
00000000
F00003E0
F00003E0
F00003E0
F00003E0
F00003E0
F00003E0
F00003E0
F00003E0
F00003E0
F00003E0
F00003E0
F00003E0
F00003E0
F00003E0
F00003E0
F00003E0
F00003E0
F00003E0
F00003E0
F00003E0
F00003E0
F00003E0
F00003E0
F00003E0
F00003E0
F00003E0
F00003E0
F00003E0
F00003E0
F80003C0
F80007C0
F80007C0
F80007C0
7C000F80
7E001F80
3F003F00
1FE0FF00
1FFFFE00
07FFFC00
03FFF000
007F8000
ENDCHAR
STARTCHAR 0169
ENCODING 361
SWIDTH 612 0
DWIDTH 34 0
BBX 24 41 5 -1
BITMAP
01F000
03F830
07F838
0FFC7C
1F3EF8
1E1FF0
0E1FE0
040FE0
000780
000000
000000
000000
F0000F
F0000F
F0000F
F0000F
F0000F
F0000F
F0000F
F0000F
F0000F
F0000F
F0000F
F0000F
F0000F
F0000F
F0000F
F0000F
F0000F
F0001F
F0001F
F0001F
F0003F
F8003F
FC007F
7E00EF
7F83CF
3FFFCF
1FFF8F
0FFE0F
03F800
ENDCHAR
STARTCHAR 016A
ENCODING 362
SWIDTH 612 0
DWIDTH 34 0
BBX 27 48 4 -1
BITMAP
07FFF800
07FFF800
07FFF800
07FFF800
00000000
00000000
00000000
F00003E0
F00003E0
F00003E0
F00003E0
F00003E0
F00003E0
F00003E0
F00003E0
F00003E0
F00003E0
F00003E0
F00003E0
F00003E0
F00003E0
F00003E0
F00003E0
F00003E0
F00003E0
F00003E0
F00003E0
F00003E0
F00003E0
F00003E0
F00003E0
F00003E0
F00003E0
F00003E0
F00003E0
F00003E0
F80003C0
F80007C0
F80007C0
F80007C0
7C000F80
7E001F80
3F003F00
1FE0FF00
1FFFFE00
07FFFC00
03FFF000
007F8000
ENDCHAR
STARTCHAR 016B
ENCODING 363
SWIDTH 612 0
DWIDTH 34 0
BBX 24 37 5 -1
BITMAP
0FFFF0
0FFFF0
0FFFF0
0FFFF0
000000
000000
000000
000000
F0000F
F0000F
F0000F
F0000F
F0000F
F0000F
F0000F
F0000F
F0000F
F0000F
F0000F
F0000F
F0000F
F0000F
F0000F
F0000F
F0000F
F0001F
F0001F
F0001F
F0003F
F8003F
FC007F
7E00EF
7F83CF
3FFFCF
1FFF8F
0FFE0F
03F800
ENDCHAR
STARTCHAR 016C
ENCODING 364
SWIDTH 612 0
DWIDTH 34 0
BBX 27 51 4 -1
BITMAP
01E1E000
01E1E000
01F3E000
00FFE000
00FFC000
007F8000
003F0000
00000000
00000000
00000000
F00003E0
F00003E0
F00003E0
F00003E0
F00003E0
F00003E0
F00003E0
F00003E0
F00003E0
F00003E0
F00003E0
F00003E0
F00003E0
F00003E0
F00003E0
F00003E0
F00003E0
F00003E0
F00003E0
F00003E0
F00003E0
F00003E0
F00003E0
F00003E0
F00003E0
F00003E0
F00003E0
F00003E0
F00003E0
F80003C0
F80007C0
F80007C0
F80007C0
7C000F80
7E001F80
3F003F00
1FE0FF00
1FFFFE00
07FFFC00
03FFF000
007F8000
ENDCHAR
STARTCHAR 016D
ENCODING 365
SWIDTH 612 0
DWIDTH 34 0
BBX 24 40 5 -1
BITMAP
03C3C0
03C3C0
03E7C0
03FF80
01FF80
00FF00
007E00
000000
000000
000000
000000
F0000F
F0000F
F0000F
F0000F
F0000F
F0000F
F0000F
F0000F
F0000F
F0000F
F0000F
F0000F
F0000F
F0000F
F0000F
F0000F
F0000F
F0001F
F0001F
F0001F
F0003F
F8003F
FC007F
7E00EF
7F83CF
3FFFCF
1FFF8F
0FFE0F
03F800
ENDCHAR
STARTCHAR 016E
ENCODING 366
SWIDTH 612 0
DWIDTH 34 0
BBX 27 55 4 -1
BITMAP
001F0000
007F8000
00FFC000
00F1C000
01E1E000
01E1E000
01E1E000
00F1C000
00FFC000
007F8000
001F0000
00000000
00000000
00000000
F00003E0
F00003E0
F00003E0
F00003E0
F00003E0
F00003E0
F00003E0
F00003E0
F00003E0
F00003E0
F00003E0
F00003E0
F00003E0
F00003E0
F00003E0
F00003E0
F00003E0
F00003E0
F00003E0
F00003E0
F00003E0
F00003E0
F00003E0
F00003E0
F00003E0
F00003E0
F00003E0
F00003E0
F00003E0
F80003C0
F80007C0
F80007C0
F80007C0
7C000F80
7E001F80
3F003F00
1FE0FF00
1FFFFE00
07FFFC00
03FFF000
007F8000
ENDCHAR
STARTCHAR 016F
ENCODING 367
SWIDTH 612 0
DWIDTH 34 0
BBX 24 44 5 -1
BITMAP
007C00
00FF00
01FF80
03C780
03C380
03C3C0
03C380
03C780
01FF80
00FF00
007C00
000000
000000
000000
000000
F0000F
F0000F
F0000F
F0000F
F0000F
F0000F
F0000F
F0000F
F0000F
F0000F
F0000F
F0000F
F0000F
F0000F
F0000F
F0000F
F0000F
F0001F
F0001F
F0001F
F0003F
F8003F
FC007F
7E00EF
7F83CF
3FFFCF
1FFF8F
0FFE0F
03F800
ENDCHAR
STARTCHAR 0170
ENCODING 368
SWIDTH 612 0
DWIDTH 34 0
BBX 27 51 4 -1
BITMAP
003E3E00
007C7C00
007C7C00
00F8F800
00F0F000
01F1F000
01E1E000
00000000
00000000
00000000
F00003E0
F00003E0
F00003E0
F00003E0
F00003E0
F00003E0
F00003E0
F00003E0
F00003E0
F00003E0
F00003E0
F00003E0
F00003E0
F00003E0
F00003E0
F00003E0
F00003E0
F00003E0
F00003E0
F00003E0
F00003E0
F00003E0
F00003E0
F00003E0
F00003E0
F00003E0
F00003E0
F00003E0
F00003E0
F80003C0
F80007C0
F80007C0
F80007C0
7C000F80
7E001F80
3F003F00
1FE0FF00
1FFFFE00
07FFFC00
03FFF000
007F8000
ENDCHAR
STARTCHAR 0171
ENCODING 369
SWIDTH 612 0
DWIDTH 34 0
BBX 24 40 5 -1
BITMAP
007C7C
00F878
00F8F8
01F1F0
01E1E0
03E3E0
03C3C0
000000
000000
000000
000000
F0000F
F0000F
F0000F
F0000F
F0000F
F0000F
F0000F
F0000F
F0000F
F0000F
F0000F
F0000F
F0000F
F0000F
F0000F
F0000F
F0000F
F0001F
F0001F
F0001F
F0003F
F8003F
FC007F
7E00EF
7F83CF
3FFFCF
1FFF8F
0FFE0F
03F800
ENDCHAR
STARTCHAR 0172
ENCODING 370
SWIDTH 612 0
DWIDTH 34 0
BBX 27 49 4 -9
BITMAP
F00003E0
F00003E0
F00003E0
F00003E0
F00003E0
F00003E0
F00003E0
F00003E0
F00003E0
F00003E0
F00003E0
F00003E0
F00003E0
F00003E0
F00003E0
F00003E0
F00003E0
F00003E0
F00003E0
F00003E0
F00003E0
F00003E0
F00003E0
F00003E0
F00003E0
F00003E0
F00003E0
F00003E0
F80003C0
F80003C0
F80007C0
F80007C0
7C000FC0
7E000F80
3F003F80
3FC0FF00
1FFFFE00
0FFFFC00
03FFF000
00FFC000
001E0000
001E0000
001C0000
003C0000
003C0000
003FC000
001FC000
001FC000
000FC000
ENDCHAR
STARTCHAR 0173
ENCODING 371
SWIDTH 612 0
DWIDTH 34 0
BBX 25 38 5 -10
BITMAP
F0000F00
F0000F00
F0000F00
F0000F00
F0000F00
F0000F00
F0000F00
F0000F00
F0000F00
F0000F00
F0000F00
F0000F00
F0000F00
F0000F00
F0000F00
F0000F00
F0000F00
F0001F00
F0001F00
F0001F00
F0003F00
F8003F00
FC007F00
7E00EF00
7F83DF00
3FFFDF00
1FFF9F00
0FFE1F00
03F81C00
00003C00
00003C00
00003C00
00003C00
00003C00
00003F80
00003F80
00001F80
00000F80
ENDCHAR
STARTCHAR 0174
ENCODING 372
SWIDTH 612 0
DWIDTH 34 0
BBX 33 50 1 0
BITMAP
000FF00000
000FF00000
001F780000
003E7C0000
003C3C0000
007C1E0000
00F81F0000
0000000000
0000000000
0000000000
F00FF80F80
F00FF80F80
F00F780F00
F01F780F00
F01F780F00
F01E780F00
F81E780F00
F81E780F00
F81E780F00
781E781F00
781E781F00
781E7C1F00
781E7C1E00
781E3C1E00
783E3C1E00
783E3C1E00
7C3C3C1E00
7C3C3C1E00
7C3C3C1E00
3C3C3C3E00
3C3C3C3E00
3C3C3C3E00
3C3C3E3C00
3C3C1E3C00
3C3C1E3C00
3C7C1E3C00
3C781E3C00
3E781E3C00
3E781E3C00
1E781E7C00
1E781E7C00
1E781E7C00
1E781E7800
1E781F7800
1E780F7800
1E780F7800
1EF80F7800
1FF00F7800
1FF00FF800
0FF00FF800
ENDCHAR
STARTCHAR 0175
ENCODING 373
SWIDTH 612 0
DWIDTH 34 0
BBX 32 39 1 0
BITMAP
000FF000
000FF000
001F7800
003E7C00
003C3C00
007C1E00
00F81F00
00000000
00000000
00000000
00000000
F80FF00F
F80FF00F
F80F701F
780F781F
780E781F
781E781E
781E781E
7C1E781E
7C1E781E
7C1E783E
3C1E383E
3C1E3C3C
3C1C3C3C
3C3C3C3C
3E3C3C3C
3E3C3C3C
1E3C3C7C
1E3C3C7C
1E3C1C78
1E3C1E78
1E381E78
1F781E78
0F781E78
0F781EF8
0F781EF0
0F780EF0
0FF80FF0
0FF80FF0
ENDCHAR
STARTCHAR 0176
ENCODING 374
SWIDTH 612 0
DWIDTH 34 0
BBX 31 50 2 0
BITMAP
001FE000
001FE000
003EF000
007CF800
00787800
00F83C00
01F03E00
00000000
00000000
00000000
F800007E
F800007C
7C0000FC
7C0000F8
3E0001F8
3E0001F0
1F0001F0
1F0003E0
0F8003E0
0F8007C0
0FC007C0
07C00F80
07C00F80
03E01F00
03E01F00
01F03E00
01F03E00
00F83E00
00F87C00
007C7C00
007CF800
003EF800
003FF000
001FF000
001FE000
000FE000
00078000
00078000
00078000
00078000
00078000
00078000
00078000
00078000
00078000
00078000
00078000
00078000
00078000
00078000
ENDCHAR
STARTCHAR 0177
ENCODING 375
SWIDTH 612 0
DWIDTH 34 0
BBX 24 50 5 -11
BITMAP
00FF00
00FF00
01F780
03E7C0
03C3C0
07C1E0
0F81F0
000000
000000
000000
000000
F0000F
F0000F
F0000F
F0000F
F0000F
F0000F
F0000F
F0000F
F0000F
F0000F
F0000F
F0000F
F0000F
F0000F
F0000F
F0000F
F0000F
F0000F
F0000F
F8001F
F8001F
F8003F
7C007F
7E00EF
3F83EF
3FFFCF
1FFF8F
07FF0F
01FC0F
00000F
00000F
00000F
00000F
00000F
00001F
0FFFFF
0FFFFF
0FFFFE
0FFFFC
ENDCHAR
STARTCHAR 0178
ENCODING 376
SWIDTH 612 0
DWIDTH 34 0
BBX 31 52 2 0
BITMAP
00E01E00
03F83F00
03F87F00
03F87F80
03F87F80
03F87F00
03F83F00
00E01E00
00000000
00000000
00000000
00000000
F800007E
F800007C
7C0000FC
7C0000F8
3E0001F8
3E0001F0
1F0001F0
1F0003E0
0F8003E0
0F8007C0
0FC007C0
07C00F80
07C00F80
03E01F00
03E01F00
01F03E00
01F03E00
00F83E00
00F87C00
007C7C00
007CF800
003EF800
003FF000
001FF000
001FE000
000FE000
00078000
00078000
00078000
00078000
00078000
00078000
00078000
00078000
00078000
00078000
00078000
00078000
00078000
00078000
ENDCHAR
STARTCHAR 0179
ENCODING 377
SWIDTH 612 0
DWIDTH 34 0
BBX 28 50 3 0
BITMAP
0001F800
0001F000
0003E000
0003C000
0007C000
00078000
000F0000
00000000
00000000
00000000
7FFFFFF0
7FFFFFF0
7FFFFFF0
7FFFFFF0
000001F0
000001F0
000003F0
000007E0
000007C0
00000FC0
00001F80
00003F00
00007E00
0000FC00
0000F800
0001F800
0003F000
0007E000
000FC000
001F8000
001F0000
003E0000
007E0000
00FC0000
01F80000
03F00000
07E00000
07C00000
0FC00000
1F800000
3F000000
7E000000
FC000000
F8000000
F8000000
F0000000
FFFFFFF0
FFFFFFF0
FFFFFFF0
FFFFFFF0
ENDCHAR
STARTCHAR 017A
ENCODING 378
SWIDTH 612 0
DWIDTH 34 0
BBX 24 39 5 0
BITMAP
0007C0
000780
000F80
000F00
001E00
003E00
003C00
000000
000000
000000
000000
FFFFFF
FFFFFF
FFFFFF
FFFFFF
00000F
00001F
00003F
00007E
0000FC
0003F8
0007E0
000FC0
001F80
007F00
00FC00
01F800
03F000
0FE000
1F8000
3F0000
7E0000
FC0000
F00000
F00000
FFFFFF
FFFFFF
FFFFFF
FFFFFF
ENDCHAR
STARTCHAR 017B
ENCODING 379
SWIDTH 612 0
DWIDTH 34 0
BBX 28 52 3 0
BITMAP
00078000
000FC000
001FC000
001FE000
001FE000
001FC000
000FC000
00078000
00000000
00000000
00000000
00000000
7FFFFFF0
7FFFFFF0
7FFFFFF0
7FFFFFF0
000001F0
000001F0
000003F0
000007E0
000007C0
00000FC0
00001F80
00003F00
00007E00
0000FC00
0000F800
0001F800
0003F000
0007E000
000FC000
001F8000
001F0000
003E0000
007E0000
00FC0000
01F80000
03F00000
07E00000
07C00000
0FC00000
1F800000
3F000000
7E000000
FC000000
F8000000
F8000000
F0000000
FFFFFFF0
FFFFFFF0
FFFFFFF0
FFFFFFF0
ENDCHAR
STARTCHAR 017C
ENCODING 380
SWIDTH 612 0
DWIDTH 34 0
BBX 24 41 5 0
BITMAP
003C00
007E00
00FF00
00FF00
00FF00
00FF00
007E00
003C00
000000
000000
000000
000000
000000
FFFFFF
FFFFFF
FFFFFF
FFFFFF
00000F
00001F
00003F
00007E
0000FC
0003F8
0007E0
000FC0
001F80
007F00
00FC00
01F800
03F000
0FE000
1F8000
3F0000
7E0000
FC0000
F00000
F00000
FFFFFF
FFFFFF
FFFFFF
FFFFFF
ENDCHAR
STARTCHAR 017D
ENCODING 381
SWIDTH 612 0
DWIDTH 34 0
BBX 28 50 3 0
BITMAP
01F03E00
01F07C00
00F87800
0078F800
003DF000
003FE000
001FE000
00000000
00000000
00000000
7FFFFFF0
7FFFFFF0
7FFFFFF0
7FFFFFF0
000001F0
000001F0
000003F0
000007E0
000007C0
00000FC0
00001F80
00003F00
00007E00
0000FC00
0000F800
0001F800
0003F000
0007E000
000FC000
001F8000
001F0000
003E0000
007E0000
00FC0000
01F80000
03F00000
07E00000
07C00000
0FC00000
1F800000
3F000000
7E000000
FC000000
F8000000
F8000000
F0000000
FFFFFFF0
FFFFFFF0
FFFFFFF0
FFFFFFF0
ENDCHAR
STARTCHAR 017E
ENCODING 382
SWIDTH 612 0
DWIDTH 34 0
BBX 24 39 5 0
BITMAP
0F81F0
07C1F0
03C3E0
03E3C0
01F780
00FF80
00FF00
000000
000000
000000
000000
FFFFFF
FFFFFF
FFFFFF
FFFFFF
00000F
00001F
00003F
00007E
0000FC
0003F8
0007E0
000FC0
001F80
007F00
00FC00
01F800
03F000
0FE000
1F8000
3F0000
7E0000
FC0000
F00000
F00000
FFFFFF
FFFFFF
FFFFFF
FFFFFF
ENDCHAR
STARTCHAR 017F
ENCODING 383
SWIDTH 612 0
DWIDTH 34 0
BBX 19 40 10 0
BITMAP
03FFE0
0FFFE0
0FFFE0
0FFFE0
1F8000
1F0000
1F0000
1F0000
1F0000
1F0000
1F0000
1F0000
FF0000
FF0000
FF0000
FF0000
1F0000
1F0000
1F0000
1F0000
1F0000
1F0000
1F0000
1F0000
1F0000
1F0000
1F0000
1F0000
1F0000
1F0000
1F0000
1F0000
1F0000
1F0000
1F0000
1F0000
1F0000
1F0000
1F0000
1F0000
ENDCHAR
STARTCHAR 0180
ENCODING 384
SWIDTH 612 0
DWIDTH 34 0
BBX 31 41 0 -1
BITMAP
0F000000
0F000000
0F000000
0F000000
FFFFC000
FFFFC000
FFFFC000
FFFFC000
0F000000
0F000000
0F000000
0F01FC00
0F07FF00
0F0FFFC0
0F1FFFE0
0F3E0FF0
0F7803F8
0FF000F8
0FE0007C
0FC0007C
0F80003E
0F80003E
0F80003E
0F00001E
0F00001E
0F00001E
0F00001E
0F00001E
0F00001E
0F80003E
0F80003E
0F80003E
0FC0007C
0FE0007C
0FF000F8
0FF803F8
0F7E0FF0
0F3FFFE0
0F1FFFC0
0F07FF80
0001FC00
ENDCHAR
STARTCHAR 018F
ENCODING 399
SWIDTH 612 0
DWIDTH 34 0
BBX 28 42 3 -1
BITMAP
003FC000
01FFF800
03FFFC00
07FFFF00
0FF0FF00
1F801F80
3F000FC0
3E0007C0
7E0007E0
7C0003E0
7C0003E0
780001E0
F80001F0
F80001F0
F80001F0
F80001F0
000001F0
000001F0
000001F0
000001F0
000001F0
FFFFFFF0
FFFFFFF0
FFFFFFF0
FFFFFFF0
F80001F0
F80001F0
F80001F0
F80001F0
F80001F0
780001E0
7C0003E0
7C0003E0
7C0007E0
3E0007C0
3F000FC0
1F801F80
0FF07F80
0FFFFF00
03FFFC00
01FFF800
003FC000
ENDCHAR
STARTCHAR 0192
ENCODING 402
SWIDTH 612 0
DWIDTH 34 0
BBX 20 28 7 6
BITMAP
003FF0
007FF0
00FFF0
00FFF0
00F800
00F000
00F000
00F000
00F000
1FFF80
1FFF80
1FFF80
1FFF80
00F000
00F000
00F000
00F000
00F000
00F000
00F000
00F000
00F000
00F000
01F000
FFF000
FFF000
FFE000
FFC000
ENDCHAR
STARTCHAR 01A0
ENCODING 416
SWIDTH 612 0
DWIDTH 34 0
BBX 31 42 2 -1
BITMAP
00FE0000
03FFC078
0FFFE0FC
1FFFF0FE
3F83F9FE
3F00F9FE
7E007CFE
7C007CFE
7C003C7E
F8003E0E
F8003E0E
F8003E0E
F8003FFE
F8003FFC
F8003FF8
F8003E00
F8003E00
F8003E00
F8003E00
F8003E00
F8003E00
F8003E00
F8003E00
F8003E00
F8003E00
F8003E00
F8003E00
F8003E00
F8003E00
F8003E00
F8003E00
F8003E00
F8003E00
78003C00
7C007C00
7C007C00
3E00F800
3F83F800
1FFFF000
0FFFE000
07FFC000
00FE0000
ENDCHAR
STARTCHAR 01A1
ENCODING 417
SWIDTH 612 0
DWIDTH 34 0
BBX 32 30 2 -1
BITMAP
007F0000
03FFC03C
07FFE07E
0FFFF0FF
1FC3F8FF
3F00FCFF
3E007CFF
7C003E7F
7C003E3F
78001E07
78001F07
F8001F07
F8001FFF
F8000FFE
F8000FFC
F8000F00
F8000F00
F8001F00
F8001F00
78001F00
78001F00
7C001E00
7C003E00
3E007C00
3F00FC00
1FC3F800
0FFFF800
07FFF000
03FFC000
00FF0000
ENDCHAR
STARTCHAR 01AF
ENCODING 431
SWIDTH 612 0
DWIDTH 34 0
BBX 32 41 2 -1
BITMAP
F8003C3C
F8003C7E
F8003C7F
F8003CFF
F8003CFF
F8003C7F
F8003C7F
F8003C3F
F8003C07
F8003C07
F8003C07
F8003FFF
F8003FFE
F8003FFC
F8003C00
F8003C00
F8003C00
F8003C00
F8003C00
F8003C00
F8003C00
F8003C00
F8003C00
F8003C00
F8003C00
F8003C00
F8003C00
F8003C00
F8003C00
F8003C00
F8003C00
F8007C00
78007C00
7C007C00
7C00FC00
7E01F800
3FC7F800
1FFFF000
0FFFE000
07FFC000
01FE0000
ENDCHAR
STARTCHAR 01B0
ENCODING 432
SWIDTH 612 0
DWIDTH 34 0
BBX 32 29 2 -1
BITMAP
F8003C3C
F8003C7E
F8003CFF
F8003CFF
F8003CFF
F8003CFF
F8003C7F
F8003C3F
F8003C07
F8003C07
F8003C07
F8003FFF
F8003FFE
F8003FFC
F8003C00
F8003C00
F8003C00
F8003C00
F8003C00
F8007C00
F8007C00
F8007C00
7C00FC00
7C01FC00
7F87BC00
3FFF3C00
1FFF3C00
0FFE3C00
03F80000
ENDCHAR
STARTCHAR 01CD
ENCODING 461
SWIDTH 612 0
DWIDTH 34 0
BBX 32 50 1 0
BITMAP
00F81F00
007C1E00
003C3E00
003E7C00
001E7800
000FF800
000FF000
00000000
00000000
00000000
000FF800
001FF800
001F7800
001E7C00
003E7C00
003E7C00
003E3E00
007C3E00
007C3E00
007C1E00
00781F00
00F81F00
00F81F00
00F80F80
01F00F80
01F00F80
01F00780
01E007C0
03E007C0
03E007C0
03E003E0
07C003E0
07C003E0
07C001F0
0F8001F0
0F8001F0
0FFFFFF0
0FFFFFF8
1FFFFFF8
1FFFFFF8
1F00007C
3E00007C
3E00007C
3E00003E
7C00003E
7C00003E
7C00003E
7C00001F
F800001F
F800001F
ENDCHAR
STARTCHAR 01CE
ENCODING 462
SWIDTH 612 0
DWIDTH 34 0
BBX 29 40 3 -1
BITMAP
0780F800
07C1F000
03E1E000
01E3C000
01F7C000
00FF8000
007F0000
00000000
00000000
00000000
007F0000
03FFC3C0
07FFE3C0
0FFFF3C0
1FE1FBC0
3F803FC0
7E001FC0
7C000FC0
7C000FC0
F80007C0
F80007C0
F00003C0
F00003C0
F00003C0
F00003C0
F00003C0
F00003C0
F00003C0
F00003C0
F80007C0
F80007C0
78000FC0
7C000FC0
7E001FC0
3F003BE0
1FE1FBF8
0FFFF3F8
07FFE1F8
03FFC0F8
007F0000
ENDCHAR
STARTCHAR 01CF
ENCODING 463
SWIDTH 612 0
DWIDTH 34 0
BBX 25 50 5 0
BITMAP
0F81F000
07C1E000
03C3E000
03E7C000
01E78000
00FF8000
00FF0000
00000000
00000000
00000000
FFFFFF80
FFFFFF80
FFFFFF80
FFFFFF80
003C0000
003C0000
003C0000
003C0000
003C0000
003C0000
003C0000
003C0000
003C0000
003C0000
003C0000
003C0000
003C0000
003C0000
003C0000
003C0000
003C0000
003C0000
003C0000
003C0000
003C0000
003C0000
003C0000
003C0000
003C0000
003C0000
003C0000
003C0000
003C0000
003C0000
003C0000
003C0000
FFFFFF80
FFFFFF80
FFFFFF80
FFFFFF80
ENDCHAR
STARTCHAR 01D0
ENCODING 464
SWIDTH 612 0
DWIDTH 34 0
BBX 23 39 6 0
BITMAP
3E07C0
1F07C0
0F0F80
0F8F00
07DE00
03FE00
03FC00
000000
000000
000000
000000
7FFC00
7FFC00
7FFC00
7FFC00
007C00
007C00
007C00
007C00
007C00
007C00
007C00
007C00
007C00
007C00
007C00
007C00
007C00
007C00
007C00
007C00
007C00
007C00
007C00
007C00
FFFFFE
FFFFFE
FFFFFE
FFFFFE
ENDCHAR
STARTCHAR 01D1
ENCODING 465
SWIDTH 612 0
DWIDTH 34 0
BBX 28 51 3 -1
BITMAP
03E07C00
01F07800
00F0F800
00F9F000
0079E000
003FE000
003FC000
00000000
00000000
003FC000
01FFF800
03FFFC00
07FFFF00
0FF07F00
1F801F80
3F000FC0
3E0007C0
3E0007E0
7C0003E0
7C0003E0
7C0001E0
780001F0
F80001F0
F80001F0
F80001F0
F80001F0
F80001F0
F80001F0
F80001F0
F80001F0
F80001F0
F80001F0
F80001F0
F80001F0
F80001F0
F80001F0
F80001F0
F80001F0
780001F0
7C0001E0
7C0003E0
7C0003E0
3E0003E0
3E0007C0
3F000FC0
1F801F80
0FF07F80
07FFFF00
03FFFC00
01FFF800
003FC000
ENDCHAR
STARTCHAR 01D2
ENCODING 466
SWIDTH 612 0
DWIDTH 34 0
BBX 28 40 3 -1
BITMAP
03E07C00
01F07800
00F0F800
00F9F000
0079E000
003FE000
003FC000
00000000
00000000
00000000
003FC000
00FFF800
03FFFC00
07FFFE00
0FF0FF00
1F801F80
3F000FC0
3E0007C0
7C0003E0
7C0003E0
780001F0
F80001F0
F80001F0
F80000F0
F80000F0
F80000F0
F80001F0
F80001F0
F80001F0
780001F0
7C0003E0
7C0003E0
3E0007E0
3F000FC0
1F801F80
0FF07F80
07FFFF00
03FFFC00
00FFF800
003FC000
ENDCHAR
STARTCHAR 01D3
ENCODING 467
SWIDTH 612 0
DWIDTH 34 0
BBX 27 51 4 -1
BITMAP
07C0F800
03E0F000
01E1F000
01F3E000
00F3C000
007FC000
007F8000
00000000
00000000
00000000
F00003E0
F00003E0
F00003E0
F00003E0
F00003E0
F00003E0
F00003E0
F00003E0
F00003E0
F00003E0
F00003E0
F00003E0
F00003E0
F00003E0
F00003E0
F00003E0
F00003E0
F00003E0
F00003E0
F00003E0
F00003E0
F00003E0
F00003E0
F00003E0
F00003E0
F00003E0
F00003E0
F00003E0
F00003E0
F80003C0
F80007C0
F80007C0
F80007C0
7C000F80
7E001F80
3F003F00
1FE0FF00
1FFFFE00
07FFFC00
03FFF000
007F8000
ENDCHAR
STARTCHAR 01D4
ENCODING 468
SWIDTH 612 0
DWIDTH 34 0
BBX 24 40 5 -1
BITMAP
0F81F0
0783E0
07C3C0
03C7C0
01E780
01FF00
00FF00
000000
000000
000000
000000
F0000F
F0000F
F0000F
F0000F
F0000F
F0000F
F0000F
F0000F
F0000F
F0000F
F0000F
F0000F
F0000F
F0000F
F0000F
F0000F
F0000F
F0001F
F0001F
F0001F
F0003F
F8003F
FC007F
7E00EF
7F83CF
3FFFCF
1FFF8F
0FFE0F
03F800
ENDCHAR
STARTCHAR 01D5
ENCODING 469
SWIDTH 612 0
DWIDTH 34 0
BBX 27 56 4 -1
BITMAP
0FFFFE00
0FFFFE00
0FFFFE00
0FFFFE00
00000000
00000000
03807800
0FE0FC00
0FE1FC00
0FE1FE00
0FE1FE00
0FE1FC00
0FE0FC00
03807800
00000000
F00003E0
F00003E0
F00003E0
F00003E0
F00003E0
F00003E0
F00003E0
F00003E0
F00003E0
F00003E0
F00003E0
F00003E0
F00003E0
F00003E0
F00003E0
F00003E0
F00003E0
F00003E0
F00003E0
F00003E0
F00003E0
F00003E0
F00003E0
F00003E0
F00003E0
F00003E0
F00003E0
F00003E0
F00003E0
F80003C0
F80007C0
F80007C0
F80007C0
7C000F80
7E001F80
3F003F00
1FE0FF00
1FFFFE00
07FFFC00
03FFF000
007F8000
ENDCHAR
STARTCHAR 01D6
ENCODING 470
SWIDTH 612 0
DWIDTH 34 0
BBX 24 47 5 -1
BITMAP
3FFFF8
3FFFF8
3FFFF8
3FFFF8
000000
0F01E0
1F83F0
1FC3F8
3FC7F8
3FC3F8
1FC3F8
1F83F0
0F01E0
000000
000000
000000
000000
000000
F0000F
F0000F
F0000F
F0000F
F0000F
F0000F
F0000F
F0000F
F0000F
F0000F
F0000F
F0000F
F0000F
F0000F
F0000F
F0000F
F0000F
F0001F
F0001F
F0001F
F0003F
F8003F
FC007F
7E00EF
7F83CF
3FFFCF
1FFF8F
0FFE0F
03F800
ENDCHAR
STARTCHAR 01D7
ENCODING 471
SWIDTH 612 0
DWIDTH 34 0
BBX 27 58 4 -1
BITMAP
0001F000
0003E000
0007C000
00078000
000F8000
000F0000
001E0000
03807800
0FE0FC00
0FE1FC00
0FE1FE00
0FE1FE00
0FE1FC00
0FE0FC00
03807800
00000000
00000000
F00003E0
F00003E0
F00003E0
F00003E0
F00003E0
F00003E0
F00003E0
F00003E0
F00003E0
F00003E0
F00003E0
F00003E0
F00003E0
F00003E0
F00003E0
F00003E0
F00003E0
F00003E0
F00003E0
F00003E0
F00003E0
F00003E0
F00003E0
F00003E0
F00003E0
F00003E0
F00003E0
F00003E0
F00003E0
F80003C0
F80007C0
F80007C0
F80007C0
7C000F80
7E001F80
3F003F00
1FE0FF00
1FFFFE00
07FFFC00
03FFF000
007F8000
ENDCHAR
STARTCHAR 01D8
ENCODING 472
SWIDTH 612 0
DWIDTH 34 0
BBX 24 50 5 -1
BITMAP
0007E0
0007C0
000F80
000F00
001E00
001E00
003C00
000000
0F00E0
1F83F8
1FC3F8
3FC3F8
3FC3F8
1FC3F8
1F83F8
0F01E0
000000
000000
000000
000000
000000
F0000F
F0000F
F0000F
F0000F
F0000F
F0000F
F0000F
F0000F
F0000F
F0000F
F0000F
F0000F
F0000F
F0000F
F0000F
F0000F
F0000F
F0001F
F0001F
F0001F
F0003F
F8003F
FC007F
7E00EF
7F83CF
3FFFCF
1FFF8F
0FFE0F
03F800
ENDCHAR
STARTCHAR 01D9
ENCODING 473
SWIDTH 612 0
DWIDTH 34 0
BBX 27 58 4 -1
BITMAP
07C0F800
03E0F000
01E1F000
01F3E000
00F3C000
007FC000
007F8000
03807800
0FE0FC00
0FE1FC00
0FE1FE00
0FE1FE00
0FE1FC00
0FE0FC00
03807800
00000000
00000000
F00003E0
F00003E0
F00003E0
F00003E0
F00003E0
F00003E0
F00003E0
F00003E0
F00003E0
F00003E0
F00003E0
F00003E0
F00003E0
F00003E0
F00003E0
F00003E0
F00003E0
F00003E0
F00003E0
F00003E0
F00003E0
F00003E0
F00003E0
F00003E0
F00003E0
F00003E0
F00003E0
F00003E0
F00003E0
F80003C0
F80007C0
F80007C0
F80007C0
7C000F80
7E001F80
3F003F00
1FE0FF00
1FFFFE00
07FFFC00
03FFF000
007F8000
ENDCHAR
STARTCHAR 01DA
ENCODING 474
SWIDTH 612 0
DWIDTH 34 0
BBX 24 50 5 -1
BITMAP
0F81F0
0783E0
07C3C0
03C7C0
01E780
01FF00
00FF00
000000
0F00E0
1F83F8
1FC3F8
3FC3F8
3FC3F8
1FC3F8
1F83F8
0F01E0
000000
000000
000000
000000
000000
F0000F
F0000F
F0000F
F0000F
F0000F
F0000F
F0000F
F0000F
F0000F
F0000F
F0000F
F0000F
F0000F
F0000F
F0000F
F0000F
F0000F
F0001F
F0001F
F0001F
F0003F
F8003F
FC007F
7E00EF
7F83CF
3FFFCF
1FFF8F
0FFE0F
03F800
ENDCHAR
STARTCHAR 01DB
ENCODING 475
SWIDTH 612 0
DWIDTH 34 0
BBX 27 58 4 -1
BITMAP
03F00000
01F00000
00F80000
00780000
007C0000
003C0000
001E0000
03807800
0FE0FC00
0FE1FC00
0FE1FE00
0FE1FE00
0FE1FC00
0FE0FC00
03807800
00000000
00000000
F00003E0
F00003E0
F00003E0
F00003E0
F00003E0
F00003E0
F00003E0
F00003E0
F00003E0
F00003E0
F00003E0
F00003E0
F00003E0
F00003E0
F00003E0
F00003E0
F00003E0
F00003E0
F00003E0
F00003E0
F00003E0
F00003E0
F00003E0
F00003E0
F00003E0
F00003E0
F00003E0
F00003E0
F00003E0
F80003C0
F80007C0
F80007C0
F80007C0
7C000F80
7E001F80
3F003F00
1FE0FF00
1FFFFE00
07FFFC00
03FFF000
007F8000
ENDCHAR
STARTCHAR 01DC
ENCODING 476
SWIDTH 612 0
DWIDTH 34 0
BBX 24 50 5 -1
BITMAP
07E000
03E000
01F000
00F000
00F800
007800
003C00
000000
0F00E0
1F83F8
1FC3F8
3FC3F8
3FC3F8
1FC3F8
1F83F8
0F01E0
000000
000000
000000
000000
000000
F0000F
F0000F
F0000F
F0000F
F0000F
F0000F
F0000F
F0000F
F0000F
F0000F
F0000F
F0000F
F0000F
F0000F
F0000F
F0000F
F0000F
F0001F
F0001F
F0001F
F0003F
F8003F
FC007F
7E00EF
7F83CF
3FFFCF
1FFF8F
0FFE0F
03F800
ENDCHAR
STARTCHAR 01E6
ENCODING 486
SWIDTH 612 0
DWIDTH 34 0
BBX 28 51 3 -1
BITMAP
03E07C00
01F07800
00F0F800
00F9F000
0079E000
003FE000
003FC000
00000000
00000000
003FC000
01FFF800
03FFFC00
07FFFF00
0FF07F80
1F801F80
3F000FC0
3E0007C0
3E0003E0
7C0003E0
7C0001E0
7C0001F0
780001F0
F80001F0
F80001F0
F8000000
F8000000
F8000000
F8000000
F8000000
F8000000
F8000000
F83FFFF0
F83FFFF0
F83FFFF0
F83FFFF0
F80001F0
F80001F0
F80001F0
780001F0
7C0001F0
7C0001F0
7C0003F0
7E0003F0
3E0007F0
3F000FF0
1F801FF0
0FF07DF0
07FFFDF0
03FFF9F0
01FFE1F0
003F8000
ENDCHAR
STARTCHAR 01E7
ENCODING 487
SWIDTH 612 0
DWIDTH 34 0
BBX 27 51 3 -11
BITMAP
03C07800
03E0F800
01E1F000
00F1E000
00FBE000
007FC000
003F8000
00000000
00000000
00000000
00000000
003F8000
01FFE1E0
03FFF1E0
0FFFF9E0
1FE0FDE0
1F803FE0
3F000FE0
7E0007E0
7C0007E0
780003E0
F80003E0
F80001E0
F80001E0
F00001E0
F00001E0
F00001E0
F00001E0
F80001E0
F80001E0
F80003E0
780003E0
7C0007E0
7E0007E0
3F000FE0
3F803DE0
1FE0FDE0
0FFFF9E0
07FFF1E0
01FFE1E0
003F81E0
000001E0
000001E0
000001E0
000001E0
000001E0
000003E0
07FFFFE0
07FFFFE0
07FFFFC0
07FFFF80
ENDCHAR
STARTCHAR 01EA
ENCODING 490
SWIDTH 612 0
DWIDTH 34 0
BBX 28 50 3 -9
BITMAP
003FC000
01FFF800
03FFFC00
07FFFF00
0FF07F00
1F801F80
3F000FC0
3E0007C0
3E0007E0
7C0003E0
7C0003E0
7C0001E0
780001F0
F80001F0
F80001F0
F80001F0
F80001F0
F80001F0
F80001F0
F80001F0
F80001F0
F80001F0
F80001F0
F80001F0
F80001F0
F80001F0
F80001F0
F80001F0
780001F0
7C0001F0
7C0003E0
7C0003E0
7E0003E0
3E0007C0
3F000FC0
1FC01F80
0FF8FF80
0FFFFF00
03FFFE00
01FFF800
007FE000
000F0000
000F0000
000E0000
001E0000
001F0000
001FE000
000FE000
000FE000
0003E000
ENDCHAR
STARTCHAR 01EB
ENCODING 491
SWIDTH 612 0
DWIDTH 34 0
BBX 28 38 3 -9
BITMAP
003FC000
00FFF800
03FFFC00
07FFFF00
0FF0FF80
1F801F80
3F000FC0
3E0007E0
7C0003E0
7C0001E0
780001F0
F80001F0
F80001F0
F80000F0
F80000F0
F80000F0
F80001F0
F80001F0
780001F0
7C0001E0
7C0003E0
3E0003E0
3F0007C0
1F801FC0
1FE07F80
0FFFFF00
03FFFE00
01FFF800
007FE000
000F0000
000F0000
000E0000
001E0000
001F0000
001FE000
000FE000
000FE000
0003E000
ENDCHAR
STARTCHAR 0218
ENCODING 536
SWIDTH 612 0
DWIDTH 34 0
BBX 28 57 3 -16
BITMAP
003FC000
01FFF800
07FFFE00
0FFFFF00
1FF07F80
1F801FC0
3F0007E0
3E0003E0
7C0003F0
7C0001F0
7C0001F0
7C0001F0
7C0001F0
7C0001F0
3E000000
3F000000
3FC00000
1FF80000
0FFFC000
07FFF800
03FFFE00
007FFF80
000FFFC0
00007FE0
00000FE0
000003F0
F00001F0
F00001F0
F00000F0
F00000F0
F80000F0
F80000F0
F80001F0
7C0001F0
7C0001F0
3F0003E0
3F8007E0
1FF03FC0
0FFFFF80
03FFFF00
01FFFC00
003FF000
00000000
00078000
000FC000
001FE000
001FE000
001FE000
001FE000
000FE000
0007E000
0000E000
0000E000
0001E000
000FC000
000FC000
000F8000
ENDCHAR
STARTCHAR 0219
ENCODING 537
SWIDTH 612 0
DWIDTH 34 0
BBX 24 46 5 -17
BITMAP
00FE00
07FFC0
0FFFE0
1FFFF0
3F83F8
3E00FC
3C007C
7C003E
7C003E
7C0018
3C0000
3F0000
3FE000
1FFF80
0FFFF0
03FFF8
000FFC
00007E
00003E
70001E
F0001F
F8001F
F8001E
7C003E
7E007E
3FC1FC
1FFFFC
0FFFF8
03FFE0
00FF80
000000
000000
001C00
003F00
007F00
007F00
007F80
007F80
007F80
001F80
000780
000780
000700
007F00
007F00
007C00
ENDCHAR
STARTCHAR 021A
ENCODING 538
SWIDTH 612 0
DWIDTH 34 0
BBX 28 56 3 -16
BITMAP
FFFFFFF0
FFFFFFF0
FFFFFFF0
FFFFFFF0
000F0000
000F0000
000F0000
000F0000
000F0000
000F0000
000F0000
000F0000
000F0000
000F0000
000F0000
000F0000
000F0000
000F0000
000F0000
000F0000
000F0000
000F0000
000F0000
000F0000
000F0000
000F0000
000F0000
000F0000
000F0000
000F0000
000F0000
000F0000
000F0000
000F0000
000F0000
000F0000
000F0000
000F0000
000F0000
000F0000
00000000
00000000
000F0000
001F8000
003FC000
003FC000
003FC000
003FC000
001FC000
000FC000
0001C000
0001C000
0001C000
001FC000
001F8000
001F0000
ENDCHAR
STARTCHAR 021B
ENCODING 539
SWIDTH 612 0
DWIDTH 34 0
BBX 24 57 4 -17
BITMAP
007800
007800
007800
007800
007800
007800
007800
007800
007800
007800
007800
007800
FFFFFF
FFFFFF
FFFFFF
FFFFFF
007800
007800
007800
007800
007800
007800
007800
007800
007800
007800
007800
007800
007800
007800
007800
007800
007800
007800
007800
007C00
007FFC
007FFC
003FFC
001FFC
000000
000000
000000
001E00
003F00
007F00
007F80
007F80
007F80
003F80
001F80
000380
000780
000700
007F00
007F00
007C00
ENDCHAR
STARTCHAR 0237
ENCODING 567
SWIDTH 612 0
DWIDTH 34 0
BBX 16 39 7 -11
BITMAP
7FFF
7FFF
7FFF
7FFF
000F
000F
000F
000F
000F
000F
000F
000F
000F
000F
000F
000F
000F
000F
000F
000F
000F
000F
000F
000F
000F
000F
000F
000F
000F
000F
000F
000F
000F
000F
001F
FFFF
FFFF
FFFE
FFFC
ENDCHAR
STARTCHAR 0243
ENCODING 579
SWIDTH 612 0
DWIDTH 34 0
BBX 28 40 3 0
BITMAP
FFFFF000
FFFFFE00
FFFFFF00
FFFFFF80
0F003FC0
0F000FE0
0F0003E0
0F0003E0
0F0001E0
0F0001F0
0F0001F0
0F0001F0
0F0001F0
0F0001E0
0F0003E0
0F0003E0
0F0007C0
0F001F80
0FFFFF00
0FFFFC00
0FFFF800
0FFFFE00
0F003F80
0F000FC0
0F0003C0
0F0003E0
0F0001E0
FFFC01F0
FFFC01F0
FFFC01F0
FFFC01F0
0F0001E0
0F0003E0
0F0003E0
0F0007E0
0F003FC0
FFFFFF80
FFFFFF00
FFFFFE00
FFFFF000
ENDCHAR
STARTCHAR 0250
ENCODING 592
SWIDTH 612 0
DWIDTH 34 0
BBX 27 30 3 -1
BITMAP
0003F000
FC0FFC00
FE1FFF00
FE3FFF80
FF7C3FC0
1FF007C0
1FC003C0
1F8003E0
1F8003E0
1F0003E0
1F0003E0
1F0003C0
1F0007C0
1F001FC0
1FFFFF80
1FFFFF00
1FFFFC00
1FFFF000
1F000000
1F000400
1F0003C0
0F0007C0
0F8007C0
0FC00F80
07E01F80
03FFFF00
03FFFE00
00FFFC00
003FF000
00038000
ENDCHAR
STARTCHAR 0251
ENCODING 593
SWIDTH 612 0
DWIDTH 34 0
BBX 29 30 3 -1
BITMAP
007F0000
03FFC3C0
07FFE3C0
0FFFF3C0
1FE1FBC0
3F803FC0
7E001FC0
7C000FC0
7C000FC0
F80007C0
F80007C0
F00003C0
F00003C0
F00003C0
F00003C0
F00003C0
F00003C0
F00003C0
F00003C0
F80007C0
F80007C0
78000FC0
7C000FC0
7E001FC0
3F003BE0
1FE1FBF8
0FFFF3F8
07FFE1F8
03FFC0F8
007F0000
ENDCHAR
STARTCHAR 0252
ENCODING 594
SWIDTH 612 0
DWIDTH 34 0
BBX 29 30 3 -1
BITMAP
0007F000
F81FFE00
FC3FFF00
FC7FFF80
FEFC3FC0
3EE007E0
3FC003E0
1F8001F0
1F0001F0
1F0000F8
1F0000F8
1E0000F8
1E000078
1E000078
1E000078
1E000078
1E000078
1E000078
1E0000F8
1F0000F8
1F0000F8
1F0001F0
1F8001F0
1FC003E0
1FE00FE0
1EFC3FC0
1E7FFF80
1E3FFF00
1E1FFC00
0007F000
ENDCHAR
STARTCHAR 0254
ENCODING 596
SWIDTH 612 0
DWIDTH 34 0
BBX 28 30 3 -1
BITMAP
003F8000
01FFF000
07FFFC00
0FFFFE00
1FE0FF00
1F803F80
3E000FC0
7E0007C0
7C0003E0
780003E0
F80001E0
380001F0
000001F0
000001F0
000001F0
000001F0
000001F0
000001F0
180001F0
F80001E0
780003E0
7C0003E0
7C0007C0
3E000FC0
3F801F80
1FE0FF00
0FFFFE00
07FFFC00
01FFF000
003FC000
ENDCHAR
STARTCHAR 0258
ENCODING 600
SWIDTH 612 0
DWIDTH 34 0
BBX 27 30 4 -1
BITMAP
007F8000
01FFE000
07FFF800
0FFFFC00
1FE1FE00
3F003F00
7E001F80
7C000F80
780007C0
F80007C0
F00003C0
F00003C0
FFFFFFC0
FFFFFFE0
FFFFFFE0
FFFFFFE0
000003E0
000003C0
000003C0
000003C0
300007C0
F8000780
7C000F80
7C001F80
3F003F00
3FE1FE00
1FFFFC00
0FFFF800
03FFE000
007F8000
ENDCHAR
STARTCHAR 0259
ENCODING 601
SWIDTH 612 0
DWIDTH 34 0
BBX 26 30 4 -1
BITMAP
007F8000
03FFE000
07FFF800
0FFFFC00
1FC1FE00
3F003F00
7E001F00
7C000F80
F8000780
380007C0
000003C0
000003C0
000003C0
000003C0
FFFFFFC0
FFFFFFC0
FFFFFFC0
FFFFFFC0
F00003C0
F00003C0
F80007C0
78000780
7C000F80
7E001F00
3F003F00
1FE1FE00
0FFFFC00
07FFF800
03FFE000
007F8000
ENDCHAR
STARTCHAR 0261
ENCODING 609
SWIDTH 612 0
DWIDTH 34 0
BBX 27 40 3 -11
BITMAP
003F8000
01FFE1E0
03FFF1E0
0FFFF9E0
1FE0FDE0
1F803FE0
3F000FE0
7E0007E0
7C0007E0
780003E0
F80003E0
F80001E0
F80001E0
F00001E0
F00001E0
F00001E0
F00001E0
F80001E0
F80001E0
F80003E0
780003E0
7C0007E0
7E0007E0
3F000FE0
3F803DE0
1FE0FDE0
0FFFF9E0
07FFF1E0
01FFE1E0
003F81E0
000001E0
000001E0
000001E0
000001E0
000001E0
000003E0
07FFFFE0
07FFFFE0
07FFFFC0
07FFFF80
ENDCHAR
STARTCHAR 0265
ENCODING 613
SWIDTH 612 0
DWIDTH 34 0
BBX 24 39 5 -11
BITMAP
F0000F
F0000F
F0000F
F0000F
F0000F
F0000F
F0000F
F0000F
F0000F
F0000F
F0000F
F0000F
F0000F
F0000F
F0000F
F0000F
F0000F
F0000F
F0001F
F8001F
F8001F
F8003F
7C007F
7E00EF
3F83EF
3FFFCF
1FFF8F
0FFF0F
01FC0F
00000F
00000F
00000F
00000F
00000F
00000F
00000F
00000F
00000F
00000F
ENDCHAR
STARTCHAR 026F
ENCODING 623
SWIDTH 612 0
DWIDTH 34 0
BBX 29 29 3 -1
BITMAP
F00F00F8
F00F00F8
F00F00F8
F00F00F8
F00F00F8
F00F00F8
F00F00F8
F00F00F8
F00F00F8
F00F00F8
F00F00F8
F00F00F8
F00F00F8
F00F00F8
F00F00F8
F00F00F8
F00F00F8
F00F00F8
F00F00F8
F00F00F8
F00F00F8
F00F00F8
F01F80F8
F81F81F8
FC7FE7F8
FFF7FEF8
7FE3FEF8
3FC3FCF8
1F80F800
ENDCHAR
STARTCHAR 0279
ENCODING 633
SWIDTH 612 0
DWIDTH 34 0
BBX 29 29 3 -1
BITMAP
001FFFF8
001FFFF8
001FFFF8
001FFFF8
00003C00
00003C00
00003C00
00003C00
00003C00
00003C00
00003C00
00003C00
00003C00
00003C00
00003C00
00003C00
00003C00
38003C00
F8003C00
F8007C00
F8007C00
7C007C00
7C00FC00
7E01FC00
3FC7BFF0
3FFFBFF0
1FFF3FF0
0FFE3FF0
03F80000
ENDCHAR
STARTCHAR 0287
ENCODING 647
SWIDTH 612 0
DWIDTH 34 0
BBX 24 39 6 -11
BITMAP
7FF800
7FFC00
7FFC00
7FFE00
003E00
003E00
003E00
003E00
003E00
003E00
003E00
003E00
003E00
003E00
003E00
003E00
003E00
003E00
003E00
003E00
003E00
003E00
003E00
003E00
FFFFFF
FFFFFF
FFFFFF
FFFFFF
003E00
003E00
003E00
003E00
003E00
003E00
003E00
003E00
003E00
003E00
003E00
ENDCHAR
STARTCHAR 028C
ENCODING 652
SWIDTH 612 0
DWIDTH 34 0
BBX 28 28 3 0
BITMAP
003FE000
007FE000
007DE000
0079F000
00F9F000
00F8F000
00F0F800
01F0F800
01F07800
03E07C00
03E07C00
03E03C00
07C03E00
07C03E00
07C01E00
0F801F00
0F801F00
0F801F00
1F000F80
1F000F80
1F000F80
3E0007C0
3E0007C0
3E0007E0
7C0003E0
7C0003E0
7C0003F0
F80001F0
ENDCHAR
STARTCHAR 028D
ENCODING 653
SWIDTH 612 0
DWIDTH 34 0
BBX 32 28 1 0
BITMAP
0FF80FF0
0FF80FF0
0F781EF0
0F781EF0
0F781EF8
0F781E78
1F781E78
1E381E78
1E3C1E78
1E3C1C78
1E3C3C7C
1E3C3C7C
3E3C3C3C
3E3C3C3C
3C3C3C3C
3C1C3C3C
3C1E3C3C
3C1E383E
7C1E783E
7C1E781E
7C1E781E
781E781E
781E781E
780E781F
780F781F
F80F701F
F80FF00F
F80FF00F
ENDCHAR
STARTCHAR 028E
ENCODING 654
SWIDTH 612 0
DWIDTH 34 0
BBX 28 40 3 0
BITMAP
0003FFE0
0007FFE0
000FFFE0
000FFFE0
000F8000
000F0000
000F0000
000F0000
000F0000
000F0000
000F0000
000F0000
003FC000
003FE000
007FE000
007DE000
0079F000
00F9F000
00F8F000
00F0F800
01F0F800
01F07800
03E07C00
03E07C00
03E03E00
07C03E00
07C03E00
07C01F00
0F801F00
0F801F00
0F800F80
1F000F80
1F000F80
3F0007C0
3E0007C0
3E0007E0
7E0003E0
7C0003E0
7C0003F0
F80001F0
ENDCHAR
STARTCHAR 029E
ENCODING 670
SWIDTH 612 0
DWIDTH 34 0
BBX 23 39 4 -11
BITMAP
FC003E
7E003E
3F003E
1F803E
0FC03E
07E03E
03F03E
01F83E
00FC3E
007E3E
003F3E
001FBE
000FFE
0007FE
0007FE
000FFE
001FBE
003F3E
007E3E
00FC3E
00F83E
01F03E
03F03E
07E03E
0FC03E
1F803E
3F003E
7E003E
00003E
00003E
00003E
00003E
00003E
00003E
00003E
00003E
00003E
00003E
00003E
ENDCHAR
STARTCHAR 02C6
ENCODING 710
SWIDTH 612 0
DWIDTH 34 0
BBX 16 7 9 32
BITMAP
0FF0
0FF0
1F78
3E7C
3C3C
7C1E
F81F
ENDCHAR
STARTCHAR 02C7
ENCODING 711
SWIDTH 612 0
DWIDTH 34 0
BBX 16 7 9 32
BITMAP
F81F
7C1E
3C3E
3E7C
1E78
0FF8
0FF0
ENDCHAR
STARTCHAR 02C9
ENCODING 713
SWIDTH 612 0
DWIDTH 34 0
BBX 16 4 9 32
BITMAP
FFFF
FFFF
FFFF
FFFF
ENDCHAR
STARTCHAR 02D8
ENCODING 728
SWIDTH 612 0
DWIDTH 34 0
BBX 12 7 11 32
BITMAP
F0F0
F0F0
F9F0
7FF0
7FE0
3FC0
1F80
ENDCHAR
STARTCHAR 02D9
ENCODING 729
SWIDTH 612 0
DWIDTH 34 0
BBX 8 8 13 33
BITMAP
3C
7E
FF
FF
FF
FF
7E
3C
ENDCHAR
STARTCHAR 02DA
ENCODING 730
SWIDTH 612 0
DWIDTH 34 0
BBX 12 11 11 32
BITMAP
0F80
3FC0
7FE0
78E0
F0F0
F0F0
F0F0
78E0
7FE0
3FC0
0F80
ENDCHAR
STARTCHAR 02DB
ENCODING 731
SWIDTH 612 0
DWIDTH 34 0
BBX 8 11 14 -9
BITMAP
3C
78
78
78
70
F0
F8
FF
7F
7F
1F
ENDCHAR
STARTCHAR 02DC
ENCODING 732
SWIDTH 612 0
DWIDTH 34 0
BBX 19 9 8 31
BITMAP
0F8000
1FC180
3FC1C0
7FE3E0
F9E7C0
F0FF80
70FF00
207E00
003C00
ENDCHAR
STARTCHAR 02DD
ENCODING 733
SWIDTH 612 0
DWIDTH 34 0
BBX 17 7 9 32
BITMAP
1F9F80
1F1F00
3E3E00
3C3C00
7C7C00
787800
F0F000
ENDCHAR
STARTCHAR 0301
ENCODING 769
SWIDTH 612 0
DWIDTH 34 0
BBX 9 7 13 40
BITMAP
1F80
1E00
3E00
3C00
7800
7800
F000
ENDCHAR
STARTCHAR 0309
ENCODING 777
SWIDTH 612 0
DWIDTH 34 0
BBX 10 12 12 31
BITMAP
1F00
7F80
FFC0
E1C0
61C0
01C0
F1C0
FFC0
FF80
EF00
6000
7000
ENDCHAR
STARTCHAR 031B
ENCODING 795
SWIDTH 612 0
DWIDTH 34 0
BBX 10 14 12 26
BITMAP
0F00
1F80
3FC0
3FC0
3FC0
3FC0
1FC0
0FC0
01C0
01C0
01C0
FFC0
FF80
FF00
ENDCHAR
STARTCHAR 0323
ENCODING 803
SWIDTH 612 0
DWIDTH 34 0
BBX 8 8 13 -12
BITMAP
3C
7E
FF
FF
FF
FF
7E
3C
ENDCHAR
STARTCHAR 032E
ENCODING 814
SWIDTH 612 0
DWIDTH 34 0
BBX 12 7 11 -11
BITMAP
F0F0
F0F0
F9F0
7FF0
7FE0
3FC0
1F80
ENDCHAR
STARTCHAR 0331
ENCODING 817
SWIDTH 612 0
DWIDTH 34 0
BBX 16 4 9 -8
BITMAP
FFFF
FFFF
FFFF
FFFF
ENDCHAR
STARTCHAR 03C0
ENCODING 960
SWIDTH 612 0
DWIDTH 34 0
BBX 27 28 4 0
BITMAP
FFFFFFE0
FFFFFFE0
FFFFFFE0
FFFFFFE0
0F003E00
0F003E00
0F003E00
0F003E00
0F003E00
0F003E00
0F003E00
0F003E00
0F003E00
0F003E00
0F003E00
0F003E00
0F003E00
0F003E00
0F003E00
0F003E00
0F003E00
0F003E00
0F003E00
0F003E00
0F003FE0
0F001FE0
0F001FE0
0F000FE0
ENDCHAR
STARTCHAR 1E0C
ENCODING 7692
SWIDTH 612 0
DWIDTH 34 0
BBX 27 52 4 -12
BITMAP
FFFFC000
FFFFF800
FFFFFC00
FFFFFF00
1F00FF00
1F001F80
1F000FC0
1F0007C0
1F0007C0
1F0003C0
1F0003E0
1F0003E0
1F0003E0
1F0003E0
1F0003E0
1F0003E0
1F0003E0
1F0003E0
1F0003E0
1F0003E0
1F0003E0
1F0003E0
1F0003E0
1F0003E0
1F0003E0
1F0003E0
1F0003E0
1F0003E0
1F0003E0
1F0003E0
1F0003C0
1F0007C0
1F0007C0
1F000FC0
1F001F80
1F00FF00
FFFFFF00
FFFFFC00
FFFFF800
FFFFC000
00000000
00000000
00000000
00000000
001E0000
003F0000
007F8000
007F8000
007F8000
007F8000
003F0000
001E0000
ENDCHAR
STARTCHAR 1E0D
ENCODING 7693
SWIDTH 612 0
DWIDTH 34 0
BBX 28 52 3 -12
BITMAP
000001F0
000001F0
000001F0
000001F0
000001F0
000001F0
000001F0
000001F0
000001F0
000001F0
000001F0
003F81F0
01FFE1F0
03FFF1F0
07FFF9F0
0FF0FDF0
1F801DF0
3F000FF0
3E0007F0
7C0003F0
7C0003F0
780001F0
780001F0
F80001F0
F80001F0
F80001F0
F80001F0
F80001F0
F80001F0
780001F0
780001F0
7C0003F0
7C0003F0
3E0007F0
3F000FF0
1F801FF0
0FF0FDF0
0FFFFDF0
03FFF9F0
01FFE1F0
003F8000
00000000
00000000
00000000
000F0000
001F8000
003F8000
003FC000
003FC000
003F8000
001F8000
000F0000
ENDCHAR
STARTCHAR 1E0E
ENCODING 7694
SWIDTH 612 0
DWIDTH 34 0
BBX 27 48 4 -8
BITMAP
FFFFC000
FFFFF800
FFFFFC00
FFFFFF00
1F00FF00
1F001F80
1F000FC0
1F0007C0
1F0007C0
1F0003C0
1F0003E0
1F0003E0
1F0003E0
1F0003E0
1F0003E0
1F0003E0
1F0003E0
1F0003E0
1F0003E0
1F0003E0
1F0003E0
1F0003E0
1F0003E0
1F0003E0
1F0003E0
1F0003E0
1F0003E0
1F0003E0
1F0003E0
1F0003E0
1F0003C0
1F0007C0
1F0007C0
1F000FC0
1F001F80
1F00FF00
FFFFFF00
FFFFFC00
FFFFF800
FFFFC000
00000000
00000000
00000000
00000000
03FFFC00
03FFFC00
03FFFC00
03FFFC00
ENDCHAR
STARTCHAR 1E0F
ENCODING 7695
SWIDTH 612 0
DWIDTH 34 0
BBX 28 48 3 -8
BITMAP
000001F0
000001F0
000001F0
000001F0
000001F0
000001F0
000001F0
000001F0
000001F0
000001F0
000001F0
003F81F0
01FFE1F0
03FFF1F0
07FFF9F0
0FF0FDF0
1F801DF0
3F000FF0
3E0007F0
7C0003F0
7C0003F0
780001F0
780001F0
F80001F0
F80001F0
F80001F0
F80001F0
F80001F0
F80001F0
780001F0
780001F0
7C0003F0
7C0003F0
3E0007F0
3F000FF0
1F801FF0
0FF0FDF0
0FFFFDF0
03FFF9F0
01FFE1F0
003F8000
00000000
00000000
00000000
03FFFC00
03FFFC00
03FFFC00
03FFFC00
ENDCHAR
STARTCHAR 1E20
ENCODING 7712
SWIDTH 612 0
DWIDTH 34 0
BBX 28 48 3 -1
BITMAP
03FFFC00
03FFFC00
03FFFC00
03FFFC00
00000000
00000000
003FC000
01FFF800
03FFFC00
07FFFF00
0FF07F80
1F801F80
3F000FC0
3E0007C0
3E0003E0
7C0003E0
7C0001E0
7C0001F0
780001F0
F80001F0
F80001F0
F8000000
F8000000
F8000000
F8000000
F8000000
F8000000
F8000000
F83FFFF0
F83FFFF0
F83FFFF0
F83FFFF0
F80001F0
F80001F0
F80001F0
780001F0
7C0001F0
7C0001F0
7C0003F0
7E0003F0
3E0007F0
3F000FF0
1F801FF0
0FF07DF0
07FFFDF0
03FFF9F0
01FFE1F0
003F8000
ENDCHAR
STARTCHAR 1E21
ENCODING 7713
SWIDTH 612 0
DWIDTH 34 0
BBX 27 47 3 -11
BITMAP
03FFF800
03FFF800
03FFF800
03FFF800
00000000
00000000
00000000
003F8000
01FFE1E0
03FFF1E0
0FFFF9E0
1FE0FDE0
1F803FE0
3F000FE0
7E0007E0
7C0007E0
780003E0
F80003E0
F80001E0
F80001E0
F00001E0
F00001E0
F00001E0
F00001E0
F80001E0
F80001E0
F80003E0
780003E0
7C0007E0
7E0007E0
3F000FE0
3F803DE0
1FE0FDE0
0FFFF9E0
07FFF1E0
01FFE1E0
003F81E0
000001E0
000001E0
000001E0
000001E0
000001E0
000003E0
07FFFFE0
07FFFFE0
07FFFFC0
07FFFF80
ENDCHAR
STARTCHAR 1E24
ENCODING 7716
SWIDTH 612 0
DWIDTH 34 0
BBX 26 52 4 -12
BITMAP
F80007C0
F80007C0
F80007C0
F80007C0
F80007C0
F80007C0
F80007C0
F80007C0
F80007C0
F80007C0
F80007C0
F80007C0
F80007C0
F80007C0
F80007C0
F80007C0
F80007C0
F80007C0
FFFFFFC0
FFFFFFC0
FFFFFFC0
FFFFFFC0
F80007C0
F80007C0
F80007C0
F80007C0
F80007C0
F80007C0
F80007C0
F80007C0
F80007C0
F80007C0
F80007C0
F80007C0
F80007C0
F80007C0
F80007C0
F80007C0
F80007C0
F80007C0
00000000
00000000
00000000
00000000
001E0000
003F0000
007F8000
007F8000
007F8000
007F8000
003F0000
001E0000
ENDCHAR
STARTCHAR 1E25
ENCODING 7717
SWIDTH 612 0
DWIDTH 34 0
BBX 24 52 5 -12
BITMAP
F00000
F00000
F00000
F00000
F00000
F00000
F00000
F00000
F00000
F00000
F00000
F01FC0
F07FF0
F1FFF8
F3FFFC
F3C1FE
F7007E
FE003F
FC001F
FC001F
F8000F
F8000F
F0000F
F0000F
F0000F
F0000F
F0000F
F0000F
F0000F
F0000F
F0000F
F0000F
F0000F
F0000F
F0000F
F0000F
F0000F
F0000F
F0000F
F0000F
000000
000000
000000
000000
003C00
007E00
00FF00
00FF00
00FF00
00FF00
007E00
003C00
ENDCHAR
STARTCHAR 1E2A
ENCODING 7722
SWIDTH 612 0
DWIDTH 34 0
BBX 26 51 4 -11
BITMAP
F80007C0
F80007C0
F80007C0
F80007C0
F80007C0
F80007C0
F80007C0
F80007C0
F80007C0
F80007C0
F80007C0
F80007C0
F80007C0
F80007C0
F80007C0
F80007C0
F80007C0
F80007C0
FFFFFFC0
FFFFFFC0
FFFFFFC0
FFFFFFC0
F80007C0
F80007C0
F80007C0
F80007C0
F80007C0
F80007C0
F80007C0
F80007C0
F80007C0
F80007C0
F80007C0
F80007C0
F80007C0
F80007C0
F80007C0
F80007C0
F80007C0
F80007C0
00000000
00000000
00000000
00000000
01E1E000
01E1E000
01F3E000
00FFE000
00FFC000
007F8000
003F0000
ENDCHAR
STARTCHAR 1E2B
ENCODING 7723
SWIDTH 612 0
DWIDTH 34 0
BBX 24 51 5 -11
BITMAP
F00000
F00000
F00000
F00000
F00000
F00000
F00000
F00000
F00000
F00000
F00000
F01FC0
F07FF0
F1FFF8
F3FFFC
F3C1FE
F7007E
FE003F
FC001F
FC001F
F8000F
F8000F
F0000F
F0000F
F0000F
F0000F
F0000F
F0000F
F0000F
F0000F
F0000F
F0000F
F0000F
F0000F
F0000F
F0000F
F0000F
F0000F
F0000F
F0000F
000000
000000
000000
000000
03C3C0
03C3C0
03E7C0
01FFC0
01FF80
00FF00
007E00
ENDCHAR
STARTCHAR 1E36
ENCODING 7734
SWIDTH 612 0
DWIDTH 34 0
BBX 25 52 5 -12
BITMAP
F8000000
F8000000
F8000000
F8000000
F8000000
F8000000
F8000000
F8000000
F8000000
F8000000
F8000000
F8000000
F8000000
F8000000
F8000000
F8000000
F8000000
F8000000
F8000000
F8000000
F8000000
F8000000
F8000000
F8000000
F8000000
F8000000
F8000000
F8000000
F8000000
F8000000
F8000000
F8000000
F8000000
F8000000
F8000000
F8000000
FFFFFF80
FFFFFF80
FFFFFF80
FFFFFF80
00000000
00000000
00000000
00000000
001C0000
007F0000
007F0000
007F0000
007F0000
007F0000
007F0000
001C0000
ENDCHAR
STARTCHAR 1E37
ENCODING 7735
SWIDTH 612 0
DWIDTH 34 0
BBX 24 52 5 -12
BITMAP
FFFC00
FFFC00
FFFC00
FFFC00
003C00
003C00
003C00
003C00
003C00
003C00
003C00
003C00
003C00
003C00
003C00
003C00
003C00
003C00
003C00
003C00
003C00
003C00
003C00
003C00
003C00
003C00
003C00
003C00
003C00
003C00
003C00
003C00
003C00
003C00
003C00
003C00
FFFFFF
FFFFFF
FFFFFF
FFFFFF
000000
000000
000000
000000
003C00
007E00
00FF00
00FF00
00FF00
00FF00
007E00
003C00
ENDCHAR
STARTCHAR 1E38
ENCODING 7736
SWIDTH 612 0
DWIDTH 34 0
BBX 25 59 5 -12
BITMAP
07FFF000
07FFF000
07FFF000
07FFF000
00000000
00000000
00000000
F8000000
F8000000
F8000000
F8000000
F8000000
F8000000
F8000000
F8000000
F8000000
F8000000
F8000000
F8000000
F8000000
F8000000
F8000000
F8000000
F8000000
F8000000
F8000000
F8000000
F8000000
F8000000
F8000000
F8000000
F8000000
F8000000
F8000000
F8000000
F8000000
F8000000
F8000000
F8000000
F8000000
F8000000
F8000000
F8000000
FFFFFF80
FFFFFF80
FFFFFF80
FFFFFF80
00000000
00000000
00000000
00000000
001C0000
007F0000
007F0000
007F0000
007F0000
007F0000
007F0000
001C0000
ENDCHAR
STARTCHAR 1E39
ENCODING 7737
SWIDTH 612 0
DWIDTH 34 0
BBX 24 59 5 -11
BITMAP
FFFC00
FFFC00
FFFC00
FFFC00
000000
000000
000000
000000
FFFC00
FFFC00
FFFC00
FFFC00
003C00
003C00
003C00
003C00
003C00
003C00
003C00
003C00
003C00
003C00
003C00
003C00
003C00
003C00
003C00
003C00
003C00
003C00
003C00
003C00
003C00
003C00
003C00
003C00
003C00
003C00
003C00
003C00
003C00
003C00
003C00
003C00
FFFFFF
FFFFFF
FFFFFF
FFFFFF
000000
000000
000000
003C00
007E00
00FF00
00FF00
00FF00
00FF00
007E00
003C00
ENDCHAR
STARTCHAR 1E3A
ENCODING 7738
SWIDTH 612 0
DWIDTH 34 0
BBX 25 48 5 -8
BITMAP
F8000000
F8000000
F8000000
F8000000
F8000000
F8000000
F8000000
F8000000
F8000000
F8000000
F8000000
F8000000
F8000000
F8000000
F8000000
F8000000
F8000000
F8000000
F8000000
F8000000
F8000000
F8000000
F8000000
F8000000
F8000000
F8000000
F8000000
F8000000
F8000000
F8000000
F8000000
F8000000
F8000000
F8000000
F8000000
F8000000
FFFFFF80
FFFFFF80
FFFFFF80
FFFFFF80
00000000
00000000
00000000
00000000
07FFF000
07FFF000
07FFF000
07FFF000
ENDCHAR
STARTCHAR 1E3B
ENCODING 7739
SWIDTH 612 0
DWIDTH 34 0
BBX 24 48 5 -8
BITMAP
FFFC00
FFFC00
FFFC00
FFFC00
003C00
003C00
003C00
003C00
003C00
003C00
003C00
003C00
003C00
003C00
003C00
003C00
003C00
003C00
003C00
003C00
003C00
003C00
003C00
003C00
003C00
003C00
003C00
003C00
003C00
003C00
003C00
003C00
003C00
003C00
003C00
003C00
FFFFFF
FFFFFF
FFFFFF
FFFFFF
000000
000000
000000
000000
0FFFF0
0FFFF0
0FFFF0
0FFFF0
ENDCHAR
STARTCHAR 1E42
ENCODING 7746
SWIDTH 612 0
DWIDTH 34 0
BBX 29 52 3 -12
BITMAP
FF800FF8
FF800FF8
F7801FF8
F7801EF8
F7801EF8
F7801EF8
F7801EF8
F7C01EF8
F3C01EF8
F3C03EF8
F3C03CF8
F3C03CF8
F3C03CF8
F3C03CF8
F3E03CF8
F3E03CF8
F1E07CF8
F1E07CF8
F1E078F8
F1E078F8
F1E078F8
F1F078F8
F1F078F8
F0F0F8F8
F0F0F8F8
F0F0F0F8
F0F0F0F8
F0F0F0F8
F0F0F0F8
F0F8F0F8
F079F0F8
F079F0F8
F079E0F8
F079E0F8
F079E0F8
F079E0F8
F07DE0F8
F03DE0F8
F03FE0F8
F03FC0F8
00000000
00000000
00000000
00000000
000F0000
001F8000
003FC000
003FC000
003FC000
003FC000
001F8000
000F0000
ENDCHAR
STARTCHAR 1E43
ENCODING 7747
SWIDTH 612 0
DWIDTH 34 0
BBX 29 41 3 -12
BITMAP
00F81F80
F3FC3FC0
F7FE7FE0
F7FEFFF0
FE3FE3F0
F81FC1F0
F80F80F8
F00F80F8
F00F00F8
F00F00F8
F00F00F8
F00F00F8
F00F00F8
F00F00F8
F00F00F8
F00F00F8
F00F00F8
F00F00F8
F00F00F8
F00F00F8
F00F00F8
F00F00F8
F00F00F8
F00F00F8
F00F00F8
F00F00F8
F00F00F8
F00F00F8
F00F00F8
00000000
00000000
00000000
00000000
000F0000
001F8000
003FC000
003FC000
003FC000
003FC000
001F8000
000F0000
ENDCHAR
STARTCHAR 1E44
ENCODING 7748
SWIDTH 612 0
DWIDTH 34 0
BBX 26 52 4 0
BITMAP
00038000
000FE000
000FE000
000FE000
000FE000
000FE000
000FE000
00038000
00000000
00000000
00000000
00000000
FFC007C0
FFC007C0
FBC007C0
FBE007C0
FBE007C0
FBE007C0
F9E007C0
F9F007C0
F9F007C0
F8F007C0
F8F807C0
F8F807C0
F87807C0
F87C07C0
F87C07C0
F87C07C0
F83C07C0
F83E07C0
F83E07C0
F81E07C0
F81F07C0
F81F07C0
F80F07C0
F80F87C0
F80F87C0
F80F87C0
F80787C0
F807C7C0
F807C7C0
F803C7C0
F803E7C0
F803E7C0
F801E7C0
F801E7C0
F801F7C0
F801F7C0
F800F7C0
F800FFC0
F800FFC0
F8007FC0
ENDCHAR
STARTCHAR 1E45
ENCODING 7749
SWIDTH 612 0
DWIDTH 34 0
BBX 24 41 5 0
BITMAP
000F00
001F80
003FC0
003FC0
003FC0
003FC0
001F80
000F00
000000
000000
000000
000000
003F80
F0FFF0
F1FFF8
F3FFFC
F7C1FE
F7007E
FE003F
FC001F
FC001F
F8000F
F8000F
F0000F
F0000F
F0000F
F0000F
F0000F
F0000F
F0000F
F0000F
F0000F
F0000F
F0000F
F0000F
F0000F
F0000F
F0000F
F0000F
F0000F
F0000F
ENDCHAR
STARTCHAR 1E46
ENCODING 7750
SWIDTH 612 0
DWIDTH 34 0
BBX 26 52 4 -12
BITMAP
FFC007C0
FFC007C0
FBC007C0
FBE007C0
FBE007C0
FBE007C0
F9E007C0
F9F007C0
F9F007C0
F8F007C0
F8F807C0
F8F807C0
F87807C0
F87C07C0
F87C07C0
F87C07C0
F83C07C0
F83E07C0
F83E07C0
F81E07C0
F81F07C0
F81F07C0
F80F07C0
F80F87C0
F80F87C0
F80F87C0
F80787C0
F807C7C0
F807C7C0
F803C7C0
F803E7C0
F803E7C0
F801E7C0
F801E7C0
F801F7C0
F801F7C0
F800F7C0
F800FFC0
F800FFC0
F8007FC0
00000000
00000000
00000000
00000000
001E0000
003F0000
007F8000
007F8000
007F8000
007F8000
003F0000
001E0000
ENDCHAR
STARTCHAR 1E47
ENCODING 7751
SWIDTH 612 0
DWIDTH 34 0
BBX 24 41 5 -12
BITMAP
003F80
F0FFF0
F1FFF8
F3FFFC
F7C1FE
F7007E
FE003F
FC001F
FC001F
F8000F
F8000F
F0000F
F0000F
F0000F
F0000F
F0000F
F0000F
F0000F
F0000F
F0000F
F0000F
F0000F
F0000F
F0000F
F0000F
F0000F
F0000F
F0000F
F0000F
000000
000000
000000
000000
003C00
007E00
00FF00
00FF00
00FF00
00FF00
007E00
003C00
ENDCHAR
STARTCHAR 1E48
ENCODING 7752
SWIDTH 612 0
DWIDTH 34 0
BBX 26 48 4 -8
BITMAP
FFC007C0
FFC007C0
FBC007C0
FBE007C0
FBE007C0
FBE007C0
F9E007C0
F9F007C0
F9F007C0
F8F007C0
F8F807C0
F8F807C0
F87807C0
F87C07C0
F87C07C0
F87C07C0
F83C07C0
F83E07C0
F83E07C0
F81E07C0
F81F07C0
F81F07C0
F80F07C0
F80F87C0
F80F87C0
F80F87C0
F80787C0
F807C7C0
F807C7C0
F803C7C0
F803E7C0
F803E7C0
F801E7C0
F801E7C0
F801F7C0
F801F7C0
F800F7C0
F800FFC0
F800FFC0
F8007FC0
00000000
00000000
00000000
00000000
07FFF800
07FFF800
07FFF800
07FFF800
ENDCHAR
STARTCHAR 1E49
ENCODING 7753
SWIDTH 612 0
DWIDTH 34 0
BBX 24 37 5 -8
BITMAP
003F80
F0FFF0
F1FFF8
F3FFFC
F7C1FE
F7007E
FE003F
FC001F
FC001F
F8000F
F8000F
F0000F
F0000F
F0000F
F0000F
F0000F
F0000F
F0000F
F0000F
F0000F
F0000F
F0000F
F0000F
F0000F
F0000F
F0000F
F0000F
F0000F
F0000F
000000
000000
000000
000000
0FFFF0
0FFFF0
0FFFF0
0FFFF0
ENDCHAR
STARTCHAR 1E5A
ENCODING 7770
SWIDTH 612 0
DWIDTH 34 0
BBX 26 52 5 -12
BITMAP
FFFFC000
FFFFF000
FFFFFC00
FFFFFE00
F001FF00
F0003F00
F0001F80
F0000F80
F00007C0
F00007C0
F00007C0
F00007C0
F00007C0
F00007C0
F0000780
F0000F80
F0000F80
F0001F00
F0007E00
FFFFFC00
FFFFF800
FFFFFC00
FFFFFF00
F0003F00
F0001F00
F0000F00
F0000F00
F0000F00
F0000F00
F0000F00
F0000F00
F0000F00
F0000F00
F0000F00
F0000F00
F0000F00
F0000F00
F0000F00
F0000F00
F0000F00
00000000
00000000
00000000
00000000
003C0000
007E0000
00FF0000
00FF0000
00FF0000
00FF0000
007E0000
003C0000
ENDCHAR
STARTCHAR 1E5B
ENCODING 7771
SWIDTH 612 0
DWIDTH 34 0
BBX 28 41 3 -12
BITMAP
0000FC00
FFC3FF00
FFCFFF80
FFCFFFC0
FFDE1FC0
03F807E0
03F003E0
03F001F0
03E001F0
03E001F0
03E001F0
03C001C0
03C00000
03C00000
03C00000
03C00000
03C00000
03C00000
03C00000
03C00000
03C00000
03C00000
03C00000
03C00000
03C00000
FFFF8000
FFFF8000
FFFF8000
FFFF8000
00000000
00000000
00000000
00000000
03C00000
07E00000
07F00000
0FF00000
0FF00000
07F00000
07E00000
03C00000
ENDCHAR
STARTCHAR 1E5C
ENCODING 7772
SWIDTH 612 0
DWIDTH 34 0
BBX 26 59 5 -12
BITMAP
0FFFF000
0FFFF000
0FFFF000
0FFFF000
00000000
00000000
00000000
FFFFC000
FFFFF000
FFFFFC00
FFFFFE00
F001FF00
F0003F00
F0001F80
F0000F80
F00007C0
F00007C0
F00007C0
F00007C0
F00007C0
F00007C0
F0000780
F0000F80
F0000F80
F0001F00
F0007E00
FFFFFC00
FFFFF800
FFFFFC00
FFFFFF00
F0003F00
F0001F00
F0000F00
F0000F00
F0000F00
F0000F00
F0000F00
F0000F00
F0000F00
F0000F00
F0000F00
F0000F00
F0000F00
F0000F00
F0000F00
F0000F00
F0000F00
00000000
00000000
00000000
00000000
003C0000
007E0000
00FF0000
00FF0000
00FF0000
00FF0000
007E0000
003C0000
ENDCHAR
STARTCHAR 1E5D
ENCODING 7773
SWIDTH 612 0
DWIDTH 34 0
BBX 28 48 3 -12
BITMAP
03FFFC00
03FFFC00
03FFFC00
03FFFC00
00000000
00000000
00000000
0000FC00
FFC3FF00
FFCFFF80
FFCFFFC0
FFDE1FC0
03F807E0
03F003E0
03F001F0
03E001F0
03E001F0
03E001F0
03C001C0
03C00000
03C00000
03C00000
03C00000
03C00000
03C00000
03C00000
03C00000
03C00000
03C00000
03C00000
03C00000
03C00000
FFFF8000
FFFF8000
FFFF8000
FFFF8000
00000000
00000000
00000000
00000000
03C00000
07E00000
07F00000
0FF00000
0FF00000
07F00000
07E00000
03C00000
ENDCHAR
STARTCHAR 1E5E
ENCODING 7774
SWIDTH 612 0
DWIDTH 34 0
BBX 26 48 5 -8
BITMAP
FFFFC000
FFFFF000
FFFFFC00
FFFFFE00
F001FF00
F0003F00
F0001F80
F0000F80
F00007C0
F00007C0
F00007C0
F00007C0
F00007C0
F00007C0
F0000780
F0000F80
F0000F80
F0001F00
F0007E00
FFFFFC00
FFFFF800
FFFFFC00
FFFFFF00
F0003F00
F0001F00
F0000F00
F0000F00
F0000F00
F0000F00
F0000F00
F0000F00
F0000F00
F0000F00
F0000F00
F0000F00
F0000F00
F0000F00
F0000F00
F0000F00
F0000F00
00000000
00000000
00000000
00000000
0FFFF000
0FFFF000
0FFFF000
0FFFF000
ENDCHAR
STARTCHAR 1E5F
ENCODING 7775
SWIDTH 612 0
DWIDTH 34 0
BBX 28 36 3 -7
BITMAP
0000FC00
FFC3FF00
FFCFFF80
FFCFFFC0
FFDE1FC0
03F807E0
03F003E0
03F001F0
03E001F0
03E001F0
03E001F0
03C001C0
03C00000
03C00000
03C00000
03C00000
03C00000
03C00000
03C00000
03C00000
03C00000
03C00000
03C00000
03C00000
03C00000
FFFF8000
FFFF8000
FFFF8000
FFFF8000
00000000
00000000
00000000
FFFF8000
FFFF8000
FFFF8000
FFFF8000
ENDCHAR
STARTCHAR 1E60
ENCODING 7776
SWIDTH 612 0
DWIDTH 34 0
BBX 28 53 3 -1
BITMAP
000F0000
001F8000
003FC000
003FC000
003FC000
003FC000
001F8000
000F0000
00000000
00000000
00000000
003FC000
01FFF800
07FFFE00
0FFFFF00
1FF07F80
1F801FC0
3F0007E0
3E0003E0
7C0003F0
7C0001F0
7C0001F0
7C0001F0
7C0001F0
7C0001F0
3E000000
3F000000
3FC00000
1FF80000
0FFFC000
07FFF800
03FFFE00
007FFF80
000FFFC0
00007FE0
00000FE0
000003F0
F00001F0
F00001F0
F00000F0
F00000F0
F80000F0
F80000F0
F80001F0
7C0001F0
7C0001F0
3F0003E0
3F8007E0
1FF03FC0
0FFFFF80
03FFFF00
01FFFC00
003FF000
ENDCHAR
STARTCHAR 1E61
ENCODING 7777
SWIDTH 612 0
DWIDTH 34 0
BBX 24 42 5 -1
BITMAP
003C00
007E00
00FE00
00FF00
00FF00
00FE00
007E00
003C00
000000
000000
000000
000000
00FE00
07FFC0
0FFFE0
1FFFF0
3F83F8
3E00FC
3C007C
7C003E
7C003E
7C0018
3C0000
3F0000
3FE000
1FFF80
0FFFF0
03FFF8
000FFC
00007E
00003E
70001E
F0001F
F8001F
F8001E
7C003E
7E007E
3FC1FC
1FFFFC
0FFFF8
03FFE0
00FF80
ENDCHAR
STARTCHAR 1E62
ENCODING 7778
SWIDTH 612 0
DWIDTH 34 0
BBX 28 53 3 -12
BITMAP
003FC000
01FFF800
07FFFE00
0FFFFF00
1FF07F80
1F801FC0
3F0007E0
3E0003E0
7C0003F0
7C0001F0
7C0001F0
7C0001F0
7C0001F0
7C0001F0
3E000000
3F000000
3FC00000
1FF80000
0FFFC000
07FFF800
03FFFE00
007FFF80
000FFFC0
00007FE0
00000FE0
000003F0
F00001F0
F00001F0
F00000F0
F00000F0
F80000F0
F80000F0
F80001F0
7C0001F0
7C0001F0
3F0003E0
3F8007E0
1FF03FC0
0FFFFF80
03FFFF00
01FFFC00
003FF000
00000000
00000000
00000000
00078000
000FC000
001FE000
001FE000
001FE000
001FE000
000FC000
00078000
ENDCHAR
STARTCHAR 1E63
ENCODING 7779
SWIDTH 612 0
DWIDTH 34 0
BBX 24 41 5 -12
BITMAP
00FE00
07FFC0
0FFFE0
1FFFF0
3F83F8
3E00FC
3C007C
7C003E
7C003E
7C0018
3C0000
3F0000
3FE000
1FFF80
0FFFF0
03FFF8
000FFC
00007E
00003E
70001E
F0001F
F8001F
F8001E
7C003E
7E007E
3FC1FC
1FFFFC
0FFFF8
03FFE0
00FF80
000000
000000
000000
001C00
003F00
007F00
007F80
007F00
007F00
007F00
001C00
ENDCHAR
STARTCHAR 1E6C
ENCODING 7788
SWIDTH 612 0
DWIDTH 34 0
BBX 28 52 3 -12
BITMAP
FFFFFFF0
FFFFFFF0
FFFFFFF0
FFFFFFF0
000F0000
000F0000
000F0000
000F0000
000F0000
000F0000
000F0000
000F0000
000F0000
000F0000
000F0000
000F0000
000F0000
000F0000
000F0000
000F0000
000F0000
000F0000
000F0000
000F0000
000F0000
000F0000
000F0000
000F0000
000F0000
000F0000
000F0000
000F0000
000F0000
000F0000
000F0000
000F0000
000F0000
000F0000
000F0000
000F0000
00000000
00000000
00000000
00000000
000F0000
001F8000
003FC000
003FC000
003FC000
003FC000
001F8000
000F0000
ENDCHAR
STARTCHAR 1E6D
ENCODING 7789
SWIDTH 612 0
DWIDTH 34 0
BBX 24 52 4 -12
BITMAP
007800
007800
007800
007800
007800
007800
007800
007800
007800
007800
007800
007800
FFFFFF
FFFFFF
FFFFFF
FFFFFF
007800
007800
007800
007800
007800
007800
007800
007800
007800
007800
007800
007800
007800
007800
007800
007800
007800
007800
007800
007C00
007FFC
007FFC
003FFC
001FFC
000000
000000
000000
000000
007800
00FC00
01FE00
01FE00
01FE00
01FE00
00FC00
007800
ENDCHAR
STARTCHAR 1E6E
ENCODING 7790
SWIDTH 612 0
DWIDTH 34 0
BBX 28 48 3 -8
BITMAP
FFFFFFF0
FFFFFFF0
FFFFFFF0
FFFFFFF0
000F0000
000F0000
000F0000
000F0000
000F0000
000F0000
000F0000
000F0000
000F0000
000F0000
000F0000
000F0000
000F0000
000F0000
000F0000
000F0000
000F0000
000F0000
000F0000
000F0000
000F0000
000F0000
000F0000
000F0000
000F0000
000F0000
000F0000
000F0000
000F0000
000F0000
000F0000
000F0000
000F0000
000F0000
000F0000
000F0000
00000000
00000000
00000000
00000000
03FFFC00
03FFFC00
03FFFC00
03FFFC00
ENDCHAR
STARTCHAR 1E6F
ENCODING 7791
SWIDTH 612 0
DWIDTH 34 0
BBX 24 47 4 -7
BITMAP
007800
007800
007800
007800
007800
007800
007800
007800
007800
007800
007800
007800
FFFFFF
FFFFFF
FFFFFF
FFFFFF
007800
007800
007800
007800
007800
007800
007800
007800
007800
007800
007800
007800
007800
007800
007800
007800
007800
007800
007800
007C00
007FFC
007FFC
003FFC
001FFC
000000
000000
000000
007FFC
007FFC
007FFC
007FFC
ENDCHAR
STARTCHAR 1E80
ENCODING 7808
SWIDTH 612 0
DWIDTH 34 0
BBX 33 50 1 0
BITMAP
007E000000
003E000000
001F000000
000F000000
000F800000
0007800000
0003C00000
0000000000
0000000000
0000000000
F00FF80F80
F00FF80F80
F00F780F00
F01F780F00
F01F780F00
F01E780F00
F81E780F00
F81E780F00
F81E780F00
781E781F00
781E781F00
781E7C1F00
781E7C1E00
781E3C1E00
783E3C1E00
783E3C1E00
7C3C3C1E00
7C3C3C1E00
7C3C3C1E00
3C3C3C3E00
3C3C3C3E00
3C3C3C3E00
3C3C3E3C00
3C3C1E3C00
3C3C1E3C00
3C7C1E3C00
3C781E3C00
3E781E3C00
3E781E3C00
1E781E7C00
1E781E7C00
1E781E7C00
1E781E7800
1E781F7800
1E780F7800
1E780F7800
1EF80F7800
1FF00F7800
1FF00FF800
0FF00FF800
ENDCHAR
STARTCHAR 1E81
ENCODING 7809
SWIDTH 612 0
DWIDTH 34 0
BBX 32 39 1 0
BITMAP
007E0000
003E0000
001F0000
000F0000
000F8000
00078000
0003C000
00000000
00000000
00000000
00000000
F80FF00F
F80FF00F
F80F701F
780F781F
780E781F
781E781E
781E781E
7C1E781E
7C1E781E
7C1E783E
3C1E383E
3C1E3C3C
3C1C3C3C
3C3C3C3C
3E3C3C3C
3E3C3C3C
1E3C3C7C
1E3C3C7C
1E3C1C78
1E3C1E78
1E381E78
1F781E78
0F781E78
0F781EF8
0F781EF0
0F780EF0
0FF80FF0
0FF80FF0
ENDCHAR
STARTCHAR 1E82
ENCODING 7810
SWIDTH 612 0
DWIDTH 34 0
BBX 33 50 1 0
BITMAP
00003E0000
00007C0000
0000F80000
0000F00000
0001F00000
0001E00000
0003C00000
0000000000
0000000000
0000000000
F00FF80F80
F00FF80F80
F00F780F00
F01F780F00
F01F780F00
F01E780F00
F81E780F00
F81E780F00
F81E780F00
781E781F00
781E781F00
781E7C1F00
781E7C1E00
781E3C1E00
783E3C1E00
783E3C1E00
7C3C3C1E00
7C3C3C1E00
7C3C3C1E00
3C3C3C3E00
3C3C3C3E00
3C3C3C3E00
3C3C3E3C00
3C3C1E3C00
3C3C1E3C00
3C7C1E3C00
3C781E3C00
3E781E3C00
3E781E3C00
1E781E7C00
1E781E7C00
1E781E7C00
1E781E7800
1E781F7800
1E780F7800
1E780F7800
1EF80F7800
1FF00F7800
1FF00FF800
0FF00FF800
ENDCHAR
STARTCHAR 1E83
ENCODING 7811
SWIDTH 612 0
DWIDTH 34 0
BBX 32 39 1 0
BITMAP
00003E00
00007C00
0000F800
0000F000
0001F000
0001E000
0003C000
00000000
00000000
00000000
00000000
F80FF00F
F80FF00F
F80F701F
780F781F
780E781F
781E781E
781E781E
7C1E781E
7C1E781E
7C1E783E
3C1E383E
3C1E3C3C
3C1C3C3C
3C3C3C3C
3E3C3C3C
3E3C3C3C
1E3C3C7C
1E3C3C7C
1E3C1C78
1E3C1E78
1E381E78
1F781E78
0F781E78
0F781EF8
0F781EF0
0F780EF0
0FF80FF0
0FF80FF0
ENDCHAR
STARTCHAR 1E84
ENCODING 7812
SWIDTH 612 0
DWIDTH 34 0
BBX 33 52 1 0
BITMAP
00700F0000
01FC1F8000
01FC3F8000
01FC3FC000
01FC3FC000
01FC3F8000
01FC1F8000
00700F0000
0000000000
0000000000
0000000000
0000000000
F00FF80F80
F00FF80F80
F00F780F00
F01F780F00
F01F780F00
F01E780F00
F81E780F00
F81E780F00
F81E780F00
781E781F00
781E781F00
781E7C1F00
781E7C1E00
781E3C1E00
783E3C1E00
783E3C1E00
7C3C3C1E00
7C3C3C1E00
7C3C3C1E00
3C3C3C3E00
3C3C3C3E00
3C3C3C3E00
3C3C3E3C00
3C3C1E3C00
3C3C1E3C00
3C7C1E3C00
3C781E3C00
3E781E3C00
3E781E3C00
1E781E7C00
1E781E7C00
1E781E7C00
1E781E7800
1E781F7800
1E780F7800
1E780F7800
1EF80F7800
1FF00F7800
1FF00FF800
0FF00FF800
ENDCHAR
STARTCHAR 1E85
ENCODING 7813
SWIDTH 612 0
DWIDTH 34 0
BBX 32 41 1 0
BITMAP
00700F00
01FC1F80
01FC3F80
01FC3FC0
01FC3FC0
01FC3F80
01FC1F80
00700F00
00000000
00000000
00000000
00000000
00000000
F80FF00F
F80FF00F
F80F701F
780F781F
780E781F
781E781E
781E781E
7C1E781E
7C1E781E
7C1E783E
3C1E383E
3C1E3C3C
3C1C3C3C
3C3C3C3C
3E3C3C3C
3E3C3C3C
1E3C3C7C
1E3C3C7C
1E3C1C78
1E3C1E78
1E381E78
1F781E78
0F781E78
0F781EF8
0F781EF0
0F780EF0
0FF80FF0
0FF80FF0
ENDCHAR
STARTCHAR 1E8E
ENCODING 7822
SWIDTH 612 0
DWIDTH 34 0
BBX 31 52 2 0
BITMAP
00078000
000FC000
001FE000
001FE000
001FE000
001FE000
000FC000
00078000
00000000
00000000
00000000
00000000
F800007E
F800007C
7C0000FC
7C0000F8
3E0001F8
3E0001F0
1F0001F0
1F0003E0
0F8003E0
0F8007C0
0FC007C0
07C00F80
07C00F80
03E01F00
03E01F00
01F03E00
01F03E00
00F83E00
00F87C00
007C7C00
007CF800
003EF800
003FF000
001FF000
001FE000
000FE000
00078000
00078000
00078000
00078000
00078000
00078000
00078000
00078000
00078000
00078000
00078000
00078000
00078000
00078000
ENDCHAR
STARTCHAR 1E8F
ENCODING 7823
SWIDTH 612 0
DWIDTH 34 0
BBX 24 52 5 -11
BITMAP
003C00
007E00
00FF00
00FF00
00FF00
00FF00
007E00
003C00
000000
000000
000000
000000
000000
F0000F
F0000F
F0000F
F0000F
F0000F
F0000F
F0000F
F0000F
F0000F
F0000F
F0000F
F0000F
F0000F
F0000F
F0000F
F0000F
F0000F
F0000F
F0000F
F8001F
F8001F
F8003F
7C007F
7E00EF
3F83EF
3FFFCF
1FFF8F
07FF0F
01FC0F
00000F
00000F
00000F
00000F
00000F
00001F
0FFFFF
0FFFFF
0FFFFE
0FFFFC
ENDCHAR
STARTCHAR 1E92
ENCODING 7826
SWIDTH 612 0
DWIDTH 34 0
BBX 28 52 3 -12
BITMAP
7FFFFFF0
7FFFFFF0
7FFFFFF0
7FFFFFF0
000001F0
000001F0
000003F0
000007E0
000007C0
00000FC0
00001F80
00003F00
00007E00
0000FC00
0000F800
0001F800
0003F000
0007E000
000FC000
001F8000
001F0000
003E0000
007E0000
00FC0000
01F80000
03F00000
07E00000
07C00000
0FC00000
1F800000
3F000000
7E000000
FC000000
F8000000
F8000000
F0000000
FFFFFFF0
FFFFFFF0
FFFFFFF0
FFFFFFF0
00000000
00000000
00000000
00000000
000F0000
001F8000
003FC000
003FC000
003FC000
003FC000
001F8000
000F0000
ENDCHAR
STARTCHAR 1E93
ENCODING 7827
SWIDTH 612 0
DWIDTH 34 0
BBX 24 40 5 -12
BITMAP
FFFFFF
FFFFFF
FFFFFF
FFFFFF
00000F
00001F
00003F
00007E
0000FC
0003F8
0007E0
000FC0
001F80
007F00
00FC00
01F800
03F000
0FE000
1F8000
3F0000
7E0000
FC0000
F00000
F00000
FFFFFF
FFFFFF
FFFFFF
FFFFFF
000000
000000
000000
000000
003C00
007E00
007F00
00FF00
00FF00
007F00
007E00
003C00
ENDCHAR
STARTCHAR 1E97
ENCODING 7831
SWIDTH 612 0
DWIDTH 34 0
BBX 24 52 4 0
BITMAP
1E01C0
3F07F0
3F87F0
7F87F0
7F87F0
3F87F0
3F07F0
1E01C0
000000
000000
000000
000000
007800
007800
007800
007800
007800
007800
007800
007800
007800
007800
007800
007800
FFFFFF
FFFFFF
FFFFFF
FFFFFF
007800
007800
007800
007800
007800
007800
007800
007800
007800
007800
007800
007800
007800
007800
007800
007800
007800
007800
007800
007C00
007FFC
007FFC
003FFC
001FFC
ENDCHAR
STARTCHAR 1E9E
ENCODING 7838
SWIDTH 612 0
DWIDTH 34 0
BBX 30 40 2 0
BITMAP
001FFFE0
007FFFE0
01FFFFE0
03FFFFE0
07F801E0
07E003E0
0FC007E0
0F800FE0
0F003F80
0F007F00
1F00FE00
1F01FC00
FF07F000
FF0FE000
FF0FC000
FF0F0000
1F0FFC00
1F0FFF00
1F0FFFC0
1F0FFFE0
1F001FF0
1F0003F0
1F0001F8
1F0000F8
1F0000F8
1F00007C
1F00007C
1F00007C
1F00007C
1F00007C
1F000078
1F0000F8
1F0001F8
1F0001F0
1F0007F0
1F001FE0
1F0FFFC0
1F0FFF80
1F0FFE00
1F0FF000
ENDCHAR
STARTCHAR 1EA0
ENCODING 7840
SWIDTH 612 0
DWIDTH 34 0
BBX 32 52 1 -12
BITMAP
000FF800
001FF800
001F7800
001E7C00
003E7C00
003E7C00
003E3E00
007C3E00
007C3E00
007C1E00
00781F00
00F81F00
00F81F00
00F80F80
01F00F80
01F00F80
01F00780
01E007C0
03E007C0
03E007C0
03E003E0
07C003E0
07C003E0
07C001F0
0F8001F0
0F8001F0
0FFFFFF0
0FFFFFF8
1FFFFFF8
1FFFFFF8
1F00007C
3E00007C
3E00007C
3E00003E
7C00003E
7C00003E
7C00003E
7C00001F
F800001F
F800001F
00000000
00000000
00000000
00000000
0003C000
0007E000
000FF000
000FF000
000FF000
000FF000
0007E000
0003C000
ENDCHAR
STARTCHAR 1EA1
ENCODING 7841
SWIDTH 612 0
DWIDTH 34 0
BBX 29 41 3 -12
BITMAP
007F0000
03FFC3C0
07FFE3C0
0FFFF3C0
1FE1FBC0
3F803FC0
7E001FC0
7C000FC0
7C000FC0
F80007C0
F80007C0
F00003C0
F00003C0
F00003C0
F00003C0
F00003C0
F00003C0
F00003C0
F00003C0
F80007C0
F80007C0
78000FC0
7C000FC0
7E001FC0
3F003BE0
1FE1FBF8
0FFFF3F8
07FFE1F8
03FFC0F8
007F0000
00000000
00000000
00000000
001E0000
003F0000
007F0000
007F8000
007F8000
007F0000
003F0000
001E0000
ENDCHAR
STARTCHAR 1EA2
ENCODING 7842
SWIDTH 612 0
DWIDTH 34 0
BBX 32 55 1 0
BITMAP
0000F800
0001FC00
0003FE00
00078E00
00030700
00000700
00078F00
0007FE00
00077E00
00033800
00038000
00038000
00000000
00000000
00000000
000FF800
001FF800
001F7800
001E7C00
003E7C00
003E7C00
003E3E00
007C3E00
007C3E00
007C1E00
00781F00
00F81F00
00F81F00
00F80F80
01F00F80
01F00F80
01F00780
01E007C0
03E007C0
03E007C0
03E003E0
07C003E0
07C003E0
07C001F0
0F8001F0
0F8001F0
0FFFFFF0
0FFFFFF8
1FFFFFF8
1FFFFFF8
1F00007C
3E00007C
3E00007C
3E00003E
7C00003E
7C00003E
7C00003E
7C00001F
F800001F
F800001F
ENDCHAR
STARTCHAR 1EA3
ENCODING 7843
SWIDTH 612 0
DWIDTH 34 0
BBX 29 44 3 -1
BITMAP
00078000
001FE000
003FE000
0038F000
00707000
00007000
007C7000
003FF000
003FE000
003BC000
00380000
00380000
00000000
00000000
007F0000
03FFC3C0
07FFE3C0
0FFFF3C0
1FE1FBC0
3F803FC0
7E001FC0
7C000FC0
7C000FC0
F80007C0
F80007C0
F00003C0
F00003C0
F00003C0
F00003C0
F00003C0
F00003C0
F00003C0
F00003C0
F80007C0
F80007C0
78000FC0
7C000FC0
7E001FC0
3F003BE0
1FE1FBF8
0FFFF3F8
07FFE1F8
03FFC0F8
007F0000
ENDCHAR
STARTCHAR 1EA4
ENCODING 7844
SWIDTH 612 0
DWIDTH 34 0
BBX 32 55 1 0
BITMAP
0000003E
0000003C
0000007C
00000078
000000F0
000FF0F0
000FF1E0
001F7800
003E7C00
003C3C00
007C1E00
00F81F00
00000000
00000000
00000000
000FF800
001FF800
001F7800
001E7C00
003E7C00
003E7C00
003E3E00
007C3E00
007C3E00
007C1E00
00781F00
00F81F00
00F81F00
00F80F80
01F00F80
01F00F80
01F00780
01E007C0
03E007C0
03E007C0
03E003E0
07C003E0
07C003E0
07C001F0
0F8001F0
0F8001F0
0FFFFFF0
0FFFFFF8
1FFFFFF8
1FFFFFF8
1F00007C
3E00007C
3E00007C
3E00003E
7C00003E
7C00003E
7C00003E
7C00001F
F800001F
F800001F
ENDCHAR
STARTCHAR 1EA5
ENCODING 7845
SWIDTH 612 0
DWIDTH 34 0
BBX 29 45 3 -1
BITMAP
000001F0
000003E0
000007C0
00000780
00000F80
007F0F00
00FF9E00
00F7C000
01E3C000
03E3E000
03C1F000
07C0F800
00000000
00000000
00000000
007F0000
03FFC3C0
07FFE3C0
0FFFF3C0
1FE1FBC0
3F803FC0
7E001FC0
7C000FC0
7C000FC0
F80007C0
F80007C0
F00003C0
F00003C0
F00003C0
F00003C0
F00003C0
F00003C0
F00003C0
F00003C0
F80007C0
F80007C0
78000FC0
7C000FC0
7E001FC0
3F003BE0
1FE1FBF8
0FFFF3F8
07FFE1F8
03FFC0F8
007F0000
ENDCHAR
STARTCHAR 1EA6
ENCODING 7846
SWIDTH 612 0
DWIDTH 34 0
BBX 32 55 1 0
BITMAP
7C000000
3E000000
1E000000
1F000000
0F000000
078FF000
07CFF000
001F7800
003E7C00
003C3C00
007C1E00
00F81F00
00000000
00000000
00000000
000FF800
001FF800
001F7800
001E7C00
003E7C00
003E7C00
003E3E00
007C3E00
007C3E00
007C1E00
00781F00
00F81F00
00F81F00
00F80F80
01F00F80
01F00F80
01F00780
01E007C0
03E007C0
03E007C0
03E003E0
07C003E0
07C003E0
07C001F0
0F8001F0
0F8001F0
0FFFFFF0
0FFFFFF8
1FFFFFF8
1FFFFFF8
1F00007C
3E00007C
3E00007C
3E00003E
7C00003E
7C00003E
7C00003E
7C00001F
F800001F
F800001F
ENDCHAR
STARTCHAR 1EA7
ENCODING 7847
SWIDTH 612 0
DWIDTH 34 0
BBX 32 45 0 -1
BITMAP
FC000000
7C000000
3E000000
1E000000
1F000000
0F0FE000
079FF000
001EF800
003C7800
007C7C00
00783E00
00F81F00
00000000
00000000
00000000
000FE000
007FF878
00FFFC78
01FFFE78
03FC3F78
07F007F8
0FC003F8
0F8001F8
0F8001F8
1F0000F8
1F0000F8
1E000078
1E000078
1E000078
1E000078
1E000078
1E000078
1E000078
1E000078
1F0000F8
1F0000F8
0F0001F8
0F8001F8
0FC003F8
07E0077C
03FC3F7F
01FFFE7F
00FFFC3F
007FF81F
000FE000
ENDCHAR
STARTCHAR 1EA8
ENCODING 7848
SWIDTH 612 0
DWIDTH 34 0
BBX 32 61 1 0
BITMAP
00000078
000001FE
000003FF
0000038F
00000187
00000007
000003C7
000003FF
000003FE
000003BC
000FF380
000FF980
001F7800
003E7C00
003C3E00
007C1E00
00F81F00
00000000
00000000
00000000
00000000
000FF800
001FF800
001F7800
001E7C00
003E7C00
003E7C00
003E3E00
007C3E00
007C3E00
007C1E00
00781F00
00F81F00
00F81F00
00F80F80
01F00F80
01F00F80
01F00780
01E007C0
03E007C0
03E007C0
03E003E0
07C003E0
07C003E0
07C001F0
0F8001F0
0F8001F0
0FFFFFF0
0FFFFFF8
1FFFFFF8
1FFFFFF8
1F00007C
3E00007C
3E00007C
3E00003E
7C00003E
7C00003E
7C00003E
7C00001F
F800001F
F800001F
ENDCHAR
STARTCHAR 1EA9
ENCODING 7849
SWIDTH 612 0
DWIDTH 34 0
BBX 29 50 3 -1
BITMAP
000007C0
00001FE0
00001FF0
00003C70
00001838
00000038
00003C78
00003FF0
00003BF0
000019C0
007F1C00
00FF9C00
01F7C000
01E3C000
03E3E000
07C1F000
0780F000
00000000
00000000
00000000
007F0000
03FFC3C0
07FFE3C0
0FFFF3C0
1FE1FBC0
3F803FC0
7E001FC0
7C000FC0
7C000FC0
F80007C0
F80007C0
F00003C0
F00003C0
F00003C0
F00003C0
F00003C0
F00003C0
F00003C0
F00003C0
F80007C0
F80007C0
78000FC0
7C000FC0
7E001FC0
3F003BE0
1FE1FBF8
0FFFF3F8
07FFE1F8
03FFC0F8
007F0000
ENDCHAR
STARTCHAR 1EAA
ENCODING 7850
SWIDTH 612 0
DWIDTH 34 0
BBX 32 58 1 0
BITMAP
001F0000
003F8300
007F8380
00FFC7C0
01F3CF80
01E1FF00
00E1FE00
0040FC00
00007800
00000000
000FF000
000FF000
001F7800
003E7C00
003C3C00
007C1E00
00F81F00
00000000
000FF800
001FF800
001F7800
001E7C00
003E7C00
003E7C00
003E3E00
007C3E00
007C3E00
007C1E00
00781F00
00F81F00
00F81F00
00F80F80
01F00F80
01F00F80
01F00780
01E007C0
03E007C0
03E007C0
03E003E0
07C003E0
07C003E0
07C001F0
0F8001F0
0F8001F0
0FFFFFF0
0FFFFFF8
1FFFFFF8
1FFFFFF8
1F00007C
3E00007C
3E00007C
3E00003E
7C00003E
7C00003E
7C00003E
7C00001F
F800001F
F800001F
ENDCHAR
STARTCHAR 1EAB
ENCODING 7851
SWIDTH 612 0
DWIDTH 34 0
BBX 29 50 3 -1
BITMAP
01F00000
03F81000
07FC3800
07FC7C00
0FBEF800
1F1FF800
0E0FF000
040FE000
0007C000
00000000
007F0000
00FF8000
00F7C000
01E3C000
03E3E000
03C1F000
07C0F800
00000000
00000000
00000000
007F0000
03FFC3C0
07FFE3C0
0FFFF3C0
1FE1FBC0
3F803FC0
7E001FC0
7C000FC0
7C000FC0
F80007C0
F80007C0
F00003C0
F00003C0
F00003C0
F00003C0
F00003C0
F00003C0
F00003C0
F00003C0
F80007C0
F80007C0
78000FC0
7C000FC0
7E001FC0
3F003BE0
1FE1FBF8
0FFFF3F8
07FFE1F8
03FFC0F8
007F0000
ENDCHAR
STARTCHAR 1EAC
ENCODING 7852
SWIDTH 612 0
DWIDTH 34 0
BBX 32 62 1 -12
BITMAP
000FF000
000FF000
001F7800
003E7C00
003C3C00
007C1E00
00F81F00
00000000
00000000
00000000
000FF800
001FF800
001F7800
001E7C00
003E7C00
003E7C00
003E3E00
007C3E00
007C3E00
007C1E00
00781F00
00F81F00
00F81F00
00F80F80
01F00F80
01F00F80
01F00780
01E007C0
03E007C0
03E007C0
03E003E0
07C003E0
07C003E0
07C001F0
0F8001F0
0F8001F0
0FFFFFF0
0FFFFFF8
1FFFFFF8
1FFFFFF8
1F00007C
3E00007C
3E00007C
3E00003E
7C00003E
7C00003E
7C00003E
7C00001F
F800001F
F800001F
00000000
00000000
00000000
00000000
0003C000
0007E000
000FF000
000FF000
000FF000
000FF000
0007E000
0003C000
ENDCHAR
STARTCHAR 1EAD
ENCODING 7853
SWIDTH 612 0
DWIDTH 34 0
BBX 29 51 3 -12
BITMAP
007F0000
00FF8000
00F7C000
01E3C000
03E3E000
03C1F000
07C0F800
00000000
00000000
00000000
007F0000
03FFC3C0
07FFE3C0
0FFFF3C0
1FE1FBC0
3F803FC0
7E001FC0
7C000FC0
7C000FC0
F80007C0
F80007C0
F00003C0
F00003C0
F00003C0
F00003C0
F00003C0
F00003C0
F00003C0
F00003C0
F80007C0
F80007C0
78000FC0
7C000FC0
7E001FC0
3F003BE0
1FE1FBF8
0FFFF3F8
07FFE1F8
03FFC0F8
007F0000
00000000
00000000
00000000
001E0000
003F0000
007F0000
007F8000
007F8000
007F0000
003F0000
001E0000
ENDCHAR
STARTCHAR 1EAE
ENCODING 7854
SWIDTH 612 0
DWIDTH 34 0
BBX 32 56 1 0
BITMAP
00003E00
00007C00
0000F800
0000F000
0001F000
0001E000
0003C000
00000000
003C3C00
003C3C00
003E7C00
001FFC00
001FF800
000FF000
0007E000
00000000
000FF800
001FF800
001F7800
001E7C00
003E7C00
003E7C00
003E3E00
007C3E00
007C3E00
007C1E00
00781F00
00F81F00
00F81F00
00F80F80
01F00F80
01F00F80
01F00780
01E007C0
03E007C0
03E007C0
03E003E0
07C003E0
07C003E0
07C001F0
0F8001F0
0F8001F0
0FFFFFF0
0FFFFFF8
1FFFFFF8
1FFFFFF8
1F00007C
3E00007C
3E00007C
3E00003E
7C00003E
7C00003E
7C00003E
7C00001F
F800001F
F800001F
ENDCHAR
STARTCHAR 1EAF
ENCODING 7855
SWIDTH 612 0
DWIDTH 34 0
BBX 29 48 3 -1
BITMAP
0003E000
0007C000
0007C000
000F8000
000F0000
001F0000
003E0000
00000000
01C1E000
01C1E000
01E3C000
01FFC000
01FFC000
00FF8000
003E0000
00000000
00000000
00000000
007F0000
03FFC3C0
07FFE3C0
0FFFF3C0
1FE1FBC0
3F803FC0
7E001FC0
7C000FC0
7C000FC0
F80007C0
F80007C0
F00003C0
F00003C0
F00003C0
F00003C0
F00003C0
F00003C0
F00003C0
F00003C0
F80007C0
F80007C0
78000FC0
7C000FC0
7E001FC0
3F003BE0
1FE1FBF8
0FFFF3F8
07FFE1F8
03FFC0F8
007F0000
ENDCHAR
STARTCHAR 1EB0
ENCODING 7856
SWIDTH 612 0
DWIDTH 34 0
BBX 32 56 1 0
BITMAP
007E0000
003E0000
001F0000
000F0000
000F8000
00078000
0003C000
00000000
003C3C00
003C3C00
003E7C00
001FFC00
001FF800
000FF000
0007E000
00000000
000FF800
001FF800
001F7800
001E7C00
003E7C00
003E7C00
003E3E00
007C3E00
007C3E00
007C1E00
00781F00
00F81F00
00F81F00
00F80F80
01F00F80
01F00F80
01F00780
01E007C0
03E007C0
03E007C0
03E003E0
07C003E0
07C003E0
07C001F0
0F8001F0
0F8001F0
0FFFFFF0
0FFFFFF8
1FFFFFF8
1FFFFFF8
1F00007C
3E00007C
3E00007C
3E00003E
7C00003E
7C00003E
7C00003E
7C00001F
F800001F
F800001F
ENDCHAR
STARTCHAR 1EB1
ENCODING 7857
SWIDTH 612 0
DWIDTH 34 0
BBX 29 48 3 -1
BITMAP
03E00000
01F00000
00F00000
00F80000
00780000
003C0000
003E0000
00000000
01C1E000
01C1E000
01E3C000
01FFC000
01FFC000
00FF8000
003E0000
00000000
00000000
00000000
007F0000
03FFC3C0
07FFE3C0
0FFFF3C0
1FE1FBC0
3F803FC0
7E001FC0
7C000FC0
7C000FC0
F80007C0
F80007C0
F00003C0
F00003C0
F00003C0
F00003C0
F00003C0
F00003C0
F00003C0
F00003C0
F80007C0
F80007C0
78000FC0
7C000FC0
7E001FC0
3F003BE0
1FE1FBF8
0FFFF3F8
07FFE1F8
03FFC0F8
007F0000
ENDCHAR
STARTCHAR 1EB2
ENCODING 7858
SWIDTH 612 0
DWIDTH 34 0
BBX 32 62 1 0
BITMAP
0000F800
0001FE00
0003FF00
00038700
00010700
00000700
0003C700
0003FF00
0003FE00
0003BC00
00038000
00018000
00000000
00000000
003C3C00
003C3C00
003E7C00
001FFC00
001FF800
000FF000
0007E000
00000000
000FF800
001FF800
001F7800
001E7C00
003E7C00
003E7C00
003E3E00
007C3E00
007C3E00
007C1E00
00781F00
00F81F00
00F81F00
00F80F80
01F00F80
01F00F80
01F00780
01E007C0
03E007C0
03E007C0
03E003E0
07C003E0
07C003E0
07C001F0
0F8001F0
0F8001F0
0FFFFFF0
0FFFFFF8
1FFFFFF8
1FFFFFF8
1F00007C
3E00007C
3E00007C
3E00003E
7C00003E
7C00003E
7C00003E
7C00001F
F800001F
F800001F
ENDCHAR
STARTCHAR 1EB3
ENCODING 7859
SWIDTH 612 0
DWIDTH 34 0
BBX 29 54 3 -1
BITMAP
00078000
000FE000
001FF000
003C7000
00387800
00003800
00007800
003C7000
003FF000
003BE000
0019C000
001C0000
001C0000
00000000
03C1E000
03C1E000
01E3C000
01FFC000
01FFC000
00FF8000
003E0000
00000000
00000000
00000000
007F0000
03FFC3C0
07FFE3C0
0FFFF3C0
1FE1FBC0
3F803FC0
7E001FC0
7C000FC0
7C000FC0
F80007C0
F80007C0
F00003C0
F00003C0
F00003C0
F00003C0
F00003C0
F00003C0
F00003C0
F00003C0
F80007C0
F80007C0
78000FC0
7C000FC0
7E001FC0
3F003BE0
1FE1FBF8
0FFFF3F8
07FFE1F8
03FFC0F8
007F0000
ENDCHAR
STARTCHAR 1EB4
ENCODING 7860
SWIDTH 612 0
DWIDTH 34 0
BBX 32 58 1 0
BITMAP
001F0000
003F8300
007F8380
00FFC7C0
01F3CF80
01E1FF00
00E1FE00
0040FC00
00007800
00000000
003C3C00
003C3C00
003E7C00
001FFC00
001FF800
000FF000
0007E000
00000000
000FF800
001FF800
001F7800
001E7C00
003E7C00
003E7C00
003E3E00
007C3E00
007C3E00
007C1E00
00781F00
00F81F00
00F81F00
00F80F80
01F00F80
01F00F80
01F00780
01E007C0
03E007C0
03E007C0
03E003E0
07C003E0
07C003E0
07C001F0
0F8001F0
0F8001F0
0FFFFFF0
0FFFFFF8
1FFFFFF8
1FFFFFF8
1F00007C
3E00007C
3E00007C
3E00003E
7C00003E
7C00003E
7C00003E
7C00001F
F800001F
F800001F
ENDCHAR
STARTCHAR 1EB5
ENCODING 7861
SWIDTH 612 0
DWIDTH 34 0
BBX 29 50 3 -1
BITMAP
01F00000
03F81000
07FC3800
07FC7C00
0FBEF800
1F1FF800
0E0FF000
040FE000
0007C000
00000000
01C1E000
01C1E000
01E3C000
01FFC000
01FFC000
00FF8000
003E0000
00000000
00000000
00000000
007F0000
03FFC3C0
07FFE3C0
0FFFF3C0
1FE1FBC0
3F803FC0
7E001FC0
7C000FC0
7C000FC0
F80007C0
F80007C0
F00003C0
F00003C0
F00003C0
F00003C0
F00003C0
F00003C0
F00003C0
F00003C0
F80007C0
F80007C0
78000FC0
7C000FC0
7E001FC0
3F003BE0
1FE1FBF8
0FFFF3F8
07FFE1F8
03FFC0F8
007F0000
ENDCHAR
STARTCHAR 1EB6
ENCODING 7862
SWIDTH 612 0
DWIDTH 34 0
BBX 32 62 1 -12
BITMAP
003C3C00
003C3C00
003E7C00
001FFC00
001FF800
000FF000
0007E000
00000000
00000000
00000000
000FF800
001FF800
001F7800
001E7C00
003E7C00
003E7C00
003E3E00
007C3E00
007C3E00
007C1E00
00781F00
00F81F00
00F81F00
00F80F80
01F00F80
01F00F80
01F00780
01E007C0
03E007C0
03E007C0
03E003E0
07C003E0
07C003E0
07C001F0
0F8001F0
0F8001F0
0FFFFFF0
0FFFFFF8
1FFFFFF8
1FFFFFF8
1F00007C
3E00007C
3E00007C
3E00003E
7C00003E
7C00003E
7C00003E
7C00001F
F800001F
F800001F
00000000
00000000
00000000
00000000
0003C000
0007E000
000FF000
000FF000
000FF000
000FF000
0007E000
0003C000
ENDCHAR
STARTCHAR 1EB7
ENCODING 7863
SWIDTH 612 0
DWIDTH 34 0
BBX 29 51 3 -12
BITMAP
01C1E000
01C1E000
01E3C000
01FFC000
01FFC000
00FF8000
003E0000
00000000
00000000
00000000
007F0000
03FFC3C0
07FFE3C0
0FFFF3C0
1FE1FBC0
3F803FC0
7E001FC0
7C000FC0
7C000FC0
F80007C0
F80007C0
F00003C0
F00003C0
F00003C0
F00003C0
F00003C0
F00003C0
F00003C0
F00003C0
F80007C0
F80007C0
78000FC0
7C000FC0
7E001FC0
3F003BE0
1FE1FBF8
0FFFF3F8
07FFE1F8
03FFC0F8
007F0000
00000000
00000000
00000000
001C0000
007F0000
007F0000
007F0000
007F8000
007F0000
007F0000
001C0000
ENDCHAR
STARTCHAR 1EB8
ENCODING 7864
SWIDTH 612 0
DWIDTH 34 0
BBX 24 52 5 -12
BITMAP
FFFFFF
FFFFFF
FFFFFF
FFFFFF
F80000
F80000
F80000
F80000
F80000
F80000
F80000
F80000
F80000
F80000
F80000
F80000
F80000
F80000
FFFFFF
FFFFFF
FFFFFF
FFFFFF
F80000
F80000
F80000
F80000
F80000
F80000
F80000
F80000
F80000
F80000
F80000
F80000
F80000
F80000
FFFFFF
FFFFFF
FFFFFF
FFFFFF
000000
000000
000000
000000
003C00
007E00
007F00
00FF00
00FF00
007F00
007E00
003C00
ENDCHAR
STARTCHAR 1EB9
ENCODING 7865
SWIDTH 612 0
DWIDTH 34 0
BBX 26 41 4 -12
BITMAP
003F8000
01FFF000
07FFF800
0FFFFC00
1FE0FE00
3F003F00
3E001F80
7C000F80
780007C0
F80003C0
F80003C0
F00003C0
FFFFFFC0
FFFFFFC0
FFFFFFC0
FFFFFFC0
F0000000
F0000000
F0000000
F8000000
F8000300
780007C0
7C0007C0
3E000F80
3F001F80
1FE0FF00
0FFFFE00
07FFFC00
01FFF000
007F8000
00000000
00000000
00000000
001E0000
003F0000
003F8000
007F8000
007F8000
003F8000
003F0000
001E0000
ENDCHAR
STARTCHAR 1EBA
ENCODING 7866
SWIDTH 612 0
DWIDTH 34 0
BBX 24 55 5 0
BITMAP
001F00
003F80
007FC0
00F1C0
0060E0
0000E0
00F1E0
00FFC0
00EFC0
006F80
007000
007000
000000
000000
000000
FFFFFF
FFFFFF
FFFFFF
FFFFFF
F80000
F80000
F80000
F80000
F80000
F80000
F80000
F80000
F80000
F80000
F80000
F80000
F80000
F80000
FFFFFF
FFFFFF
FFFFFF
FFFFFF
F80000
F80000
F80000
F80000
F80000
F80000
F80000
F80000
F80000
F80000
F80000
F80000
F80000
F80000
FFFFFF
FFFFFF
FFFFFF
FFFFFF
ENDCHAR
STARTCHAR 1EBB
ENCODING 7867
SWIDTH 612 0
DWIDTH 34 0
BBX 26 44 4 -1
BITMAP
00078000
001FE000
003FE000
0038F000
00707000
00007000
007C7000
003FF000
003FE000
003BC000
00380000
00380000
00000000
00000000
003F8000
01FFF000
07FFF800
0FFFFC00
1FE1FE00
3F003F00
3E001F80
7C000F80
780007C0
F80007C0
F00003C0
F00003C0
FFFFFFC0
FFFFFFC0
FFFFFFC0
FFFFFFC0
F0000000
F0000000
F0000000
F8000000
F8000300
780007C0
7C0007C0
3E000F80
3F001F00
1FE0FF00
0FFFFE00
07FFFC00
01FFF000
007F8000
ENDCHAR
STARTCHAR 1EBC
ENCODING 7868
SWIDTH 612 0
DWIDTH 34 0
BBX 24 52 5 0
BITMAP
00F800
01FC18
03FC3C
07FE3E
0F9E7C
1F1FF8
060FF0
0207E0
0003C0
000000
000000
000000
FFFFFF
FFFFFF
FFFFFF
FFFFFF
F80000
F80000
F80000
F80000
F80000
F80000
F80000
F80000
F80000
F80000
F80000
F80000
F80000
F80000
FFFFFF
FFFFFF
FFFFFF
FFFFFF
F80000
F80000
F80000
F80000
F80000
F80000
F80000
F80000
F80000
F80000
F80000
F80000
F80000
F80000
FFFFFF
FFFFFF
FFFFFF
FFFFFF
ENDCHAR
STARTCHAR 1EBD
ENCODING 7869
SWIDTH 612 0
DWIDTH 34 0
BBX 26 41 4 -1
BITMAP
003E0000
007F0200
00FF0700
01FF8F80
01E7DF00
03E3FE00
01C3FE00
0081FC00
0000F000
00000000
00000000
003F8000
01FFF000
07FFF800
0FFFFC00
1FE0FE00
3F003F00
3E001F80
7C000F80
780007C0
F80003C0
F80003C0
F00003C0
FFFFFFC0
FFFFFFC0
FFFFFFC0
FFFFFFC0
F0000000
F0000000
F0000000
F8000000
F8000300
780007C0
7C0007C0
3E000F80
3F001F80
1FE0FF00
0FFFFE00
07FFFC00
01FFF000
007F8000
ENDCHAR
STARTCHAR 1EBE
ENCODING 7870
SWIDTH 612 0
DWIDTH 34 0
BBX 28 55 5 0
BITMAP
000003F0
000003E0
000007C0
00000780
00000F80
007F0F00
00FF9E00
01F78000
01E3C000
03E3E000
07C1E000
0F81F000
00000000
00000000
00000000
FFFFFF00
FFFFFF00
FFFFFF00
FFFFFF00
F8000000
F8000000
F8000000
F8000000
F8000000
F8000000
F8000000
F8000000
F8000000
F8000000
F8000000
F8000000
F8000000
F8000000
FFFFFF00
FFFFFF00
FFFFFF00
FFFFFF00
F8000000
F8000000
F8000000
F8000000
F8000000
F8000000
F8000000
F8000000
F8000000
F8000000
F8000000
F8000000
F8000000
F8000000
FFFFFF00
FFFFFF00
FFFFFF00
FFFFFF00
ENDCHAR
STARTCHAR 1EBF
ENCODING 7871
SWIDTH 612 0
DWIDTH 34 0
BBX 29 45 4 -1
BITMAP
000001F8
000001F0
000003E0
000003C0
000007C0
003F8780
007FCF00
00FBC000
00F1E000
01F1F000
03E0F000
07C0F800
00000000
00000000
00000000
003F8000
01FFF000
07FFF800
0FFFFC00
1FE0FE00
3F003F00
3E001F80
7C000F80
780007C0
F80003C0
F80003C0
F00003C0
FFFFFFC0
FFFFFFC0
FFFFFFC0
FFFFFFC0
F0000000
F0000000
F0000000
F8000000
F8000300
780007C0
7C0007C0
3E000F80
3F001F80
1FE0FF00
0FFFFE00
07FFFC00
01FFF000
007F8000
ENDCHAR
STARTCHAR 1EC0
ENCODING 7872
SWIDTH 612 0
DWIDTH 34 0
BBX 27 55 2 0
BITMAP
F8000000
7C000000
3C000000
3E000000
1E000000
0F0FE000
0F9FF000
003EF000
003C7800
007C7C00
00F83C00
01F03E00
00000000
00000000
00000000
1FFFFFE0
1FFFFFE0
1FFFFFE0
1FFFFFE0
1F000000
1F000000
1F000000
1F000000
1F000000
1F000000
1F000000
1F000000
1F000000
1F000000
1F000000
1F000000
1F000000
1F000000
1FFFFFE0
1FFFFFE0
1FFFFFE0
1FFFFFE0
1F000000
1F000000
1F000000
1F000000
1F000000
1F000000
1F000000
1F000000
1F000000
1F000000
1F000000
1F000000
1F000000
1F000000
1FFFFFE0
1FFFFFE0
1FFFFFE0
1FFFFFE0
ENDCHAR
STARTCHAR 1EC1
ENCODING 7873
SWIDTH 612 0
DWIDTH 34 0
BBX 28 45 2 -1
BITMAP
F8000000
7C000000
3C000000
3E000000
1E000000
0F0FE000
0F9FF000
003EF000
003C7800
007C7C00
00F83C00
01F03E00
00000000
00000000
00000000
000FE000
007FFC00
01FFFE00
03FFFF00
07F83F80
0FC00FC0
0F8007E0
1F0003E0
1E0001F0
3E0000F0
3E0000F0
3C0000F0
3FFFFFF0
3FFFFFF0
3FFFFFF0
3FFFFFF0
3C000000
3C000000
3C000000
3E000000
3E0000C0
1E0001F0
1F0001F0
0F8003E0
0FC007E0
07F83FC0
03FFFF80
01FFFF00
007FFC00
001FE000
ENDCHAR
ENDFONT
